<svg xmlns="http://www.w3.org/2000/svg" viewBox="0 0 1840.22 276.83"><title>logo</title><path d="M765.44,209.37a9.88,9.88,0,0,1,1.6,1.85c14,27.55,37,43.93,65.73,53,27.9,8.88,56.23,10.1,84.69,2.8,28.66-7.34,46.92-26,56.7-53.4,6.15-17.29,8.17-35.29,8.59-53.51.23-10,.19-20,.22-30a37.38,37.38,0,0,0-.58-4.21c-3,7.1-5.29,13.4-8.21,19.39-14.59,30-38.59,49.23-69.77,59.65C879.6,213.29,854,216,828,212c-18.14-2.77-34.56-9.71-47.88-22.79-23.58-23.17-25.3-57.57-4.15-83.16,14.06-17,33-25.95,53.64-32,24-7,48.62-9.25,73.59-9,28.49.34,57,.08,85.49.08H994c.13,1.77.34,3.21.34,4.64,0,31.16.26,62.33-.17,93.48-.31,22.73-4.59,44.71-15.89,64.82-12.88,22.95-32.82,36.62-57.85,43.42a115.56,115.56,0,0,1-14.41,3q-7.62,1-15.29,1.66A173.69,173.69,0,0,1,860,276c-1.76-.18-3.63-.61-5.4-.61a13.62,13.62,0,0,1-1.43-.18c-21-4-40.45-9.23-56.72-19.56-9.7-6.17-18.06-14.56-26.62-22.4C762.8,226.82,759.73,219,765.44,209.37ZM982.86,84.93c0-3-.23-6,.06-9,.44-4.45-.94-6.09-5.75-6-14.15.33-28.32,0-42.48.13-26.8.16-53.64-1-80.33,2.8C835.54,75.54,817.68,80.8,801.43,91c-23.88,15-34.17,42.11-25.23,68.44,7,20.57,22.89,32.15,42.4,39.33,19,7,38.77,7.68,58.65,5,27.24-3.65,51.88-13.39,71.8-32.87C973.11,147.37,982,117.69,982.86,84.93Z"/><path d="M1765,199.78c2,.11,4.1.33,6.15.33,19,0,38-.15,57,.1,3.51,0,7,1.74,10.48,2.68-.09.61-.18,1.22-.28,1.83a18.07,18.07,0,0,1-3,.5c-41.16,0-82.32.07-123.48-.11-2.82,0-5.63-1.74-8.45-2.67.11-.62.21-1.25.32-1.88,2.34-.18,4.69-.49,7-.53,21.87-.38,43.59-1.85,64.54-8.91,15.7-5.28,30.19-12.67,40.78-25.85,23.24-29,13.41-69.85-20.6-86.88-18.24-9.13-37.77-11.8-57.77-11-19.08.77-37.65,4.6-55.11,12.73-32.56,15.16-52.32,40.58-60.53,75.38-3.29,13.95-3.44,28.05-3.24,42.22.11,7.61,0,7.61-7.48,7.51-1.15,0-2.29-.14-3.79-.23V5.3l11-3.41V143.64l1.06.23a11.82,11.82,0,0,0,1.29-2.14c12.54-36.9,37.42-61.54,74.31-73.73,31.31-10.34,63.16-13.34,95.3-3.93,17.29,5.06,32.1,14.22,41.51,30.06,13.5,22.74,9.82,52.45-8.12,72.32-13.91,15.4-32,23.51-51.12,29.85-2.61.86-5.24,1.64-7.86,2.46C1765,199.1,1765,199.44,1765,199.78Z"/><path d="M428.79,112.15A68.12,68.12,0,0,0,406,82.84c-13.79-10.33-29.87-14.47-46.57-16.38A221.36,221.36,0,0,0,260,77.71c-15.23,5.36-29.24,14.19-43.8,21.47-1.16.58-2.22,1.38-4.09,2.55-1-3.52-2.2-6.58-2.61-9.74-.14-1.06,1.51-2.77,2.74-3.52a178.54,178.54,0,0,1,53.08-21.18,288.9,288.9,0,0,1,87.89-6.17c22.63,1.79,44.26,7.29,63,21.3,17.43,13,27.53,30.79,29.71,51.82,2.42,23.27,2.19,46.82,3.15,71-3.47,0-5.75-.2-8,.05-3.77.42-4.85-1.09-4.82-4.79.11-18,.1-36-.16-54a87.41,87.41,0,0,0-2.45-18.22c-1.89,5.63-3.37,11.44-5.74,16.86-8.54,19.47-23.67,32.73-41.81,42.82-25.22,14-52.69,19.91-81.21,22.17-17,1.34-33.91,1.38-50.76-1.78-14.54-2.72-27.79-8-38.5-18.54-17.48-17.24-14.62-46,5.69-59.93,13.95-9.59,29.86-13.1,46.14-14.62,18.39-1.72,36.88-2.75,55.35-3,34.15-.45,68.32-.12,102.48-.11Zm-.2,5.13h-5.51c-28.15,0-56.31-.48-84.45.16-21.93.5-43.87,2-65.73,3.86-15.55,1.36-30.36,6-43.29,15.22-18.53,13.24-18.88,38-.75,51.74,13.18,10,28.72,13.65,44.66,15.72,23.58,3.06,46.88.54,69.86-4.89,22.09-5.23,42.8-13.74,60.2-28.78C419.44,156.59,428.43,139.43,428.59,117.28Z"/><path d="M1233,65.66c-.35,4.59-1.64,6.94-5.16,8.61q-60.46,28.59-120.81,57.47a33.24,33.24,0,0,0-7.57,4.58c8.61-1.51,17.19-3.35,25.86-4.49,38-5,73.77,0,105.11,24a95.81,95.81,0,0,1,32.48,44l-13.33,5.18c-4.93-8.19-9-16.45-14.43-23.7-19.67-26.35-46.56-40.16-79-43.17-34.68-3.22-67.42,4.93-99.25,17.9-3.25,1.33-4.5,3-4.43,6.6.24,12.15-.16,24.33.21,36.48.16,5.09-1.31,7.08-6.4,6.24a39,39,0,0,0-5.59,0V14.45c0-10.39.31-10.72,11.76-12V152Z"/><path d="M504.54,66v78.3c5.32-10.53,9.6-21,15.54-30.39,13.32-21.11,32.32-35.67,55.74-44.13C608.68,58,642.2,54.23,676.28,64.09c17.47,5.06,32.42,14.37,41.73,30.5,14.72,25.49,8.87,56.66-14,77.56-13.08,11.94-28.93,18.73-45.48,24.17a27.46,27.46,0,0,0-7.68,3.34c1.91.15,3.81.44,5.72.45,19.16,0,38.32,0,57.49-.08,4.08,0,7.42,1,10.31,4.83-1.66.15-2.87.37-4.08.37-40.66,0-81.32.07-122-.12-3,0-6-1.75-9.06-2.68l.42-2c2.57-.15,5.14-.37,7.71-.42,24.58-.43,48.91-2.43,72-12,15.55-6.44,29.2-15.4,37.74-30.48,16.23-28.65,5-63.34-25.28-78.87-18.47-9.46-38.34-12.15-58.68-11.28-18.9.81-37.3,4.61-54.62,12.66-32.39,15-52.21,40.2-60.5,74.81-3.38,14.09-3.67,28.34-3.48,42.69.1,7.78,0,7.79-7.83,7.66-1,0-2-.11-3.52-.19-.09-2-.26-3.95-.26-5.87q0-61.24,0-122.48C492.87,67.48,493.9,66.48,504.54,66Z"/><path d="M1289.78,148.28a51.45,51.45,0,0,0,16.35,30.62c12.76,11.78,28.36,17.91,44.95,21.45,27.8,5.93,55.91,7.08,83.87,1.62,28.5-5.57,55.6-14.92,78-34.5a26.12,26.12,0,0,1,3.16-1.92c1,4.63,2.57,8.74,2.64,12.88,0,1.7-2.76,4.09-4.79,5.06-11.39,5.42-22.61,11.46-34.5,15.5-33.5,11.39-68.28,12.75-103.19,10.25-23.83-1.7-47-6.71-68.38-18.31-39.43-21.35-41.61-73.35-7-100.2,19.12-14.81,41.19-23.14,64.94-26.41,15.94-2.2,32.11-3.9,48.17-3.87,23.39,0,46.48,3.63,68.23,12.9a69.42,69.42,0,0,1,16.19,9.7c14.45,11.61,14.36,30.1.32,42.27-8.28,7.17-18.22,11-28.47,13.87-21.6,6.1-43.79,8.64-66.14,8.91-36.15.43-72.3.16-108.46.18Zm64.71-5.27H1367c27.15.09,54.38.46,81.09-5.17,11.12-2.34,22-6.28,32.57-10.56A27.47,27.47,0,0,0,1496,112.19c4.53-11.16-.1-22.27-12.25-30-15.88-10.07-33.85-13.95-52-15.83a243.17,243.17,0,0,0-69.11,2.78c-17,3.13-33.34,7.94-47.6,18.18-16.62,11.93-25.29,28.29-26.61,48.59-.44,6.64.11,7.08,6.69,7.08Z"/><path d="M159.92,112.1c-2.42,4.94-5.67,5.35-9.39,5.34q-66.24-.09-132.49,0c-6.36,0-6.37,0-6.37,6.6v80.85H.31c-.08-1.81-.23-3.58-.23-5.36,0-29.16-.16-58.33,0-87.49.1-20.24,4-39.78,12.87-58C27.54,24.05,51.68,6.36,84.44,1.69c28-4,55.5-1.08,81.68,10.46A73.54,73.54,0,0,1,194.23,34c.71.89,1.25,1.9,2.31,3.52-4.29.9-8.07,1.9-11.92,2.37-1.14.14-2.86-.92-3.64-2C163.44,15,138.73,7.46,111.35,5.54c-15.71-1.11-31,.58-45.37,7.22C42.52,23.57,27.79,42.16,19.25,66.07c-4.86,13.6-7,27.7-7.43,42.13-.13,4.32,2.27,3.92,5,3.92q68,0,136,0Z"/><path d="M1548.16,205.23c2.11-4.88,3.75-9,5.74-13a4.58,4.58,0,0,1,3.28-2.14c5.61-.22,11.24-.1,17.87-.1-2.24,5.14-4.09,9.65-6.23,14-.35.71-1.92,1.14-2.94,1.16C1560.24,205.29,1554.61,205.23,1548.16,205.23Z"/></svg>