<svg id="圖層_1" data-name="圖層 1" xmlns="http://www.w3.org/2000/svg" viewBox="0 0 277.73 277.32"><title>sunflower</title><path d="M240.64,124l-11.07-19.16h0L217.62,84.08c-.12-.17-.18-.29-.3-.47l-.17-.17c-.06-.06-.12-.18-.18-.24L216.8,83a.83.83,0,0,0-.24-.18.29.29,0,0,0-.23-.12,1.07,1.07,0,0,0-.24-.17l-1.81-1.06h0L196.76,71.43l-2.87-1.7-18.4-10.55c-.06,0-.06-.06-.12-.06s-.12-.06-.23-.12-.06,0-.12,0-.06,0-.12-.06-.11-.06-.17-.06-.12-.06-.18-.06-.06,0-.12-.06a.2.2,0,0,1-.17-.06.45.45,0,0,1-.24-.06H126.56a4.32,4.32,0,0,0-2,.53L83.91,82.56a4.21,4.21,0,0,0-1.53,1.52h0l-.41.71L59,124.63a4.18,4.18,0,0,0-.53,2.05v46.87a3.45,3.45,0,0,0,.12.83.52.52,0,0,0,.05.23c0,.06,0,.06.06.12l.35.88,23.44,40.54c.12.18.18.3.29.47s.06.12.12.12l.24.23.17.18a.67.67,0,0,0,.24.17.28.28,0,0,0,.23.12c.06.06.18.12.23.18h0l22.21,12.83.24.12,18.16,10.48c.06.06.12.06.18.12s0,.06.11.06.18.12.3.12.11.06.17.06a.61.61,0,0,0,.29.05.45.45,0,0,1,.24.06c.06,0,.18.06.23.06H173.5a4.21,4.21,0,0,0,2.05-.53l22.2-12.77,18.4-10.6a4.23,4.23,0,0,0,1.53-1.53l12-20.74h0l11.42-19.8a4.33,4.33,0,0,0,.53-2.06V126.68a4.29,4.29,0,0,0-.53-2.05ZM213.28,96.91l.7-2.63,1.64,2.87,3.23,5.56H211.7ZM176,68.91l1,.58L191.84,78l15.58,9-2,7.5-2.23,8.2H166.88Zm-31.35,85.25-3.75,14-5.63,21H99l9.38-35Zm-34.1-8.2L118,118.3l2-7.38h36.27l-9.38,35Zm42.59,8.2h36.27l-9.37,35H143.73Zm2.17-8.2,9.38-35H201l-9.38,35ZM131.78,66.8h36.27L160.9,93.46l-2.46,9.25H122.17l1.58-6ZM89,89.12l.87-.53,32.64-18.8-2.87,10.6-5.92,22.38H81.15ZM66.62,127.79,76.35,111h35.1l-9.26,34.57-.12.41H66.68V127.79Zm20.68,73.3L86,205.9l-4.87-8.44H88.3Zm-11-11.89-9.73-16.82V154.16H99.84L93.16,179l-2.75,10.2ZM124,231.27l-13.53-7.79-.24-.12-17.69-10.2,2.11-7.85,2.11-7.85H133Zm46.47-6.21-2.23,8.32H131.89l9.61-35.92h36.33Zm40.55-14-17.41,10.08-16.11,9.26,8.85-32.93h32.52Zm12.65-21.85h-35.1l9.38-35h35.39v18.22h0ZM233.38,146H200.16l9.37-35h14.12l9.73,16.81V146Z" transform="translate(-11.13 -11.37)"/><path d="M288.87,150.06a4.18,4.18,0,0,0-1.23-2.93l-27.37-26.54L270.7,83.91a4,4,0,0,0-.41-3.17,4.26,4.26,0,0,0-2.58-1.93l-37-9.32-9.31-37A4,4,0,0,0,219.43,30a4.28,4.28,0,0,0-3.16-.41L179.53,40,152.93,12.6A3.94,3.94,0,0,0,150,11.37a4.18,4.18,0,0,0-2.93,1.23L120.47,40,83.73,29.53a4,4,0,0,0-3.16.41,4.24,4.24,0,0,0-1.94,2.52l-9.31,37-37,9.32a4.24,4.24,0,0,0-2.58,1.93,4,4,0,0,0-.41,3.17l10.43,36.68L12.36,147.07A3.94,3.94,0,0,0,11.13,150a4.18,4.18,0,0,0,1.23,2.93l27.37,26.6L29.3,216.21a3.93,3.93,0,0,0,.41,3.16,4.11,4.11,0,0,0,2.58,1.94l37,9.31,9.31,37a4,4,0,0,0,1.94,2.52,4.29,4.29,0,0,0,3.16.41l36.74-10.43,26.6,27.36a3.94,3.94,0,0,0,2.93,1.23,4.18,4.18,0,0,0,2.93-1.23l26.6-27.36,36.74,10.43a4,4,0,0,0,3.16-.41,4.43,4.43,0,0,0,1.94-2.52l9.31-37,37-9.31a4.13,4.13,0,0,0,3-5.1l-10.43-36.68,27.37-26.6A3.94,3.94,0,0,0,288.87,150.06Zm-36.1,25.37a4.18,4.18,0,0,0-1.11,4l10,35-35.27,8.85a4.06,4.06,0,0,0-3,3l-8.91,35.33-35-9.9a4,4,0,0,0-4,1.11l-25.37,26-25.37-26.08a4,4,0,0,0-2.93-1.23,3.58,3.58,0,0,0-1.11.18l-35,9.9-8.91-35.27a4.16,4.16,0,0,0-3-3l-35.27-8.85,10-35a4,4,0,0,0-1.11-4L21.09,150.12,47.23,124.8a4.17,4.17,0,0,0,1.11-4l-10-35,35.27-8.91a4.16,4.16,0,0,0,3-3l8.91-35.34,35,9.91a4,4,0,0,0,4-1.12l25.37-26L175.37,47.4a4.17,4.17,0,0,0,4,1.12l35-10,8.91,35.28a4.17,4.17,0,0,0,3,3l35.27,8.9-10,35a4,4,0,0,0,1.11,4l26.14,25.31Z" transform="translate(-11.13 -11.37)"/></svg>