<?xml version="1.0" standalone="no"?><!DOCTYPE svg PUBLIC "-//W3C//DTD SVG 1.1//EN" "http://www.w3.org/Graphics/SVG/1.1/DTD/svg11.dtd" ><svg xmlns="http://www.w3.org/2000/svg"><metadata></metadata><defs><font id="DHBK Tp.HCM:231:Optima" horiz-adv-x="2048"><font-face font-family="Optima" font-weight="400" font-stretch="normal" units-per-em="2048" panose-1="2 2 5 0 0 0 0 0 0 0" ascent="1532" descent="-561" x-height="0" bbox="-1157 -541 2048 2241" underline-thickness="38" underline-position="-141" unicode-range="U+0020-266b" /><missing-glyph horiz-adv-x="1536" d="M256 0 l0 1280 l1024 0 l0 -1280 l-1024 0 ZM1247 33 l0 1214 l-958 0 l0 -1214 l958 0 Z" /><glyph glyph-name=".null" unicode="" d="" /><glyph glyph-name="nonmarkingreturn" unicode="" d="" /><glyph glyph-name="space" unicode=" &#x2015;&#x2016;&#x2017;&#x201b;&#x201f;&#x2023;&#x2024;&#x2025;&#x2031;" d="" /><glyph glyph-name="exclam" unicode="!" d="M436 1221 l-74 -867 l-40 0 l-78 867 l0 61 q0 143 96 143 q94 0 98 -143 q0 -45 -2 -61 ZM217 100 q0 51 38 87 q38 36 87 36 q34 0 61 -17 q27 -17 43.5 -45 q16.5 -28 16.5 -61 q0 -49 -36 -86 q-36 -37 -85 -37 q-50 0 -87.5 36.5 q-37.5 36.5 -37.5 86.5 Z" /><glyph glyph-name="quotedbl" unicode="&quot;" d="M242 1262 l0 -347 q0 -66 -14.5 -94 q-14.5 -28 -53.5 -28 q-40 0 -55 25.5 q-15 25.5 -15 96.5 l0 347 q-2 18 -2 49 q0 114 72 114 q38 0 54 -26 q16 -26 16 -84 q0 -35 -2 -53 ZM575 1262 l0 -347 q0 -69 -14.5 -95.5 q-14.5 -26.5 -52.5 -26.5 q-40 0 -55 25.5 q-15 25.5 -15 96.5 l0 347 q-2 18 -2 49 q0 114 72 114 q38 0 54 -26 q16 -26 16 -84 q0 -35 -3 -53 Z" /><glyph glyph-name="numbersign" unicode="#" d="M1022 557 l0 -115 l-223 0 l-64 -442 l-119 0 l64 442 l-274 0 l-68 -442 l-119 0 l68 442 l-219 0 l0 115 l237 0 l43 272 l-225 0 l0 115 l242 0 l63 416 l119 0 l-64 -416 l273 0 l61 416 l119 0 l-62 -416 l199 0 l0 -115 l-215 0 l-41 -272 l205 0 ZM739 829 l-272 0 l-43 -272 l274 0 l41 272 Z" /><glyph glyph-name="dollar" unicode="$" d="M618 596 l0 -524 q60 13 106.5 50 q46.5 37 72.5 94 q26 57 26 128 q0 59 -20 102 q-20 43 -48.5 68 q-28.5 25 -61.5 43 q-33 18 -75 39 ZM537 821 l0 471 q-86 -19 -137.5 -80.5 q-51.5 -61.5 -51.5 -148.5 q0 -58 21 -101.5 q21 -43.5 50 -69.5 q29 -26 64 -44 q35 -18 54 -27 ZM618 1298 l0 -514 q53 -21 117.5 -46.5 q64.5 -25.5 120 -63 q55.5 -37.5 91.5 -100 q36 -62.5 36 -152.5 q0 -117 -47 -208.5 q-47 -91.5 -130.5 -148.5 q-83.5 -57 -187.5 -75 l0 -228 q-10 2 -19.5 4.5 q-9.5 2.5 -20.5 2.5 q-8 -1 -14.5 -1.5 q-6.5 -0.5 -14 -2.5 q-7.5 -2 -12.5 -3 l0 215 q-126 0 -219 21 q-93 21 -164 86 q6 22 12.5 42.5 q6.5 20.5 12 43.5 q5.5 23 8.5 45.5 q3 22.5 3 44.5 l23 0 q67 -101 140 -151 q73 -50 184 -50 l0 574 q-110 42 -174 75.5 q-64 33.5 -119.5 105.5 q-55.5 72 -55.5 185 q0 108 45 187.5 q45 79.5 123.5 125.5 q78.5 46 180.5 62 l0 158 q14 -2 24 -4 q10 -2 17 -2 q8 0 18 2 q10 2 22 4 l0 -152 q69 0 155.5 -17.5 q86.5 -17.5 154.5 -76.5 q-32 -68 -54 -162 l-22 0 q-76 166 -234 174 Z" /><glyph glyph-name="percent" unicode="%&#x2027;&#x2028;&#x2029;&#x202a;&#x202b;&#x202c;&#x202d;&#x202e;&#x202f;" d="M1315 1425 l-762 -1493 q-40 5 -49 5 q-10 0 -45 -5 l762 1493 q28 -4 45 -4 q15 0 49 4 ZM748 1044 q0 -89 -44 -170 q-44 -81 -119.5 -129.5 q-75.5 -48.5 -166.5 -48.5 q-98 0 -172 44.5 q-74 44.5 -114 121.5 q-40 77 -40 172 q0 95 45 173 q45 78 124 122.5 q79 44.5 173 44.5 q92 0 164 -43.5 q72 -43.5 111 -119.5 q39 -76 39 -167 ZM1714 322 q0 -94 -44.5 -174 q-44.5 -80 -127.5 -130 q-26 -14 -75 -27.5 q-49 -13.5 -83 -13.5 q-96 0 -170.5 43.5 q-74.5 43.5 -114.5 119 q-40 75.5 -40 171.5 q0 96 45 175 q45 79 123 124 q78 45 174 45 q94 0 165 -44.5 q71 -44.5 109.5 -121.5 q38.5 -77 38.5 -167 ZM1206 289 q0 -104 40.5 -182 q40.5 -78 135.5 -78 q54 0 91 30.5 q37 30.5 56.5 74.5 q19.5 44 28.5 97 q9 53 9 101 q0 272 -168 272 q-109 0 -151 -94.5 q-42 -94.5 -42 -220.5 ZM240 1008 q0 -104 39.5 -182 q39.5 -78 136.5 -78 q53 0 90 30.5 q37 30.5 57.5 75.5 q20.5 45 28.5 95.5 q8 50.5 8 101.5 q0 272 -168 272 q-110 0 -151 -94.5 q-41 -94.5 -41 -220.5 Z" /><glyph glyph-name="ampersand" unicode="&amp;" d="M653 831 q98 69 153.5 143.5 q55.5 74.5 55.5 172.5 q0 49 -20.5 87.5 q-20.5 38.5 -57.5 61.5 q-37 23 -86 23 q-84 0 -129 -54.5 q-45 -54.5 -45 -138.5 q0 -117 129 -295 ZM1094 291 l256 -295 q-82 8 -125 8 q-20 0 -53.5 -2 q-33.5 -2 -63.5 -4 q-78 113 -129 172 q-56 -61 -127 -107 q-71 -46 -151 -69 q-80 -23 -164 -23 q-171 0 -280.5 93 q-109.5 93 -109.5 249 q0 95 47.5 175 q47.5 80 126.5 142 q79 62 185 115 l12 7 q-77 118 -107 178 q-30 60 -30 141 q0 92 40 160.5 q40 68.5 112 105.5 q72 37 163 37 q119 0 195 -58 q76 -58 76 -157 q0 -81 -39 -147 q-39 -66 -92 -112 q-53 -46 -148 -112 q28 -35 73 -95 q45 -60 97 -125 q52 -65 82 -99 l109 -123 q62 90 127 198.5 q65 108.5 116 205.5 q26 -45 78 -84 q-140 -213 -276 -375 ZM553 702 q-5 -3 -9 -5 q-4 -2 -7 -5 q-105 -67 -164.5 -144.5 q-59.5 -77.5 -59.5 -187.5 q0 -83 40 -152.5 q40 -69.5 109 -108 q69 -38.5 152 -38.5 q105 0 191 52.5 q86 52.5 133 99.5 q-247 302 -385 489 Z" /><glyph glyph-name="quotesingle" unicode="&#39;" d="M352 1262 l0 -347 q0 -69 -14.5 -95.5 q-14.5 -26.5 -52.5 -26.5 q-40 0 -55 25.5 q-15 25.5 -15 96.5 l0 347 q-2 18 -2 49 q0 57 16.5 85.5 q16.5 28.5 55.5 28.5 q39 0 54 -26 q15 -26 15 -84 q0 -35 -2 -53 Z" /><glyph glyph-name="parenleft" unicode="(" d="M453 1532 l41 -39 q-130 -180 -183 -389 q-53 -209 -53 -463 q0 -70 6 -144.5 q6 -74.5 19 -151.5 q13 -77 28 -134 q18 -69 43 -128 q25 -59 53.5 -109.5 q28.5 -50.5 86.5 -141.5 l-41 -41 q-91 105 -150 200.5 q-59 95.5 -100 204.5 q-41 109 -58.5 225.5 q-17.5 116.5 -17.5 250.5 q0 162 36 313.5 q36 151.5 109.5 290.5 q73.5 139 180.5 256 Z" /><glyph glyph-name="parenright" unicode=")" d="M117 -209 l-41 41 q50 79 83.5 138 q33.5 59 57 115.5 q23.5 56.5 41.5 125.5 q15 57 28 134 q13 77 19 151 q6 74 6 145 q0 126 -12 237 q-12 111 -37 213.5 q-25 102.5 -71.5 205.5 q-46.5 103 -114.5 196 l41 39 q107 -117 179.5 -254.5 q72.5 -137.5 109 -290.5 q36.5 -153 36.5 -315 q0 -183 -33 -332 q-33 -149 -103.5 -281 q-70.5 -132 -188.5 -268 Z" /><glyph glyph-name="asterisk" unicode="*" d="M168 1278 l258 -184 l-29 315 q78 0 117 2 l-31 -321 l256 190 q27 -60 62 -104 l-289 -132 l287 -126 q-26 -38 -58 -103 l-260 182 l35 -317 q-16 1 -29.5 1.5 q-13.5 0.5 -35.5 0.5 q-35 0 -54 -2 l29 311 l-250 -182 q-8 14 -21.5 37.5 q-13.5 23.5 -25.5 42.5 l-12 20 l286 133 l-294 132 q42 48 59 104 Z" /><glyph glyph-name="plus" unicode="+" d="M555 586 l0 448 l131 0 l0 -448 l451 0 l0 -131 l-451 0 l0 -455 l-131 0 l0 455 l-451 0 l0 131 l451 0 Z" /><glyph glyph-name="comma" unicode="," d="M94 -330 l144 455 q16 51 35 84 q19 33 59 33 q35 0 59.5 -20.5 q24.5 -20.5 24.5 -55.5 q0 -17 -6.5 -36.5 q-6.5 -19.5 -15.5 -35 q-9 -15.5 -23 -37.5 l-242 -401 l-35 14 Z" /><glyph glyph-name="hyphen" unicode="-" d="M84 389 l0 127 l512 0 l0 -127 l-512 0 Z" /><glyph glyph-name="period" unicode="." d="M162 100 q0 51 38 87 q38 36 87 36 q32 0 60 -17 q28 -17 44.5 -45 q16.5 -28 16.5 -61 q0 -49 -36 -86 q-36 -37 -85 -37 q-50 0 -87.5 36.5 q-37.5 36.5 -37.5 86.5 Z" /><glyph glyph-name="slash" unicode="/" d="M621 1532 l-584 -1741 q-28 4 -47 4 q-16 0 -58 -4 l584 1741 q38 -4 53 -4 q18 0 52 4 Z" /><glyph glyph-name="zero" unicode="0" d="M578 41 q106 0 174 77.5 q68 77.5 98.5 221.5 q30.5 144 30.5 348 q0 130 -17 240 q-17 110 -54 195.5 q-37 85.5 -93.5 134.5 q-56.5 49 -134.5 49 q-96 -3 -159.5 -45 q-63.5 -42 -99.5 -120 q-36 -78 -50.5 -192 q-14.5 -114 -14.5 -266 q0 -265 58.5 -454 q58.5 -189 261.5 -189 ZM90 641 q0 133 22.5 263 q22.5 130 76.5 234.5 q54 104.5 152 168 q98 63.5 245 63.5 q156 0 259 -76.5 q103 -76.5 153.5 -228.5 q50.5 -152 50.5 -377 q0 -165 -34 -298 q-34 -133 -96.5 -224.5 q-62.5 -91.5 -152 -140 q-89.5 -48.5 -193.5 -48.5 q-136 0 -229.5 49.5 q-93.5 49.5 -148.5 137.5 q-55 88 -80 209 q-25 121 -25 268 Z" /><glyph glyph-name="one" unicode="1" d="M496 -6 l0 1237 l-15 6 l-227 -123 q-20 48 -61 76 q129 53 238.5 106 q109.5 53 193.5 105 l34 -10 l0 -1397 q-20 2 -33 3 q-13 1 -22 2 q-9 1 -26 1 q-19 0 -24.5 -0.5 q-5.5 -0.5 -22.5 -2 q-17 -1.5 -35 -3.5 Z" /><glyph glyph-name="two" unicode="2" d="M252 1075 l-72 101 q59 94 150.5 144 q91.5 50 204.5 50 q121 0 213 -38 q92 -38 144 -117.5 q52 -79.5 52 -202.5 q0 -118 -57.5 -224.5 q-57.5 -106.5 -153.5 -205.5 l-244 -260 l-124 -132 l-35 -38 l10 -23 q45 0 182.5 4 q137.5 4 242 9.5 q104.5 5.5 204.5 13.5 q-2 -28 -4 -47.5 q-2 -19.5 -2 -30.5 q0 -14 2 -34 q2 -20 4 -44 l-879 0 l0 31 q57 55 168 168 l123 127 q97 99 157.5 166 q60.5 67 110 143 q49.5 76 78.5 168 q29 92 29 205 q0 87 -24 152 q-24 65 -76.5 101.5 q-52.5 36.5 -139.5 36.5 q-96 0 -163 -61 q-67 -61 -87 -156 l-14 -6 Z" /><glyph glyph-name="three" unicode="3" d="M250 1137 l-51 110 q32 39 113.5 81 q81.5 42 187.5 42 q98 0 186 -31.5 q88 -31.5 145.5 -97.5 q57.5 -66 57.5 -164 q0 -120 -72.5 -214 q-72.5 -94 -204.5 -142 q97 -8 173 -45 q76 -37 121.5 -105 q45.5 -68 45.5 -165 q0 -132 -69.5 -229.5 q-69.5 -97.5 -187 -148.5 q-117.5 -51 -263.5 -51 q-171 0 -309 66 q11 30 15.5 62 q4.5 32 8.5 63 l13 8 q56 -62 127 -98.5 q71 -36.5 149 -36.5 q154 0 242 101.5 q88 101.5 88 258.5 q0 133 -74.5 205 q-74.5 72 -208.5 72 q-23 0 -52 -3.5 q-29 -3.5 -46 -4.5 q2 10 3 17 q1 7 2 11.5 q1 4.5 1 14.5 q0 8 -2 19.5 q-2 11.5 -4 21.5 q54 -4 78 -4 q81 0 137 41 q56 41 82.5 109.5 q26.5 68.5 26.5 148.5 q0 73 -26 132 q-26 59 -74 92.5 q-48 33.5 -117 33.5 q-74 0 -138.5 -46.5 q-64.5 -46.5 -93.5 -117.5 l-10 -6 Z" /><glyph glyph-name="four" unicode="4" d="M678 381 l-635 0 l0 27 q78 115 163 237.5 q85 122.5 175 249 q90 126.5 165 232 q75 105.5 167 233.5 q20 -2 36.5 -4 q16.5 -2 28.5 -2 q10 0 26 2 q16 2 38 4 l0 -862 l188 8 q-4 -42 -4 -66 q0 -23 4 -67 l-188 8 l0 -387 q-20 2 -33.5 3 q-13.5 1 -22.5 2 q-9 1 -26 1 q-19 0 -28 -1 q-9 -1 -22.5 -2 q-13.5 -1 -31.5 -3 l0 387 ZM682 498 l0 657 l-10 8 q-83 -110 -155.5 -213 q-72.5 -103 -150.5 -217.5 q-78 -114.5 -153 -224.5 l8 -10 l461 0 Z" /><glyph glyph-name="five" unicode="5" d="M254 690 l0 674 l12 6 l658 0 l8 -16 q-12 -55 -12 -150 q-144 33 -277 33 l-303 0 l0 -457 q98 49 219 49 q111 0 202 -49 q91 -49 144 -138.5 q53 -89.5 53 -201.5 q0 -119 -62 -226 q-62 -107 -178 -172 q-116 -65 -269 -65 q-196 0 -328 80 l31 136 l14 2 q45 -73 125.5 -111.5 q80.5 -38.5 171.5 -38.5 q144 0 224.5 110.5 q80.5 110.5 80.5 268.5 q0 319 -293 319 q-116 0 -203 -67 l-18 14 Z" /><glyph glyph-name="six" unicode="6" d="M815 1364 l23 -72 q-42 15 -97 15 q-153 0 -251 -107.5 q-98 -107.5 -141.5 -262.5 q-43.5 -155 -45.5 -306 q58 91 140.5 136.5 q82.5 45.5 191.5 45.5 q95 0 169.5 -27.5 q74.5 -27.5 123.5 -76.5 q49 -49 75.5 -121 q26.5 -72 26.5 -156 q0 -129 -56 -233.5 q-56 -104.5 -157.5 -163 q-101.5 -58.5 -232.5 -58.5 q-163 0 -268 78.5 q-105 78.5 -151 210 q-46 131.5 -46 293.5 q0 181 44 332.5 q44 151.5 125.5 259 q81.5 107.5 193 163.5 q111.5 56 241.5 56 q61 0 92 -6 ZM592 735 q-139 -8 -214 -98 q-75 -90 -75 -262 q0 -85 34 -162 q34 -77 99.5 -124.5 q65.5 -47.5 149.5 -47.5 q129 0 195.5 110.5 q66.5 110.5 66.5 266.5 q0 145 -70.5 230 q-70.5 85 -185.5 87 Z" /><glyph glyph-name="seven" unicode="7" d="M164 1370 l874 0 l2 -59 q-56 -92 -162 -272.5 q-106 -180.5 -215.5 -374 q-109.5 -193.5 -195 -351.5 q-85.5 -158 -166.5 -319 q-18 2 -29 3 q-11 1 -18.5 2 q-7.5 1 -22.5 1 q-16 0 -24 -1 q-8 -1 -19.5 -2 q-11.5 -1 -25.5 -3 l2 22 q22 36 185 305 q163 269 232 383.5 q69 114.5 148 250.5 q79 136 143 253 l-8 9 q-118 -2 -319 -11.5 q-201 -9.5 -381 -21.5 q2 24 3 39 q1 15 2 25 q1 10 1 30 q0 16 -2 42.5 q-2 26.5 -4 49.5 Z" /><glyph glyph-name="eight" unicode="8" d="M733 776 l0 -14 q50 -10 114 -40.5 q64 -30.5 121.5 -104 q57.5 -73.5 57.5 -193.5 q0 -134 -58.5 -235 q-58.5 -101 -163.5 -156.5 q-105 -55.5 -239 -55.5 q-129 0 -231.5 45 q-102.5 45 -160.5 136.5 q-58 91.5 -58 224.5 q0 86 38.5 163 q38.5 77 107 132 q68.5 55 151.5 76 l0 14 q-69 17 -147.5 82 q-78.5 65 -78.5 197 q0 101 55.5 174.5 q55.5 73.5 146 111 q90.5 37.5 190.5 37.5 q86 0 149.5 -15.5 q63.5 -15.5 122.5 -60.5 q113 -85 113 -227 q0 -67 -30.5 -126.5 q-30.5 -59.5 -83 -103 q-52.5 -43.5 -116.5 -61.5 ZM575 1307 q-108 0 -169 -93 q-30 -40 -40 -85.5 q-10 -45.5 -10 -104.5 q0 -99 70 -176 q52 -60 152 -60 q110 0 172 95 q43 61 43 178 q0 49 -14 94.5 q-14 45.5 -41.5 78.5 q-27.5 33 -69 53 q-41.5 20 -93.5 20 ZM575 723 q-86 0 -151 -49 q-65 -49 -97 -127 q-32 -78 -32 -162 q0 -147 70.5 -245.5 q70.5 -98.5 212.5 -98.5 q71 0 122.5 31 q51.5 31 83.5 82 q32 51 47 113.5 q15 62.5 15 129.5 q0 65 -15 124 q-15 59 -49 105 q-34 46 -84.5 71.5 q-50.5 25.5 -122.5 25.5 Z" /><glyph glyph-name="nine" unicode="9" d="M197 109 l22 8 q41 -35 93.5 -55.5 q52.5 -20.5 105.5 -20.5 q96 0 185 79.5 q89 79.5 140 217.5 q36 94 51 187 q15 93 15 200 q-51 -88 -139.5 -137 q-88.5 -49 -190.5 -49 q-110 0 -198 48 q-88 48 -138.5 137.5 q-50.5 89.5 -50.5 209.5 q0 132 58 231 q58 99 161.5 152 q103.5 53 239.5 53 q118 0 203.5 -48 q85.5 -48 139 -129.5 q53.5 -81.5 77.5 -185.5 q24 -104 24 -221 q0 -172 -45.5 -321.5 q-45.5 -149.5 -128 -259 q-82.5 -109.5 -191 -169 q-108.5 -59.5 -229.5 -59.5 q-53 0 -102 9.5 q-49 9.5 -59 17.5 q-5 47 -43 105 ZM807 952 q0 101 -30 182 q-30 81 -89.5 127 q-59.5 46 -142.5 46 q-94 0 -156 -52.5 q-62 -52.5 -89.5 -135 q-27.5 -82.5 -27.5 -173.5 q0 -133 63 -227 q63 -94 193 -94 q63 0 115.5 28 q52.5 28 89 75 q36.5 47 55.5 105 q19 58 19 119 Z" /><glyph glyph-name="colon" unicode=":" d="M162 100 q0 51 38 87 q38 36 87 36 q32 0 60 -17 q28 -17 44.5 -45 q16.5 -28 16.5 -61 q0 -49 -36 -86 q-36 -37 -85 -37 q-50 0 -87.5 36.5 q-37.5 36.5 -37.5 86.5 ZM162 840 q0 49 38 86 q38 37 87 37 q50 0 85.5 -37.5 q35.5 -37.5 35.5 -85.5 q0 -51 -36 -87 q-36 -36 -85 -36 q-50 0 -87.5 35.5 q-37.5 35.5 -37.5 87.5 Z" /><glyph glyph-name="semicolon" unicode=";" d="M94 -330 l144 455 q16 51 35 84 q19 33 59 33 q35 0 59.5 -20.5 q24.5 -20.5 24.5 -55.5 q0 -17 -6.5 -36.5 q-6.5 -19.5 -15.5 -35 q-9 -15.5 -23 -37.5 l-242 -401 l-35 14 ZM199 840 q0 49 38 86 q38 37 87 37 q50 0 85 -37.5 q35 -37.5 35 -85.5 q0 -51 -35 -87 q-35 -36 -85 -36 q-50 0 -87.5 35.5 q-37.5 35.5 -37.5 87.5 Z" /><glyph glyph-name="less" unicode="&lt;" d="M1143 113 l0 -127 l-1043 479 l0 110 l1043 480 l0 -127 l-877 -408 l877 -407 Z" /><glyph glyph-name="equal" unicode="=" d="M1137 784 l0 -131 l-1033 0 l0 131 l1033 0 ZM1137 387 l0 -131 l-1033 0 l0 131 l1033 0 Z" /><glyph glyph-name="greater" unicode="&gt;" d="M98 113 l877 407 l-877 408 l0 127 l1043 -480 l0 -110 l-1043 -479 l0 127 Z" /><glyph glyph-name="question" unicode="?" d="M545 879 l-129 -142 q-54 -61 -79.5 -101 q-25.5 -40 -25.5 -91 q0 -51 32 -85 q32 -34 83 -34 q29 0 59 12 l13 -8 l-25 -57 q-13 -8 -55 -8 q-96 0 -166 64.5 q-70 64.5 -70 174.5 q0 71 30 126 q30 55 89 116 l123 131 q51 52 81 100.5 q30 48.5 30 104.5 q0 51 -26.5 90 q-26.5 39 -71 59.5 q-44.5 20.5 -93.5 20.5 q-47 0 -95 -26 q-48 -26 -77 -66 l-12 102 q110 63 200 63 q143 0 225.5 -71.5 q82.5 -71.5 82.5 -194.5 q0 -86 -29.5 -147.5 q-29.5 -61.5 -93.5 -132.5 ZM252 100 q0 51 38 87 q38 36 87 36 q32 0 60 -17 q28 -17 44.5 -45 q16.5 -28 16.5 -61 q0 -49 -36 -86 q-36 -37 -85 -37 q-50 0 -87.5 36.5 q-37.5 36.5 -37.5 86.5 Z" /><glyph glyph-name="at" unicode="@" d="M561 528 q0 -67 29.5 -110 q29.5 -43 95.5 -43 q65 0 130 84.5 q65 84.5 107 197.5 q42 113 42 185 q0 53 -26.5 89 q-26.5 36 -82.5 36 q-82 0 -149.5 -74.5 q-67.5 -74.5 -106.5 -182 q-39 -107.5 -39 -182.5 ZM1014 934 l26 94 l181 0 l-148 -536 q-3 -12 -6.5 -26 q-3.5 -14 -3.5 -24 q0 -26 15 -46.5 q15 -20.5 42 -20.5 q60 0 132 55 q72 55 123.5 161.5 q51.5 106.5 51.5 248.5 q0 95 -59 209 q-59 114 -186 194 q-127 80 -312 80 q-185 0 -334.5 -80 q-149.5 -80 -235 -223 q-85.5 -143 -85.5 -324 q0 -182 88 -324 q88 -142 241 -221 q153 -79 339 -79 q105 0 202 35 q97 35 176.5 99 q79.5 64 139.5 152 l125 0 q-46 -86 -116 -158.5 q-70 -72.5 -155.5 -124 q-85.5 -51.5 -184 -79 q-98.5 -27.5 -198.5 -27.5 q-156 0 -296 51.5 q-140 51.5 -247 148.5 q-107 97 -167 227.5 q-60 130.5 -60 285.5 q0 203 98.5 374.5 q98.5 171.5 271.5 270 q173 98.5 384 98.5 q151 0 276 -47 q125 -47 215 -128 q90 -81 139.5 -186.5 q49.5 -105.5 49.5 -219.5 q0 -150 -71.5 -279 q-71.5 -129 -178.5 -205.5 q-107 -76.5 -203 -76.5 q-85 0 -126.5 45 q-41.5 45 -47.5 102 q-72 -70 -125 -103.5 q-53 -33.5 -131 -33.5 q-109 0 -192 86 q-82 81 -82 211 q0 109 62.5 216.5 q62.5 107.5 164 175 q101.5 67.5 215.5 67.5 q138 0 193 -115 Z" /><glyph glyph-name="A" unicode="a" d="M719 1425 l614 -1431 q-26 2 -43 3 q-17 1 -28.5 2 q-11.5 1 -34.5 1 q-20 0 -51 -2 q-31 -2 -58 -4 q-104 301 -215 553 l-520 0 q-48 -120 -80 -202 q-32 -82 -65.5 -176 q-33.5 -94 -57.5 -175 q-18 2 -30.5 3 q-12.5 1 -21 2 q-8.5 1 -24.5 1 q-17 0 -25 -1 q-8 -1 -20 -2 q-12 -1 -26 -3 l639 1431 l47 0 ZM872 633 l-227 524 l-223 -524 l450 0 Z" /><glyph glyph-name="B" unicode="b" d="M195 0 l0 1395 l401 0 q154 0 254.5 -27 q100.5 -27 151.5 -89.5 q51 -62.5 51 -166.5 q0 -70 -24 -128.5 q-24 -58.5 -68.5 -105.5 q-44.5 -47 -102.5 -78 q-58 -31 -129 -50 q64 -3 130 -22 q66 -19 121 -55.5 q55 -36.5 89.5 -97.5 q34.5 -61 34.5 -147 q0 -218 -184 -346 q-54 -36 -126 -55 q-72 -19 -141 -23 q-69 -4 -166 -4 l-292 0 ZM375 1319 l0 -541 l84 0 q81 0 140.5 8.5 q59.5 8.5 117.5 34.5 q75 36 116 100 q41 64 41 148 q0 93 -41 149 q-41 56 -117 78.5 q-76 22.5 -190 22.5 l-151 0 ZM375 702 l0 -626 l194 0 q101 0 179 40.5 q78 40.5 121.5 113.5 q43.5 73 43.5 163 q0 170 -110.5 239.5 q-110.5 69.5 -313.5 69.5 l-114 0 Z" /><glyph glyph-name="C" unicode="c" d="M1262 215 l-11 -129 q-60 -41 -135.5 -67 q-75.5 -26 -154 -38 q-78.5 -12 -162.5 -12 q-165 0 -300 50.5 q-135 50.5 -228.5 147.5 q-93.5 97 -143 233 q-49.5 136 -49.5 302 q0 224 101 388 q101 164 277.5 249.5 q176.5 85.5 393.5 85.5 q70 0 147 -10.5 q77 -10.5 152.5 -32.5 q75.5 -22 140.5 -51 q-26 -66 -43 -157 l-14 -3 q-25 30 -77 70 q-52 40 -134.5 73.5 q-82.5 33.5 -179.5 33.5 q-180 0 -307.5 -88.5 q-127.5 -88.5 -191.5 -239 q-64 -150.5 -64 -326.5 q0 -192 69 -339 q69 -147 194 -226.5 q125 -79.5 285 -79.5 q102 0 191 31 q89 31 149.5 68.5 q60.5 37.5 94.5 66.5 Z" /><glyph glyph-name="D" unicode="d" d="M385 1313 l0 -1221 q24 -1 75.5 -4.5 q51.5 -3.5 102.5 -5.5 q51 -2 82 -2 q218 0 340 61 q156 79 225.5 231 q69.5 152 69.5 357 q0 165 -34.5 276.5 q-34.5 111.5 -110.5 181.5 q-76 70 -197.5 102 q-121.5 32 -294.5 32 q-62 0 -137 -3.5 q-75 -3.5 -121 -4.5 ZM205 0 l0 1395 l465 0 l141 0 q147 0 253 -24 q106 -24 198 -99 q109 -89 164 -223.5 q55 -134.5 55 -288.5 q0 -136 -31.5 -248 q-31.5 -112 -89 -198.5 q-57.5 -86.5 -137.5 -157.5 q-61 -54 -135.5 -86.5 q-74.5 -32.5 -150 -47 q-75.5 -14.5 -149.5 -18.5 q-74 -4 -184 -4 l-399 0 Z" /><glyph glyph-name="E" unicode="e" d="M362 1298 l0 -514 l318 0 q19 0 55 2.5 q36 2.5 61.5 4.5 q25.5 2 65.5 4 q-2 -18 -4 -31 q-2 -13 -2 -23 q0 -6 2 -21 q2 -15 4 -36 q-40 2 -65.5 4 q-25.5 2 -61.5 4 q-36 2 -55 2 l-318 0 l0 -598 q125 0 371 8 q84 3 189 19 q-1 -8 -3 -21.5 q-2 -13.5 -2.5 -21.5 q-0.5 -8 -1.5 -19 q0 -14 2.5 -30 q2.5 -16 4.5 -31 l-740 0 l0 1395 l727 0 q-2 -22 -4 -37 q-2 -15 -2 -25 q0 -9 2 -25 q2 -16 4 -36 q-76 15 -184 22 l-205 4 l-158 0 Z" /><glyph glyph-name="F" unicode="f" d="M182 -6 l0 1401 l727 0 q-2 -22 -4 -37 q-2 -15 -2 -25 q0 -9 2 -25 q2 -16 4 -36 q-76 15 -184 22 l-205 4 l-158 0 l0 -514 l318 0 q19 0 55 2.5 q36 2.5 61.5 4.5 q25.5 2 65.5 4 q-2 -18 -4 -31 q-2 -13 -2 -23 q0 -6 2 -21 q2 -15 4 -36 q-40 2 -65.5 4 q-25.5 2 -61.5 4 q-36 2 -55 2 l-318 0 l0 -700 q-22 2 -36.5 3 q-14.5 1 -24.5 2 q-10 1 -29 1 q-15 0 -41 -2 q-26 -2 -49 -4 Z" /><glyph glyph-name="G" unicode="g" d="M1405 1149 l-23 0 q-42 50 -95 87 q-53 37 -110 61.5 q-57 24.5 -122 37.5 q-65 13 -133 13 q-131 0 -239.5 -42 q-108.5 -42 -187 -124.5 q-78.5 -82.5 -121 -203.5 q-42.5 -121 -42.5 -273 q0 -204 69.5 -352 q69.5 -148 207.5 -227 q138 -79 335 -79 q184 0 320 70 l0 526 q30 -2 52 -4 q22 -2 38 -2 q13 0 35.5 2 q22.5 2 54.5 4 l0 -580 q-139 -47 -276 -70.5 q-137 -23.5 -281 -23.5 q-251 0 -421 92.5 q-170 92.5 -252.5 256.5 q-82.5 164 -82.5 376 q0 175 59 312 q59 137 167.5 231 q108.5 94 255.5 141 q147 47 317 47 q137 0 246.5 -21.5 q109.5 -21.5 174.5 -48 q65 -26.5 101 -48.5 q-22 -64 -47 -158 Z" /><glyph glyph-name="H" unicode="h" d="M1227 807 l0 588 q30 -2 52 -4 q22 -2 38 -2 q15 0 36.5 2 q21.5 2 53.5 4 l0 -1401 q-22 2 -36.5 3 q-14.5 1 -24.5 2 q-10 1 -29 1 q-21 0 -31 -1 q-10 -1 -25.5 -2 q-15.5 -1 -33.5 -3 l0 704 q-48 1 -143.5 4.5 q-95.5 3.5 -167 5 q-71.5 1.5 -119.5 1.5 q-47 0 -119.5 -1.5 q-72.5 -1.5 -168 -5 q-95.5 -3.5 -144.5 -4.5 l0 -704 q-22 2 -37 3 q-15 1 -25 2 q-10 1 -29 1 q-15 0 -41 -2 q-26 -2 -49 -4 l0 1401 q30 -2 52.5 -4 q22.5 -2 37.5 -2 q14 0 36.5 2 q22.5 2 54.5 4 l0 -588 q368 -10 432 -10 q65 0 430 10 Z" /><glyph glyph-name="I" unicode="i" d="M195 -6 l0 1401 q30 -2 52 -4 q22 -2 38 -2 q13 0 35.5 2 q22.5 2 54.5 4 l0 -1401 q-22 2 -37 3 q-15 1 -24.5 2 q-9.5 1 -28.5 1 q-21 0 -31 -1 q-10 -1 -25.5 -2 q-15.5 -1 -33.5 -3 Z" /><glyph glyph-name="J" unicode="j" d="M406 1395 l0 -1217 q0 -135 -49.5 -237 q-49.5 -102 -145 -161 q-95.5 -59 -223.5 -63 l-17 56 q107 4 162.5 57 q55.5 53 73.5 134 q18 81 18 188 l0 1243 q30 -2 52.5 -4 q22.5 -2 37.5 -2 q14 0 36.5 2 q22.5 2 54.5 4 Z" /><glyph glyph-name="K" unicode="k" d="M1192 1395 l-465 -447 l-174 -176 q48 -55 172.5 -194.5 q124.5 -139.5 199.5 -224.5 q75 -85 126 -144 l166 -205 l0 -10 q-28 2 -46.5 3 q-18.5 1 -31 2 q-12.5 1 -35.5 1 q-20 0 -53 -2 q-33 -2 -62 -4 q-80 115 -141 186 l-447 522 q-13 11 -28 11 q-6 0 -6 -4 l0 -715 q-22 2 -37 3 q-15 1 -25 2 q-10 1 -29 1 q-15 0 -41 -2 q-26 -2 -49 -4 l0 1401 q30 -2 52.5 -4 q22.5 -2 37.5 -2 q14 0 36.5 2 q22.5 2 54.5 4 l0 -633 q0 -4 10 -4 q17 0 41 16 q37 29 108 100 l504 521 q26 -2 47 -4 q21 -2 35 -2 q12 0 32 2 q20 2 48 4 Z" /><glyph glyph-name="L" unicode="l" d="M362 1395 l0 -1299 q125 0 371 8 q33 1 89.5 7 q56.5 6 105.5 12 q-2 -22 -4 -37 q-2 -15 -2 -25 q0 -9 2 -25 q2 -16 4 -36 l-746 0 l0 1395 q30 -2 52.5 -4 q22.5 -2 37.5 -2 q14 0 37 2 q23 2 53 4 Z" /><glyph glyph-name="M" unicode="m" d="M1509 1395 l43 0 q19 -172 40 -362 q21 -190 43 -378.5 q22 -188.5 38 -316.5 q16 -128 45 -344 q-24 2 -39.5 3 q-15.5 1 -26 2 q-10.5 1 -30.5 1 q-22 0 -33 -1 q-11 -1 -27 -2 q-16 -1 -36 -3 q-13 164 -29 336.5 q-16 172.5 -26.5 277 q-10.5 104.5 -24.5 239 q-14 134.5 -25 204.5 q-132 -235 -224.5 -407 q-92.5 -172 -175 -338.5 q-82.5 -166.5 -136.5 -289.5 l-23 0 l-112 232 q-61 126 -135.5 270 q-74.5 144 -141.5 272 q-67 128 -137 261 q-19 -169 -35 -303 q-16 -134 -33.5 -305 q-17.5 -171 -24.5 -273.5 q-7 -102.5 -7 -175.5 q-18 2 -30 3 q-12 1 -19.5 2 q-7.5 1 -22.5 1 q-17 0 -25.5 -1 q-8.5 -1 -20.5 -2 q-12 -1 -28 -3 q22 132 71.5 471.5 q49.5 339.5 82.5 582.5 q33 243 43 347 l53 0 q109 -215 149 -293 q40 -78 124.5 -237 q84.5 -159 160.5 -292.5 q76 -133.5 146 -250.5 q49 88 165.5 301.5 q116.5 213.5 157.5 288.5 q41 75 102.5 188 q61.5 113 163.5 295 Z" /><glyph glyph-name="N" unicode="n" d="M1393 1395 l0 -1401 l-62 0 q-41 54 -106 125 l-885 979 l-21 0 l0 -1104 q-14 2 -30.5 4 q-16.5 2 -26.5 2 q-13 0 -19.5 -1 q-6.5 -1 -16 -2 q-9.5 -1 -21.5 -3 l0 1401 l80 0 l972 -1055 l21 0 l0 1055 q18 -2 32 -4 q14 -2 25 -2 q10 0 24 2 q14 2 34 4 Z" /><glyph glyph-name="O" unicode="o" d="M1419 709 q0 97 -10.5 170 q-10.5 73 -39.5 145 q-29 72 -79 135 q-50 63 -118 108 q-68 45 -148 68 q-80 23 -160 23 q-133 0 -240.5 -48.5 q-107.5 -48.5 -183 -140 q-75.5 -91.5 -114.5 -219.5 q-39 -128 -39 -280 q0 -151 42.5 -268.5 q42.5 -117.5 120 -200 q77.5 -82.5 180.5 -123.5 q103 -41 216 -41 q146 0 256 63.5 q110 63.5 179.5 165 q69.5 101.5 103.5 220.5 q34 119 34 223 ZM840 -31 q-168 0 -308 51.5 q-140 51.5 -240 148 q-100 96.5 -153 230.5 q-53 134 -53 295 q0 164 58 301 q58 137 162 233 q104 96 240.5 146.5 q136.5 50.5 297.5 50.5 q149 0 288.5 -41.5 q139.5 -41.5 249 -127.5 q109.5 -86 174 -219.5 q64.5 -133.5 64.5 -311.5 q0 -223 -99 -395.5 q-99 -172.5 -277.5 -266.5 q-178.5 -94 -403.5 -94 Z" /><glyph glyph-name="P" unicode="p" d="M342 637 l0 -643 q-22 2 -36.5 3 q-14.5 1 -24.5 2 q-10 1 -29 1 q-21 0 -31 -1 q-10 -1 -25.5 -2 q-15.5 -1 -33.5 -3 l0 1401 l366 0 q200 0 315 -32.5 q115 -32.5 164.5 -105 q49.5 -72.5 49.5 -198.5 q0 -93 -27 -161 q-27 -68 -82.5 -118 q-55.5 -50 -134 -82.5 q-78.5 -32.5 -195.5 -56.5 q-45 -10 -118 -10 q-25 1 -52.5 2 q-27.5 1 -46.5 2 q-19 1 -30 1.5 q-11 0.5 -29 0.5 ZM342 1315 l0 -598 q54 -4 94 -4 q39 0 109 4 q152 15 237.5 104 q85.5 89 85.5 228 q0 70 -24.5 127.5 q-24.5 57.5 -76 93.5 q-51.5 36 -130.5 43 q-43 4 -158 4 q-106 0 -137 -2 Z" /><glyph glyph-name="Q" unicode="q" d="M844 1425 q217 0 394 -81 q177 -81 279.5 -238.5 q102.5 -157.5 102.5 -376.5 q0 -197 -72.5 -342 q-72.5 -145 -194 -237.5 q-121.5 -92.5 -272.5 -143.5 q51 -37 99 -74 q48 -37 104.5 -80.5 q56.5 -43.5 119.5 -91 q63 -47.5 136 -100.5 q-61 -27 -95.5 -44 q-34.5 -17 -64.5 -40 q-15 23 -184 172 q-169 149 -278 227 q-18 -2 -29.5 -4 q-11.5 -2 -20.5 -2 q-231 2 -406.5 85.5 q-175.5 83.5 -275.5 248 q-100 164.5 -100 393.5 q0 208 100.5 375 q100.5 167 273.5 260.5 q173 93.5 384 93.5 ZM1419 709 q0 97 -10.5 170 q-10.5 73 -39 143.5 q-28.5 70.5 -79.5 134.5 q-75 97 -187 149 q-112 52 -239 52 q-148 0 -257 -54.5 q-109 -54.5 -181 -152.5 q-72 -98 -105.5 -220.5 q-33.5 -122.5 -33.5 -260.5 q0 -160 45 -279.5 q45 -119.5 124 -198.5 q79 -79 179 -117 q100 -38 211 -38 q165 0 280.5 75 q115.5 75 178 186 q62.5 111 88.5 222 q26 111 26 189 Z" /><glyph glyph-name="R" unicode="r" d="M365 1319 l0 -563 q20 0 43 -0.5 q23 -0.5 53 -1.5 q101 0 168 12 q117 25 189.5 101.5 q72.5 76.5 72.5 191.5 q0 221 -225 258 q-33 6 -127 6 q-47 -1 -86.5 -1.5 q-39.5 -0.5 -87.5 -2.5 ZM184 -6 l0 1401 l434 0 q235 0 345 -77.5 q110 -77.5 110 -234.5 q0 -85 -34 -151.5 q-34 -66.5 -95 -115 q-61 -48.5 -134 -77.5 q-73 -29 -157 -45 l422 -534 l99 -115 l38 -51 q-28 2 -47.5 3 q-19.5 1 -32 2 q-12.5 1 -38.5 1 q-26 0 -33.5 -0.5 q-7.5 -0.5 -33.5 -2 q-26 -1.5 -50 -3.5 q-94 132 -129 178 l-242 313 l-164 193 l-77 0 l0 -684 q-22 2 -37 3 q-15 1 -25 2 q-10 1 -29 1 q-15 0 -41 -2 q-26 -2 -49 -4 Z" /><glyph glyph-name="S" unicode="s" d="M131 270 l21 0 q66 -107 143 -160 q77 -53 188 -53 q81 0 146 40.5 q65 40.5 102 109.5 q37 69 37 149 q0 127 -78 185.5 q-78 58.5 -237.5 121 q-159.5 62.5 -242.5 138.5 q-83 76 -83 231 q0 189 129 291 q129 102 326 102 q80 0 159.5 -24.5 q79.5 -24.5 132.5 -73.5 q-16 -36 -55 -168 l-20 0 q-31 83 -98 130.5 q-67 47.5 -156 47.5 q-71 0 -130 -30 q-59 -30 -93.5 -84.5 q-34.5 -54.5 -34.5 -124.5 q0 -125 77 -183.5 q77 -58.5 240 -123 q163 -64.5 245.5 -137 q82.5 -72.5 82.5 -218.5 q0 -108 -38.5 -194.5 q-38.5 -86.5 -109 -148 q-70.5 -61.5 -161.5 -93 q-91 -31.5 -197 -31.5 q-82 0 -183.5 32.5 q-101.5 32.5 -150.5 86.5 q24 67 39 182 Z" /><glyph glyph-name="T" unicode="t" d="M670 1296 l0 -1306 q-22 2 -37 3 q-15 1 -24.5 2 q-9.5 1 -28.5 1 q-16 0 -42 -2 q-26 -2 -49 -4 l0 1306 q-214 0 -448 -24 q2 15 4 33.5 q2 18.5 2 27.5 q0 14 -1 20.5 q-1 6.5 -2 16 q-1 9.5 -3 25.5 l1057 0 q-2 -22 -4 -37 q-2 -15 -2 -25 q0 -9 2 -25 q2 -16 4 -36 q-86 10 -198 17 q-112 7 -230 7 Z" /><glyph glyph-name="U" unicode="u" d="M373 1395 l0 -785 q0 -137 22.5 -239 q22.5 -102 74.5 -171 q52 -69 139.5 -103 q87.5 -34 215.5 -34 q233 0 338 150.5 q105 150.5 105 417.5 l0 764 q18 -2 32 -4 q14 -2 25 -2 q8 0 22.5 2 q14.5 2 34.5 4 l0 -815 q0 -198 -73 -335.5 q-73 -137.5 -208.5 -206.5 q-135.5 -69 -316.5 -69 q-102 0 -182 16 q-80 16 -144 47.5 q-64 31.5 -118 80.5 q-88 79 -116.5 195 q-28.5 116 -30.5 267 l0 820 q30 -2 52 -4 q22 -2 38 -2 q13 0 35.5 2 q22.5 2 54.5 4 Z" /><glyph glyph-name="V" unicode="v" d="M846 465 l215 555 l123 342 l14 33 q24 -2 43.5 -4 q19.5 -2 32.5 -2 q11 0 29.5 2 q18.5 2 44.5 4 q-26 -50 -111 -242.5 q-85 -192.5 -196 -453 q-111 -260.5 -185 -444.5 q-74 -184 -100 -261 q-11 2 -22.5 4 q-11.5 2 -18.5 2 q-8 0 -20 -2 q-12 -2 -23 -4 q-94 197 -164.5 355.5 q-70.5 158.5 -193 443.5 q-122.5 285 -181 419.5 q-58.5 134.5 -84.5 182.5 q32 -2 56.5 -4 q24.5 -2 41.5 -2 q17 0 42 2 q25 2 59 4 q30 -74 76 -199 l137 -358 l252 -621 l18 0 q20 42 57.5 119.5 q37.5 77.5 57.5 128.5 Z" /><glyph glyph-name="W" unicode="w" d="M391 264 l-366 1131 q32 -2 55.5 -4 q23.5 -2 40.5 -2 q13 0 36.5 2 q23.5 2 57.5 4 q9 -28 61 -217 l121 -416 l172 -541 l19 0 q58 170 135 390.5 q77 220.5 160 467 q83 246.5 102 316.5 q18 -2 33.5 -4 q15.5 -2 25.5 -2 q10 0 24 2 q14 2 34 4 q14 -51 53 -169 q39 -118 81 -242.5 q42 -124.5 125 -372 q83 -247.5 130 -390.5 l18 0 q44 111 82 234 l240 772 l49 168 q22 -2 40.5 -4 q18.5 -2 31.5 -2 q10 0 28.5 2 q18.5 2 42.5 4 q-60 -140 -102 -262 l-391 -1139 q-16 2 -27.5 3 q-11.5 1 -18.5 2 q-7 1 -22 1 q-10 0 -30 -2 q-20 -2 -37 -4 q-12 41 -48 151 q-36 110 -76 235 q-40 125 -142.5 440 q-102.5 315 -104.5 323 l-16 0 l-398 -1149 q-16 2 -27.5 3 q-11.5 1 -18.5 2 q-7 1 -21 1 q-16 0 -24 -1 q-8 -1 -19 -2 q-11 -1 -27 -3 q-18 60 -41.5 140 q-23.5 80 -40.5 130 Z" /><glyph glyph-name="X" unicode="x" d="M322 356 l227 342 q-27 43 -79 129.5 q-52 86.5 -91 151 q-39 64.5 -66 106.5 l-202 310 q36 -2 64 -4 q28 -2 46 -2 q17 0 45 2 q28 2 66 4 q25 -39 48.5 -80.5 q23.5 -41.5 55.5 -95.5 l217 -373 q39 63 102 158 q63 95 88.5 133.5 q25.5 38.5 68.5 108.5 q43 70 85 149 q24 -2 43 -4 q19 -2 33 -2 q13 0 31.5 2 q18.5 2 44.5 4 q-25 -27 -35 -41 l-313 -436 l-101 -152 l476 -772 q-28 2 -46 3 q-18 1 -30.5 2 q-12.5 1 -36.5 1 q-19 0 -52 -2 q-33 -2 -61 -4 q-66 129 -119 226 q-53 97 -112.5 197 q-59.5 100 -122.5 199 q-66 -99 -125.5 -195.5 q-59.5 -96.5 -117.5 -197 q-58 -100.5 -128 -229.5 q-18 2 -33.5 3.5 q-15.5 1.5 -20.5 2 q-5 0.5 -21 0.5 q-18 0 -26.5 -1 q-8.5 -1 -21 -2 q-12.5 -1 -28.5 -3 q28 42 63.5 93 q35.5 51 90 130.5 q54.5 79.5 94.5 138.5 Z" /><glyph glyph-name="Y" unicode="y" d="M723 623 l0 -629 q-22 2 -36.5 3 q-14.5 1 -24.5 2 q-10 1 -29 1 q-21 0 -31 -1 q-10 -1 -25.5 -2 q-15.5 -1 -33.5 -3 l0 590 l-502 811 q38 -2 66.5 -4 q28.5 -2 48.5 -2 q17 0 44.5 2 q27.5 2 67.5 4 q57 -110 123 -228.5 q66 -118.5 151 -265.5 q85 -147 115 -192 q24 27 74.5 112.5 q50.5 85.5 118.5 208 q68 122.5 113.5 207 q45.5 84.5 85.5 158.5 q26 -2 45.5 -4 q19.5 -2 33.5 -2 q13 0 32.5 2 q19.5 2 47.5 4 q-79 -102 -145 -205 l-225 -363 q-65 -98 -115 -204 Z" /><glyph glyph-name="Z" unicode="z" d="M35 45 l596 832 q224 323 291 426 l0 4 l-234 -2 q-83 0 -156.5 -3.5 q-73.5 -3.5 -140 -8.5 q-66.5 -5 -141.5 -10.5 q-75 -5.5 -131 -10.5 q2 15 4 33.5 q2 18.5 2 27.5 q0 14 -1 20.5 q-1 6.5 -2 16 q-1 9.5 -3 25.5 l1077 0 l0 -39 q-123 -161 -211 -279 q-88 -118 -206 -283 q-118 -165 -247 -355 q-129 -190 -229 -345 l0 -4 l311 0 q187 4 574 33 q-2 -22 -4 -37 q-2 -15 -2 -25 q0 -9 2 -25 q2 -16 4 -36 l-1153 0 l0 45 Z" /><glyph glyph-name="bracketleft" unicode="[" d="M276 -238 l0 1770 l322 0 l0 -59 l-199 0 l0 -1651 l199 0 l0 -60 l-322 0 Z" /><glyph glyph-name="backslash" unicode="\" d="M195 1532 l761 -1532 q-22 4 -65 4 q-41 0 -62 -4 l-761 1532 q44 -4 63 -4 q22 0 64 4 Z" /><glyph glyph-name="bracketright" unicode="]" d="M406 1532 l0 -1770 l-322 0 l0 60 l199 0 l0 1651 l-199 0 l0 59 l322 0 Z" /><glyph glyph-name="asciicircum" unicode="^" d="M248 563 l-144 0 l449 832 l135 0 l447 -832 l-144 0 l-370 668 l-373 -668 Z" /><glyph glyph-name="underscore" unicode="_" d="M1024 -328 l-1024 0 l0 78 l1024 0 l0 -78 Z" /><glyph glyph-name="grave" unicode="`" d="M492 1090 l-72 0 l-322 200 q-9 7 -20 15 q-11 8 -19 15.5 q-8 7.5 -12 14.5 q-6 16 -6 29 q0 9 4 27 q17 43 84 43 q18 -7 27 -15 q14 -10 77 -73 l259 -256 Z" /><glyph glyph-name="a" unicode="a" d="M846 641 l0 -475 q0 -40 2.5 -59.5 q2.5 -19.5 14.5 -31.5 q12 -12 38 -12 q22 0 60 9 l0 -45 q-35 -16 -62 -21 q-33 -6 -65 -6 q-61 2 -99.5 30.5 q-38.5 28.5 -46.5 94.5 l-18 -19 q-129 -129 -303 -129 q-112 0 -192.5 70 q-80.5 70 -80.5 180 q0 108 51.5 168 q51.5 60 126.5 83.5 q75 23.5 201 43.5 q96 16 137 28 q41 12 60.5 36 q19.5 24 19.5 73 q0 115 -62.5 177.5 q-62.5 62.5 -176.5 62.5 q-67 0 -120 -24 q-53 -24 -84 -56.5 q-31 -32.5 -40 -60.5 l-23 0 l0 114 q165 113 330 113 q163 0 247.5 -86 q84.5 -86 84.5 -258 ZM682 205 l0 299 l-72 -15 q-68 -12 -125 -24.5 q-57 -12.5 -107 -34.5 q-50 -22 -83 -65 q-33 -43 -33 -109 q0 -96 52.5 -144.5 q52.5 -48.5 148.5 -48.5 q38 0 86 24 q48 24 78 54 q10 10 22 21 q12 11 22.5 24.5 q10.5 13.5 10.5 18.5 Z" /><glyph glyph-name="b" unicode="b" d="M133 0 l0 1532 q26 -2 47 -4 q21 -2 35 -2 q13 0 33.5 2 q20.5 2 48.5 4 l0 -758 q67 100 154 155.5 q87 55.5 200 55.5 q137 0 230.5 -68.5 q93.5 -68.5 138.5 -178 q45 -109.5 45 -228.5 q0 -105 -31 -200 q-31 -95 -90.5 -170 q-59.5 -75 -146 -119 q-86.5 -44 -195.5 -44 q-193 0 -291 146 q-24 -18 -58.5 -49.5 q-34.5 -31.5 -80.5 -73.5 l-39 0 ZM600 899 q-162 0 -234.5 -137.5 q-72.5 -137.5 -72.5 -343.5 q0 -108 34.5 -194 q34.5 -86 99.5 -133.5 q65 -47.5 153 -47.5 q82 0 141.5 42.5 q59.5 42.5 96 113 q36.5 70.5 52 146.5 q15.5 76 15.5 157 q0 116 -30.5 204.5 q-30.5 88.5 -93.5 140 q-63 51.5 -161 52.5 Z" /><glyph glyph-name="c" unicode="c" d="M938 901 l-47 -135 l-17 0 q-41 57 -55 68 q-32 38 -89.5 59.5 q-57.5 21.5 -113.5 21.5 q-167 0 -259.5 -123 q-92.5 -123 -92.5 -296 q0 -128 47 -231.5 q47 -103.5 132 -160.5 q85 -57 194 -57 q82 0 146 33.5 q64 33.5 137 99.5 l12 -6 l-10 -94 q-141 -103 -314 -103 q-166 0 -284.5 66 q-118.5 66 -179 181.5 q-60.5 115.5 -60.5 260.5 q0 154 67.5 267.5 q67.5 113.5 188 173 q120.5 59.5 274.5 59.5 q189 0 324 -84 Z" /><glyph glyph-name="d" unicode="d" d="M997 1532 l0 -1538 q-20 2 -33.5 3 q-13.5 1 -22 2 q-8.5 1 -26.5 1 q-18 0 -27.5 -1 q-9.5 -1 -22.5 -2 q-13 -1 -31 -3 l0 196 q-125 -213 -353 -213 q-89 0 -162 30.5 q-73 30.5 -129.5 94 q-56.5 63.5 -87 155.5 q-30.5 92 -30.5 216 q0 141 54 258.5 q54 117.5 154.5 185.5 q100.5 68 231.5 68 q206 0 322 -199 l0 746 q26 -2 46 -4 q20 -2 35 -2 q14 0 34 2 q20 2 48 4 ZM834 510 q0 96 -27.5 185 q-27.5 89 -89.5 147.5 q-62 58.5 -160 58.5 q-305 0 -305 -457 q0 -157 67 -275 q67 -118 213 -118 q110 0 178 71 q68 71 96 175.5 q28 104.5 28 212.5 Z" /><glyph glyph-name="e" unicode="e" d="M907 205 l-2 -107 q-82 -57 -172.5 -89 q-90.5 -32 -179.5 -32 q-141 0 -251 60.5 q-110 60.5 -171 174.5 q-61 114 -61 269 q0 144 54 258.5 q54 114.5 160.5 180 q106.5 65.5 254.5 65.5 q83 0 159 -28.5 q76 -28.5 133 -84 q57 -55.5 91 -142 q34 -86.5 34 -202.5 q0 -14 -0.5 -23.5 q-0.5 -9.5 -1.5 -21.5 q-208 6 -415 6 l-289 0 q-2 -14 -2 -43 q0 -78 23 -147.5 q23 -69.5 69.5 -123 q46.5 -53.5 114 -83 q67.5 -29.5 149.5 -29.5 q156 0 303 142 ZM250 565 l545 0 q-4 158 -61 257.5 q-57 99.5 -195 99.5 q-91 0 -153.5 -50.5 q-62.5 -50.5 -96 -132.5 q-33.5 -82 -39.5 -174 Z" /><glyph glyph-name="f" unicode="f" d="M180 -6 l0 901 l-141 0 q4 12 4 39 q0 27 -4 39 l141 0 l4 16 q18 134 63 254 q45 120 136.5 204.5 q91.5 84.5 232.5 84.5 q-10 -53 -10 -164 l-10 -8 l-41 20 q-28 11 -72 11 q-172 0 -172 -213 q0 -84 29 -205 l209 0 q-4 -24 -4 -39 q0 -15 4 -39 l-205 0 l0 -901 q-20 2 -33.5 3 q-13.5 1 -22 2 q-8.5 1 -26.5 1 q-19 0 -28 -1 q-9 -1 -22.5 -2 q-13.5 -1 -31.5 -3 Z" /><glyph glyph-name="g" unicode="g" d="M516 10 q-317 0 -317 -241 q0 -121 81.5 -184.5 q81.5 -63.5 213.5 -63.5 q128 0 225.5 64.5 q97.5 64.5 97.5 197.5 q0 100 -40 149.5 q-40 49.5 -105 63.5 q-65 14 -156 14 ZM950 979 l0 -78 l-225 19 q66 -52 103.5 -119.5 q37.5 -67.5 37.5 -151.5 q0 -160 -122.5 -238.5 q-122.5 -78.5 -313.5 -78.5 q-73 0 -110 -19.5 q-37 -19.5 -37 -79.5 q0 -60 46.5 -79 q46.5 -19 149.5 -19 l131 0 q180 0 267.5 -69.5 q87.5 -69.5 87.5 -202.5 q0 -88 -37.5 -163.5 q-37.5 -75.5 -105 -128 q-67.5 -52.5 -165 -82.5 q-97.5 -30 -213.5 -30 q-143 0 -256.5 76 q-113.5 76 -113.5 225 q0 107 56.5 168.5 q56.5 61.5 156.5 79.5 l0 17 q-55 9 -90 44.5 q-35 35.5 -35 120.5 q0 68 37 108.5 q37 40.5 104 68.5 q-62 29 -107 68.5 q-45 39.5 -68.5 94 q-23.5 54.5 -23.5 129.5 q0 154 97 240 q97 86 317 86 l285 -10 q18 -2 57 -2 q45 0 90 6 ZM260 662 q0 -78 26.5 -142 q26.5 -64 77.5 -100.5 q51 -36.5 119 -36.5 q73 0 124 37 q51 37 77.5 99 q26.5 62 26.5 132 q0 129 -52.5 204 q-52.5 75 -166.5 75 q-109 0 -170.5 -74 q-61.5 -74 -61.5 -194 Z" /><glyph glyph-name="h" unicode="h" d="M158 -6 l0 1538 q26 -2 47 -4 q21 -2 35 -2 q13 0 33.5 2 q20.5 2 48.5 4 l0 -746 q113 199 329 199 q175 0 252.5 -99.5 q77.5 -99.5 77.5 -299.5 l0 -592 q-20 2 -33.5 3 q-13.5 1 -22 2 q-8.5 1 -26.5 1 q-19 0 -28 -1 q-9 -1 -22.5 -2 q-13.5 -1 -31.5 -3 l0 545 q0 178 -50 259 q-50 81 -177 81 q-268 0 -268 -328 l0 -557 q-20 2 -33.5 3 q-13.5 1 -22.5 2 q-9 1 -26 1 q-19 0 -24.5 -0.5 q-5.5 -0.5 -22.5 -2 q-17 -1.5 -35 -3.5 Z" /><glyph glyph-name="i" unicode="i" d="M367 973 l0 -979 q-20 2 -33.5 3 q-13.5 1 -22.5 2 q-9 1 -26 1 q-19 0 -24.5 -0.5 q-5.5 -0.5 -22.5 -2 q-17 -1.5 -35 -3.5 l0 979 q26 -2 47 -4 q21 -2 35 -2 q13 0 33.5 2 q20.5 2 48.5 4 ZM385 1272 q0 -39 -28.5 -67.5 q-28.5 -28.5 -67.5 -28.5 q-38 0 -67 29 q-29 29 -29 67 q0 40 29 68 q29 28 67 28 q39 0 67.5 -27.5 q28.5 -27.5 28.5 -68.5 Z" /><glyph glyph-name="j" unicode="j" d="M215 -8 l0 981 q26 -2 47 -4 q21 -2 35 -2 q13 0 33.5 2 q20.5 2 48.5 4 l0 -989 q0 -147 -24.5 -250.5 q-24.5 -103.5 -104.5 -182.5 q-50 -43 -111.5 -67.5 q-61.5 -24.5 -124.5 -24.5 l-14 66 l18 -4 q56 0 90.5 35 q34.5 35 59.5 94 q28 67 37.5 151.5 q9.5 84.5 9.5 190.5 ZM401 1323 q0 -39 -28.5 -67.5 q-28.5 -28.5 -67.5 -28.5 q-38 0 -67 29 q-29 29 -29 67 q0 40 29 68 q29 28 67 28 q39 0 67.5 -27.5 q28.5 -27.5 28.5 -68.5 Z" /><glyph glyph-name="k" unicode="k" d="M326 1532 l0 -918 q0 -41 2 -52 q2 -11 8 -15 q57 0 178 121 l127 129 l160 176 q26 -2 47 -4 q21 -2 35 -2 q11 0 31.5 2 q20.5 2 48.5 4 l0 -15 q-32 -29 -56.5 -49 q-24.5 -20 -111 -93 q-86.5 -73 -169 -147.5 q-82.5 -74.5 -114.5 -105.5 q33 -37 89.5 -103.5 q56.5 -66.5 132 -154.5 q75.5 -88 137.5 -160 q62 -72 122 -141 l0 -10 q-26 2 -41.5 3 q-15.5 1 -26.5 2 q-11 1 -32 1 q-24 0 -31 -0.5 q-7 -0.5 -28 -2 q-21 -1.5 -43 -3.5 q-46 61 -150.5 183 q-104.5 122 -241.5 278 q-29 32 -47 32 q-26 0 -26 -75 l0 -418 q-20 2 -33.5 3 q-13.5 1 -22.5 2 q-9 1 -26 1 q-19 0 -24.5 -0.5 q-5.5 -0.5 -22.5 -2 q-17 -1.5 -35 -3.5 l0 1538 q26 -2 47 -4 q21 -2 35 -2 q13 0 33.5 2 q20.5 2 48.5 4 Z" /><glyph glyph-name="l" unicode="l" d="M203 -6 l0 1538 q26 -2 47 -4 q21 -2 35 -2 q13 0 33.5 2 q20.5 2 48.5 4 l0 -1538 q-20 2 -33.5 3 q-13.5 1 -22.5 2 q-9 1 -26 1 q-19 0 -24.5 -0.5 q-5.5 -0.5 -22.5 -2 q-17 -1.5 -35 -3.5 Z" /><glyph glyph-name="m" unicode="m" d="M145 -6 l0 979 q26 -2 46.5 -4 q20.5 -2 35.5 -2 q14 0 34 2 q20 2 48 4 l0 -176 q35 60 78 101.5 q43 41.5 99.5 64 q56.5 22.5 125.5 22.5 q103 0 186 -54.5 q83 -54.5 113 -148.5 q121 203 322 203 q181 0 255.5 -99.5 q74.5 -99.5 74.5 -299.5 l0 -592 q-20 2 -33.5 3 q-13.5 1 -22.5 2 q-9 1 -26 1 q-19 0 -24.5 -0.5 q-5.5 -0.5 -22.5 -2 q-17 -1.5 -35 -3.5 l0 545 q0 104 -16.5 177 q-16.5 73 -66.5 118 q-50 45 -145 45 q-139 0 -187 -94.5 q-48 -94.5 -48 -237.5 l0 -553 q-20 2 -33.5 3 q-13.5 1 -22 2 q-8.5 1 -26.5 1 q-19 0 -28 -1 q-9 -1 -22.5 -2 q-13.5 -1 -31.5 -3 l0 600 q0 146 -52 215.5 q-52 69.5 -165 69.5 q-101 0 -154.5 -39 q-53.5 -39 -72.5 -102 q-19 -63 -19 -148 l0 -596 q-20 2 -33.5 3 q-13.5 1 -22 2 q-8.5 1 -26.5 1 q-15 0 -38 -2 q-23 -2 -44 -4 Z" /><glyph glyph-name="n" unicode="n" d="M158 -6 l0 979 q26 -2 47 -4 q21 -2 35 -2 q13 0 33.5 2 q20.5 2 48.5 4 l0 -187 q113 199 329 199 q177 0 253.5 -96.5 q76.5 -96.5 76.5 -302.5 l0 -592 q-20 2 -33.5 3 q-13.5 1 -22 2 q-8.5 1 -26.5 1 q-19 0 -28 -1 q-9 -1 -22.5 -2 q-13.5 -1 -31.5 -3 l0 545 q0 105 -18 179 q-18 74 -68.5 117.5 q-50.5 43.5 -140.5 43.5 q-151 0 -209.5 -102 q-58.5 -102 -58.5 -308 l0 -475 q-20 2 -33.5 3 q-13.5 1 -22.5 2 q-9 1 -26 1 q-19 0 -24.5 -0.5 q-5.5 -0.5 -22.5 -2 q-17 -1.5 -35 -3.5 Z" /><glyph glyph-name="o" unicode="o" d="M72 492 q0 109 38.5 199.5 q38.5 90.5 110.5 157 q72 66.5 165.5 101.5 q93.5 35 205.5 35 q140 0 247.5 -61 q107.5 -61 167.5 -174.5 q60 -113.5 60 -264.5 q0 -98 -33 -190 q-33 -92 -99 -164.5 q-66 -72.5 -162.5 -113 q-96.5 -40.5 -217.5 -40.5 q-133 0 -244 61.5 q-111 61.5 -175 179 q-64 117.5 -64 274.5 ZM590 922 q-122 0 -197.5 -66.5 q-75.5 -66.5 -108 -171.5 q-32.5 -105 -32.5 -223 q0 -111 32.5 -205.5 q32.5 -94.5 104.5 -154.5 q72 -60 182 -60 q109 0 180.5 75 q71.5 75 103.5 180.5 q32 105.5 32 199.5 q0 77 -15 150.5 q-15 73.5 -50 136 q-35 62.5 -93 101 q-58 38.5 -139 38.5 Z" /><glyph glyph-name="p" unicode="p" d="M299 457 q0 -175 75.5 -284.5 q75.5 -109.5 225.5 -109.5 q99 0 161.5 59.5 q62.5 59.5 91 158.5 q28.5 99 28.5 227 q0 109 -26.5 201 q-26.5 92 -90 149 q-63.5 57 -166.5 57 q-110 0 -177 -70 q-67 -70 -94.5 -175.5 q-27.5 -105.5 -27.5 -212.5 ZM299 174 l0 -704 q-20 2 -33.5 3 q-13.5 1 -22 2 q-8.5 1 -26.5 1 q-19 0 -28 -1 q-9 -1 -22.5 -2 q-13.5 -1 -31.5 -3 l0 1503 q26 -2 47 -4 q21 -2 35 -2 q13 0 33.5 2 q20.5 2 48.5 4 l0 -207 l4 0 q50 97 117.5 158 q67.5 61 228.5 61 q96 0 172.5 -36.5 q76.5 -36.5 131 -103.5 q54.5 -67 81.5 -150.5 q27 -83.5 27 -178.5 q0 -249 -122 -394 q-122 -145 -321 -145 q-210 0 -315 197 l-4 0 Z" /><glyph glyph-name="q" unicode="q" d="M834 459 q-2 123 -35.5 227 q-33.5 104 -100.5 166.5 q-67 62.5 -161 62.5 q-283 0 -283 -403 q0 -190 67 -319.5 q67 -129.5 238 -129.5 q88 0 149 55.5 q61 55.5 92.5 146.5 q31.5 91 33.5 194 ZM834 762 l0 211 q26 -2 46 -4 q20 -2 35 -2 q14 0 34 2 q20 2 48 4 l0 -1503 q-20 2 -33.5 3 q-13.5 1 -22 2 q-8.5 1 -26.5 1 q-18 0 -27.5 -1 q-9.5 -1 -22.5 -2 q-13 -1 -31 -3 l0 700 l-5 0 q-94 -193 -315 -193 q-105 0 -187.5 39.5 q-82.5 39.5 -140 112 q-57.5 72.5 -85 161.5 q-27.5 89 -27.5 193 q0 143 48 257.5 q48 114.5 140 179.5 q92 65 221 65 q80 0 140 -22.5 q60 -22.5 101.5 -58 q41.5 -35.5 68 -74 q26.5 -38.5 36.5 -68.5 l5 0 Z" /><glyph glyph-name="r" unicode="r" d="M162 -6 l0 979 q26 -2 47 -4 q21 -2 35 -2 q13 0 33.5 2 q20.5 2 48.5 4 l0 -205 l10 25 q121 192 258 192 q40 0 63 -10 l-28 -172 q-9 2 -42 17.5 q-33 15.5 -55 15.5 q-36 0 -72 -13 q-36 -13 -59 -39 q-49 -57 -62 -110.5 q-13 -53.5 -13 -149.5 l0 -530 q-20 2 -33.5 3 q-13.5 1 -22.5 2 q-9 1 -26 1 q-19 0 -24.5 -0.5 q-5.5 -0.5 -22.5 -2 q-17 -1.5 -35 -3.5 Z" /><glyph glyph-name="s" unicode="s" d="M129 193 l16 0 q40 -65 104 -108.5 q64 -43.5 132 -43.5 q50 0 96.5 24 q46.5 24 75.5 67 q29 43 29 95 q0 92 -56.5 126.5 q-56.5 34.5 -181 70.5 q-124.5 36 -185.5 87 q-61 51 -61 171 q0 142 94.5 222.5 q94.5 80.5 239.5 80.5 q70 0 136 -17 q66 -17 96 -36 q-29 -64 -50 -146 l-18 0 q-13 33 -40.5 65.5 q-27.5 32.5 -61.5 51.5 q-34 19 -72 19 q-80 0 -133 -45 q-53 -45 -53 -125 q0 -87 55.5 -122.5 q55.5 -35.5 178 -75 q122.5 -39.5 186 -91 q63.5 -51.5 63.5 -162.5 q0 -103 -55 -177 q-55 -74 -142.5 -110.5 q-87.5 -36.5 -179.5 -36.5 q-145 0 -256 66 q38 115 43 150 Z" /><glyph glyph-name="t" unicode="t" d="M147 1176 l164 63 l0 -266 l217 0 q-4 -30 -4 -41 q0 -17 4 -37 l-217 0 l0 -514 l0 -74 q0 -117 30 -187.5 q30 -70.5 122 -70.5 q20 0 92 14 l0 -49 q-102 -37 -172 -37 q-57 0 -100 14.5 q-43 14.5 -73.5 51.5 q-30.5 37 -46.5 100.5 q-16 63.5 -16 155.5 l0 596 l-127 0 q5 14 5 39 q0 27 -5 39 l127 0 l0 203 Z" /><glyph glyph-name="u" unicode="u" d="M969 973 l0 -979 q-20 2 -33.5 3 q-13.5 1 -22.5 2 q-9 1 -26 1 q-19 0 -24.5 -0.5 q-5.5 -0.5 -22.5 -2 q-17 -1.5 -35 -3.5 l0 176 q-33 -63 -81.5 -106 q-48.5 -43 -109.5 -65 q-61 -22 -135 -22 q-172 0 -255 94 q-83 94 -83 300 l0 602 q26 -2 46.5 -4 q20.5 -2 35.5 -2 q13 0 33.5 2 q20.5 2 48.5 4 l0 -553 q0 -111 24.5 -186.5 q24.5 -75.5 79 -115.5 q54.5 -40 144.5 -40 q97 0 153 49 q56 49 77.5 123 q21.5 74 21.5 158 l0 565 q26 -2 47 -4 q21 -2 35 -2 q13 0 33.5 2 q20.5 2 48.5 4 Z" /><glyph glyph-name="v" unicode="v" d="M690 530 l164 443 q22 -2 38 -4 q16 -2 28 -2 q9 0 26 2 q17 2 39 4 q-64 -133 -145.5 -314.5 q-81.5 -181.5 -156.5 -363.5 q-75 -182 -116 -301 q-14 2 -24.5 3 q-10.5 1 -17.5 2 q-7 1 -19 1 q-15 0 -22 -1 q-7 -1 -17.5 -2 q-10.5 -1 -24.5 -3 q-19 55 -69 183 q-50 128 -99.5 249 q-49.5 121 -124 297 q-74.5 176 -108.5 250 q28 -2 52 -4 q24 -2 40 -2 q13 0 35.5 2 q22.5 2 54.5 4 q29 -96 74.5 -221 q45.5 -125 101.5 -264.5 q56 -139.5 129 -303.5 q36 50 39 58 l123 288 Z" /><glyph glyph-name="w" unicode="w" d="M1561 973 q-74 -147 -201 -439 q-127 -292 -211 -540 q-16 2 -24.5 3 q-8.5 1 -14 2 q-5.5 1 -16.5 1 q-13 0 -19 -1 q-6 -1 -15.5 -2 q-9.5 -1 -21.5 -3 q-28 104 -70.5 235.5 q-42.5 131.5 -89.5 264.5 q-47 133 -92 243 q-34 -66 -81.5 -184.5 q-47.5 -118.5 -99 -266.5 q-51.5 -148 -97.5 -292 q-14 2 -22.5 3 q-8.5 1 -14.5 2 q-6 1 -18 1 q-13 0 -19 -1 q-6 -1 -15.5 -2 q-9.5 -1 -21.5 -3 q-43 134 -93.5 278 q-50.5 144 -100.5 279 q-50 135 -95 246.5 q-45 111.5 -73 175.5 q30 -2 52 -4 q22 -2 38 -2 q13 0 35.5 2 q22.5 2 54.5 4 q127 -436 260 -760 q65 139 149.5 366 q84.5 227 137.5 394 q18 -2 31 -4 q13 -2 22 -2 q7 0 21 2 q14 2 32 4 q22 -81 46 -160.5 q24 -79.5 71 -217.5 q47 -138 78.5 -220 q31.5 -82 66.5 -164 q244 575 302 762 q20 -2 36.5 -4 q16.5 -2 28.5 -2 q10 0 26 2 q16 2 38 4 Z" /><glyph glyph-name="x" unicode="x" d="M432 477 l-373 496 q34 -2 60 -4 q26 -2 45 -2 q18 0 43 2 q25 2 61 4 q47 -82 127.5 -197 q80.5 -115 136.5 -184 l115 147 l172 234 q22 -2 40 -4 q18 -2 30 -2 q11 0 29.5 2 q18.5 2 42.5 4 q-61 -66 -123.5 -136 q-62.5 -70 -123 -141 q-60.5 -71 -134.5 -164 l383 -518 l0 -20 q-24 2 -40 3 q-16 1 -26.5 2 q-10.5 1 -30.5 1 q-16 0 -44 -2 q-28 -2 -52 -4 q-54 90 -132.5 205.5 q-78.5 115.5 -156.5 216.5 q-83 -112 -161 -221 q-78 -109 -134 -201 q-14 2 -24 3 q-10 1 -17 2 q-7 1 -20 1 q-15 0 -22 -1 q-7 -1 -16.5 -2 q-9.5 -1 -23.5 -3 l0 20 q118 146 221 275 q103 129 148 188 Z" /><glyph glyph-name="y" unicode="y" d="M467 2 l-414 971 q32 -2 57 -4 q25 -2 42 -2 q15 0 38.5 2 q23.5 2 57.5 4 q52 -161 129.5 -355.5 q77.5 -194.5 175.5 -404.5 q66 135 150 346.5 q84 211.5 157 413.5 q20 -2 37.5 -4 q17.5 -2 30.5 -2 q9 0 26 2 q17 2 39 4 q-79 -175 -175 -386.5 q-96 -211.5 -183.5 -406.5 q-87.5 -195 -162.5 -371 q-75 -176 -140 -339 q-18 2 -29 3 q-11 1 -18.5 2 q-7.5 1 -22.5 1 q-16 0 -24 -1 q-8 -1 -19.5 -2 q-11.5 -1 -25.5 -3 q204 400 274 532 Z" /><glyph glyph-name="z" unicode="z" d="M934 944 l-637 -862 l0 -6 q78 0 169 3.5 q91 3.5 169 8 q78 4.5 144.5 9 q66.5 4.5 140.5 9.5 q-1 -7 -2.5 -16 q-1.5 -9 -3 -19 q-1.5 -10 -1.5 -18 q1 -9 2 -18 q1 -9 2.5 -19.5 q1.5 -10.5 2.5 -15.5 l-875 0 l0 18 q54 66 156 197.5 q102 131.5 196 257.5 q94 126 154 208 q60 82 147 202 l0 6 q-68 0 -125 -2 q-57 -2 -150 -8 q-93 -6 -149 -11 q-56 -5 -124 -10 q6 42 6 51 q0 11 -1 17 q-1 6 -2 14.5 q-1 8.5 -3 22.5 l784 0 l0 -19 Z" /><glyph glyph-name="braceleft" unicode="{" d="M422 358 l0 -340 q0 -70 16 -123.5 q16 -53.5 54 -86.5 q38 -33 100 -46 q-94 0 -153 14.5 q-59 14.5 -96 50 q-37 35.5 -53 93.5 q-16 58 -16 150 l0 333 q0 112 -30 163.5 q-30 51.5 -125 78.5 q92 27 123.5 79.5 q31.5 52.5 31.5 156.5 l0 364 q0 122 35.5 183.5 q35.5 61.5 102.5 82.5 q67 21 180 21 q-95 -23 -132.5 -83.5 q-37.5 -60.5 -37.5 -174.5 l0 -363 q0 -78 -12.5 -129 q-12.5 -51 -49.5 -85.5 q-37 -34.5 -104 -51.5 q71 -19 106.5 -55.5 q35.5 -36.5 47.5 -90.5 q12 -54 12 -141 Z" /><glyph glyph-name="bar" unicode="|" d="M274 0 l0 1532 l132 0 l0 -1532 l-132 0 Z" /><glyph glyph-name="braceright" unicode="}" d="M260 16 l0 342 q0 65 6.5 109.5 q6.5 44.5 23.5 78.5 q17 34 51 59 q34 25 85 38 q-68 17 -104.5 51.5 q-36.5 34.5 -49 85.5 q-12.5 51 -12.5 131 l0 363 q0 112 -37 173 q-37 61 -133 85 q110 0 178.5 -21.5 q68.5 -21.5 104 -84 q35.5 -62.5 35.5 -183.5 l0 -364 q0 -70 13 -114.5 q13 -44.5 47 -74.5 q34 -30 95 -47 q-49 -13 -80 -32.5 q-31 -19.5 -47.5 -48 q-16.5 -28.5 -22 -64.5 q-5.5 -36 -5.5 -95 l0 -333 q0 -121 -29.5 -188.5 q-29.5 -67.5 -97 -93.5 q-67.5 -26 -191.5 -26 q94 20 132 82 q38 62 38 172 Z" /><glyph glyph-name="asciitilde" unicode="~" d="M1065 694 l72 -82 q-30 -56 -73 -107.5 q-43 -51.5 -99 -83.5 q-56 -32 -117 -32 q-33 0 -78.5 14 q-45.5 14 -114.5 42 q-69 28 -84 34 q-27 12 -58 24.5 q-31 12.5 -60 20.5 q-29 8 -60 8 q-72 0 -116.5 -46.5 q-44.5 -46.5 -100.5 -141.5 l-72 82 q60 108 127 173 q67 65 164 65 q49 0 108 -19.5 q59 -19.5 139.5 -56 q80.5 -36.5 126 -53.5 q45.5 -17 81.5 -17 q64 0 123 54.5 q59 54.5 92 121.5 Z" /><glyph glyph-name="Zcaron" unicode="" d="M35 45 l596 832 q224 323 291 426 l0 4 l-234 -2 q-83 0 -156.5 -3.5 q-73.5 -3.5 -140 -8.5 q-66.5 -5 -141.5 -10.5 q-75 -5.5 -131 -10.5 q2 15 4 33.5 q2 18.5 2 27.5 q0 14 -1 20.5 q-1 6.5 -2 16 q-1 9.5 -3 25.5 l1077 0 l0 -39 q-123 -161 -211 -279 q-88 -118 -206 -283 q-118 -165 -247 -355 q-129 -190 -229 -345 l0 -4 l311 0 q187 4 574 33 q-2 -22 -4 -37 q-2 -15 -2 -25 q0 -9 2 -25 q2 -16 4 -36 l-1153 0 l0 45 ZM897 1788 l59 0 l-225 -289 l-100 0 l-225 289 l61 0 l215 -182 l215 182 Z" /><glyph glyph-name="ogonek" unicode="" d="M469 -160 l33 -43 q-127 -114 -232 -114 q-55 0 -93 39 q-38 39 -38 94 q0 45 30.5 92.5 q30.5 47.5 72.5 71.5 l75 0 q-31 -24 -56 -60 q-25 -36 -25 -70 q0 -35 24 -59 q24 -24 59 -24 q37 0 78 21 q41 21 72 52 Z" /><glyph glyph-name="caron" unicode="" d="M582 1432 l67 0 l-252 -342 l-112 0 l-252 342 l69 0 l240 -215 l240 215 Z" /><glyph glyph-name="quotesinglbase" unicode="&#x201a;" d="M102 -330 l144 455 q16 51 36 84 q20 33 58 33 q35 0 59.5 -20.5 q24.5 -20.5 24.5 -55.5 q0 -17 -6.5 -36.5 q-6.5 -19.5 -15.5 -35 q-9 -15.5 -23 -37.5 l-242 -401 l-35 14 Z" /><glyph glyph-name="florin" unicode="&#x192;" d="M489 737 l-213 0 q11 27 11 82 l211 0 q8 66 12 82 q27 106 52 178.5 q25 72.5 67.5 141 q42.5 68.5 106 109 q63.5 40.5 153.5 40.5 q17 0 37 -10 q-13 -67 -13 -111 q0 -25 5 -55 l-17 -6 q-66 53 -125 53 q-37 0 -60.5 -22 q-23.5 -22 -35 -58.5 q-11.5 -36.5 -15 -71.5 q-3.5 -35 -6.5 -73 l-12 -197 l223 0 q-8 -26 -8 -82 l-219 0 l-55 -538 q-6 -66 -20.5 -138.5 q-14.5 -72.5 -38 -148 q-23.5 -75.5 -50.5 -127.5 q-93 -178 -315 -178 q16 66 16 155 q21 -6 40 -12.5 q19 -6.5 38 -10 q19 -3.5 33 -3.5 q86 0 107 68 q21 68 32 204 l59 729 Z" /><glyph glyph-name="quotedblbase" unicode="&#x201e;" d="M102 -330 l144 455 q16 51 36 84 q20 33 58 33 q35 0 59.5 -20.5 q24.5 -20.5 24.5 -55.5 q0 -17 -6.5 -36.5 q-6.5 -19.5 -15.5 -35 q-9 -15.5 -23 -37.5 l-242 -401 l-35 14 ZM451 -330 l143 455 q16 51 36 84 q20 33 58 33 q35 0 59.5 -20.5 q24.5 -20.5 24.5 -55.5 q0 -28 -11 -50.5 q-11 -22.5 -34 -58.5 l-242 -401 l-34 14 Z" /><glyph glyph-name="ellipsis" unicode="&#x2026;" d="M219 100 q0 51 38 87 q38 36 87 36 q34 0 61 -17 q27 -17 43.5 -45 q16.5 -28 16.5 -61 q0 -49 -36 -86 q-36 -37 -85 -37 q-50 0 -87.5 36.5 q-37.5 36.5 -37.5 86.5 ZM901 100 q0 51 38 87 q38 36 87 36 q34 0 61 -17 q27 -17 43.5 -45 q16.5 -28 16.5 -61 q0 -49 -36 -86 q-36 -37 -85 -37 q-50 0 -87.5 36.5 q-37.5 36.5 -37.5 86.5 ZM1583 100 q0 51 38 87 q38 36 87 36 q34 0 61 -17 q27 -17 43.5 -45 q16.5 -28 16.5 -61 q0 -49 -36 -86 q-36 -37 -85 -37 q-50 0 -87.5 36.5 q-37.5 36.5 -37.5 86.5 Z" /><glyph glyph-name="dagger" unicode="&#x2020;" d="M440 -6 l0 815 q-68 0 -356 -10 q2 17 4 36 q2 19 2 31 q0 14 -1 21 q-1 7 -2 18 q-1 11 -3 27 q46 -1 89.5 -3 q43.5 -2 87 -3 q43.5 -1 87.5 -2 q44 -1 92 -2 l0 473 q22 -2 40.5 -4 q18.5 -2 31.5 -2 q12 0 29 2 q17 2 43 4 l0 -473 q63 0 356 10 q-2 -24 -4 -39.5 q-2 -15.5 -2 -26.5 q0 -12 2 -28.5 q2 -16.5 4 -38.5 q-293 10 -356 10 l0 -815 q-18 2 -29.5 3 q-11.5 1 -19.5 2 q-8 1 -23 1 q-13 0 -33.5 -2 q-20.5 -2 -38.5 -4 Z" /><glyph glyph-name="daggerdbl" unicode="&#x2021;" d="M440 -6 l0 383 q-38 0 -356 -10 q2 17 4 36 q2 19 2 31 q0 14 -1 21 q-1 7 -2 18 q-1 11 -3 27 q42 -1 128 -4.5 q86 -3.5 143.5 -5 q57.5 -1.5 84.5 -1.5 l0 410 q-38 0 -356 -10 q2 17 4 36 q2 19 2 31 q0 14 -1 21 q-1 7 -2 18 q-1 11 -3 27 q171 -5 243 -7.5 q72 -2.5 113 -2.5 l0 383 q22 -2 40.5 -4 q18.5 -2 31.5 -2 q12 0 29 2 q17 2 43 4 l0 -383 q37 0 72 1 q35 1 96 3 q61 2 109 3.5 q48 1.5 79 2.5 q-2 -24 -4 -39.5 q-2 -15.5 -2 -26.5 q0 -12 2 -28.5 q2 -16.5 4 -38.5 q-318 10 -356 10 l0 -410 q31 0 88.5 1.5 q57.5 1.5 139.5 5 q82 3.5 128 4.5 q-2 -24 -4 -39.5 q-2 -15.5 -2 -26.5 q0 -12 2 -28.5 q2 -16.5 4 -38.5 q-318 10 -356 10 l0 -383 q-18 2 -29.5 3 q-11.5 1 -19.5 2 q-8 1 -23 1 q-13 0 -33.5 -2 q-20.5 -2 -38.5 -4 Z" /><glyph glyph-name="circumflex" unicode="&#x2c6;" d="M102 1090 l-69 0 l252 342 l112 0 l252 -342 l-67 0 l-240 217 l-240 -217 Z" /><glyph glyph-name="perthousand" unicode="&#x2030;" d="M104 1055 q0 88 35.5 161 q35.5 73 102 115.5 q66.5 42.5 155.5 42.5 q70 0 123 -24 q53 -24 88 -67 q35 -43 52.5 -100.5 q17.5 -57.5 17.5 -127.5 q0 -146 -82 -240 q-37 -41 -93 -64.5 q-56 -23.5 -116 -23.5 q-96 0 -159.5 42.5 q-63.5 42.5 -93.5 117 q-30 74.5 -30 168.5 ZM397 1331 q-97 0 -126 -91.5 q-29 -91.5 -29 -215.5 q0 -254 143 -254 q91 0 121.5 87.5 q30.5 87.5 30.5 197.5 q0 114 -25.5 195 q-25.5 81 -114.5 81 ZM1165 1425 l-792 -1493 q-43 5 -49 5 q-8 0 -14 -0.5 q-6 -0.5 -11 -1.5 q-5 -1 -11 -1.5 q-6 -0.5 -12 -1.5 l793 1493 q32 -4 49 -4 q19 0 47 4 ZM774 303 q0 136 81 229 q81 93 214 93 q134 0 207.5 -92.5 q73.5 -92.5 73.5 -229.5 q0 -139 -78.5 -232.5 q-78.5 -93.5 -214.5 -93.5 q-141 0 -212 90 q-71 90 -71 236 ZM1069 582 q-97 0 -126.5 -91.5 q-29.5 -91.5 -29.5 -216.5 q0 -101 30 -177.5 q30 -76.5 114 -76.5 q61 0 95.5 46.5 q34.5 46.5 45 111 q10.5 64.5 10.5 127.5 q0 114 -25.5 195.5 q-25.5 81.5 -113.5 81.5 ZM1436 303 q0 88 35.5 161.5 q35.5 73.5 102.5 117 q67 43.5 157 43.5 q135 0 206.5 -91.5 q71.5 -91.5 71.5 -230.5 q0 -91 -33 -164.5 q-33 -73.5 -99 -117.5 q-66 -44 -159 -44 q-141 0 -211.5 90.5 q-70.5 90.5 -70.5 235.5 ZM1731 582 q-98 0 -127 -91.5 q-29 -91.5 -29 -216.5 q0 -103 29 -178.5 q29 -75.5 114 -75.5 q91 0 121.5 88 q30.5 88 30.5 197 q0 114 -25.5 195.5 q-25.5 81.5 -113.5 81.5 Z" /><glyph glyph-name="Scaron" unicode="&#x160;" d="M131 270 l21 0 q66 -107 143 -160 q77 -53 188 -53 q81 0 146 40.5 q65 40.5 102 109.5 q37 69 37 149 q0 127 -78 185.5 q-78 58.5 -237.5 121 q-159.5 62.5 -242.5 138.5 q-83 76 -83 231 q0 189 129 291 q129 102 326 102 q80 0 159.5 -24.5 q79.5 -24.5 132.5 -73.5 q-16 -36 -55 -168 l-20 0 q-31 83 -98 130.5 q-67 47.5 -156 47.5 q-71 0 -130 -30 q-59 -30 -93.5 -84.5 q-34.5 -54.5 -34.5 -124.5 q0 -125 77 -183.5 q77 -58.5 240 -123 q163 -64.5 245.5 -137 q82.5 -72.5 82.5 -218.5 q0 -108 -38.5 -194.5 q-38.5 -86.5 -109 -148 q-70.5 -61.5 -161.5 -93 q-91 -31.5 -197 -31.5 q-82 0 -183.5 32.5 q-101.5 32.5 -150.5 86.5 q24 67 39 182 ZM766 1806 l59 0 l-225 -288 l-100 0 l-226 288 l62 0 l215 -182 l215 182 Z" /><glyph glyph-name="guilsinglleft" unicode="&#x2039;" d="M420 70 l-246 389 l258 379 q33 -40 76 -54 l-229 -323 l219 -338 q-49 -15 -78 -53 Z" /><glyph glyph-name="OE" unicode="&#x152;" d="M1298 0 l11 197 q-94 -114 -236.5 -171 q-142.5 -57 -298.5 -57 q-161 0 -295.5 49 q-134.5 49 -229.5 141 q-95 92 -146.5 223.5 q-51.5 131.5 -51.5 293.5 q0 238 96.5 406.5 q96.5 168.5 266.5 255.5 q170 87 383 87 q100 0 196.5 -21.5 q96.5 -21.5 180.5 -69 q84 -47.5 145 -124.5 l-21 185 l670 0 q-2 -22 -4 -37 q-2 -15 -2 -25 q0 -9 2 -25 q2 -16 4 -36 q-76 15 -184 22 l-164 4 l-141 0 l0 -516 l272 0 q19 0 55 2.5 q36 2.5 61.5 4.5 q25.5 2 65.5 4 q-2 -18 -4 -31 q-2 -13 -2 -23 q0 -6 2 -21 q2 -15 4 -36 q-40 2 -65.5 4 q-25.5 2 -61.5 4 q-36 2 -55 2 l-272 0 l0 -596 q163 0 331 8 q84 3 189 19 q-2 -22 -4 -37 q-2 -15 -2 -25 q0 -9 2 -25 q2 -16 4 -36 l-701 0 ZM786 37 q133 6 235.5 59.5 q102.5 53.5 168.5 145.5 q66 92 97.5 212 q31.5 120 31.5 261 q0 133 -32 248.5 q-32 115.5 -94.5 203.5 q-62.5 88 -161 139.5 q-98.5 51.5 -224.5 51.5 q-129 0 -232 -49.5 q-103 -49.5 -175 -142.5 q-72 -93 -110 -220 q-38 -127 -38 -282 q0 -156 41 -272 q41 -116 114.5 -193.5 q73.5 -77.5 170 -117 q96.5 -39.5 208.5 -44.5 Z" /><glyph glyph-name="Lslash" unicode="" d="M362 1395 l0 -533 l261 133 l0 -102 l-261 -133 l0 -664 q125 0 371 8 q33 1 89.5 7 q56.5 6 105.5 12 q-2 -22 -4 -37 q-2 -15 -2 -25 q0 -9 2 -25 q2 -16 4 -36 l-746 0 l0 637 l-182 -94 l0 102 l182 94 l0 656 q30 -2 52.5 -4 q22.5 -2 37.5 -2 q14 0 37 2 q23 2 53 4 Z" /><glyph glyph-name="ordmasculine" unicode="" d="M25 1130 q0 87 44 154 q44 67 121.5 104 q77.5 37 171.5 37 q146 0 232 -90 q78 -81 78 -209 q0 -85 -47 -165 q-47 -70 -120.5 -105 q-73.5 -35 -164.5 -35 q-66 0 -137 27 q-34 14 -53.5 28 q-19.5 14 -49.5 42 q-43 46 -59 96 q-16 50 -16 116 ZM362 1389 q-116 0 -168.5 -81.5 q-52.5 -81.5 -52.5 -195.5 q0 -67 21.5 -124.5 q21.5 -57.5 68.5 -93.5 q47 -36 119 -36 q71 0 118 45.5 q47 45.5 67 109 q20 63.5 20 120.5 q0 101 -46 178.5 q-46 77.5 -147 77.5 ZM51 702 l594 0 l0 -61 l-594 0 l0 61 Z" /><glyph glyph-name="fraction" unicode="" d="M479 1395 l-569 -1440 q-28 4 -45 4 q-19 0 -47 -4 l571 1440 q28 -4 45 -4 q17 0 45 4 Z" /><glyph glyph-name="breve" unicode="" d="M57 1409 l54 0 q14 -92 75.5 -148.5 q61.5 -56.5 153.5 -56.5 q191 0 229 205 l58 0 q-8 -95 -42 -166.5 q-34 -71.5 -99.5 -112 q-65.5 -40.5 -159.5 -40.5 q-122 0 -195.5 90 q-73.5 90 -73.5 229 Z" /><glyph glyph-name="quoteleft" unicode="&#x2018;" d="M463 1411 l-144 -455 q-18 -55 -36.5 -85.5 q-18.5 -30.5 -57.5 -30.5 q-33 0 -58.5 20.5 q-25.5 20.5 -25.5 54.5 q0 30 11 51.5 q11 21.5 34 57.5 l242 401 l35 -14 Z" /><glyph glyph-name="quoteright" unicode="&#x2019;" d="M106 854 l144 455 q16 51 36.5 83.5 q20.5 32.5 57.5 32.5 q35 0 59.5 -20.5 q24.5 -20.5 24.5 -54.5 q0 -17 -6.5 -36.5 q-6.5 -19.5 -15.5 -35 q-9 -15.5 -23 -37.5 l-242 -401 l-35 14 Z" /><glyph glyph-name="quotedblleft" unicode="&#x201c;" d="M803 1411 l-144 -455 q-18 -55 -36.5 -85.5 q-18.5 -30.5 -57.5 -30.5 q-33 0 -58.5 20.5 q-25.5 20.5 -25.5 54.5 q0 30 11 51.5 q11 21.5 34 57.5 l242 401 l35 -14 ZM455 1411 l-144 -455 q-17 -52 -36 -84 q-19 -32 -58 -32 q-33 0 -58.5 20.5 q-25.5 20.5 -25.5 54.5 q0 30 11 51.5 q11 21.5 34 57.5 l242 401 l35 -14 Z" /><glyph glyph-name="quotedblright" unicode="&#x201d;" d="M106 854 l144 455 q16 51 36.5 83.5 q20.5 32.5 57.5 32.5 q35 0 59.5 -20.5 q24.5 -20.5 24.5 -54.5 q0 -17 -6.5 -36.5 q-6.5 -19.5 -15.5 -35 q-9 -15.5 -23 -37.5 l-242 -401 l-35 14 ZM455 854 l143 455 q16 51 36.5 83.5 q20.5 32.5 57.5 32.5 q35 0 59.5 -20.5 q24.5 -20.5 24.5 -54.5 q0 -28 -11 -50.5 q-11 -22.5 -34 -58.5 l-242 -401 l-34 14 Z" /><glyph glyph-name="bullet" unicode="&#x2022;" d="M625 1047 q94 0 173.5 -47 q79.5 -47 125 -127.5 q45.5 -80.5 45.5 -174.5 q0 -94 -45.5 -174 q-45.5 -80 -125 -127 q-79.5 -47 -173.5 -47 q-95 0 -174.5 46.5 q-79.5 46.5 -127.5 127.5 q-48 81 -51 174 q3 93 51 174.5 q48 81.5 127.5 128 q79.5 46.5 174.5 46.5 Z" /><glyph glyph-name="emdash" unicode="&#x2013;" d="M1034 403 l-1034 0 l0 99 l1034 0 l0 -99 Z" /><glyph glyph-name="endash" unicode="&#x2014;" d="M0 403 l0 99 l2048 0 l0 -99 l-2048 0 Z" /><glyph glyph-name="tilde" unicode="&#x2dc;" d="M63 1141 l-57 0 q19 87 77 143.5 q58 56.5 138 56.5 q24 0 51 -6 q41 -14 101 -45 q44 -22 76 -35 q21 -8 49 -8 q53 0 80 35 q15 15 38 68 l60 0 q-22 -88 -78.5 -148.5 q-56.5 -60.5 -140.5 -60.5 q-30 0 -52.5 5.5 q-22.5 5.5 -43 15 q-20.5 9.5 -54.5 26.5 q-14 6 -42 19.5 q-28 13.5 -48 20.5 q-20 7 -41 7 q-22 0 -45 -10 q-43 -18 -68 -84 Z" /><glyph glyph-name="trademark" unicode="&#x2122;" d="M1718 1395 l25 0 q8 -66 22 -194.5 q14 -128.5 25.5 -226 q11.5 -97.5 21 -173.5 q9.5 -76 31.5 -238 q-14 2 -23.5 3 q-9.5 1 -15.5 2 q-6 1 -18 1 q-10 0 -26.5 -2 q-16.5 -2 -30.5 -4 q-15 177 -25 281 q-10 104 -19.5 192.5 q-9.5 88.5 -19.5 153.5 q-231 -416 -317 -612 l-13 0 l-67 137 q-31 64 -65.5 131.5 q-34.5 67.5 -61 117 q-26.5 49.5 -57.5 108.5 q-31 59 -62 118 q-7 -65 -18.5 -169 q-11.5 -104 -22 -208 q-10.5 -104 -14 -161.5 q-3.5 -57.5 -4.5 -88.5 q-6 1 -43 6 q-8 0 -20 -2 q-12 -2 -23 -4 q11 67 22.5 146.5 q11.5 79.5 34 236.5 q22.5 157 39 283 q16.5 126 20.5 166 l31 0 q210 -414 344 -637 q39 69 107.5 195.5 q68.5 126.5 135 248 q66.5 121.5 107.5 193.5 ZM475 1337 l0 -774 q-13 2 -29 4 q-16 2 -24 2 q-10 0 -25 -2 q-15 -2 -28 -4 l0 774 q-104 0 -267 -14 l0 72 l627 0 l0 -72 q-142 14 -254 14 Z" /><glyph glyph-name="scaron" unicode="&#x161;" d="M129 193 l16 0 q40 -65 104 -108.5 q64 -43.5 132 -43.5 q50 0 96.5 24 q46.5 24 75.5 67 q29 43 29 95 q0 92 -56.5 126.5 q-56.5 34.5 -181 70.5 q-124.5 36 -185.5 87 q-61 51 -61 171 q0 142 94.5 222.5 q94.5 80.5 239.5 80.5 q70 0 136 -17 q66 -17 96 -36 q-29 -64 -50 -146 l-18 0 q-13 33 -40.5 65.5 q-27.5 32.5 -61.5 51.5 q-34 19 -72 19 q-80 0 -133 -45 q-53 -45 -53 -125 q0 -87 55.5 -122.5 q55.5 -35.5 178 -75 q122.5 -39.5 186 -91 q63.5 -51.5 63.5 -162.5 q0 -103 -55 -177 q-55 -74 -142.5 -110.5 q-87.5 -36.5 -179.5 -36.5 q-145 0 -256 66 q38 115 43 150 ZM627 1370 l59 0 l-225 -289 l-101 0 l-225 289 l62 0 l215 -182 l215 182 Z" /><glyph glyph-name="guilsinglright" unicode="&#x203a;" d="M262 838 l246 -389 l-258 -379 q-35 41 -76 53 l229 323 l-219 338 q50 17 78 54 Z" /><glyph glyph-name="oe" unicode="&#x153;" d="M1704 193 l-14 -99 q-151 -117 -330 -117 q-125 0 -234.5 44.5 q-109.5 44.5 -175.5 136.5 q-59 -92 -165 -136.5 q-106 -44.5 -226 -44.5 q-159 0 -272 64.5 q-113 64.5 -169.5 180 q-56.5 115.5 -56.5 265.5 q0 139 67 254 q67 115 183.5 179.5 q116.5 64.5 257.5 64.5 q117 0 221 -46 q104 -46 171 -136 q130 182 376 182 q110 -2 201 -42 q91 -40 149 -141 q58 -101 58 -270 q0 -15 -0.5 -25.5 q-0.5 -10.5 -1.5 -23.5 q-175 6 -424 6 l-285 0 q-8 -32 -8 -77 q0 -89 41.5 -169 q41.5 -80 125 -130 q83.5 -50 198.5 -50 q83 0 166.5 36 q83.5 36 146.5 94 ZM557 41 q111 0 184 68 q73 68 107.5 173 q34.5 105 34.5 212 q0 102 -31 200.5 q-31 98.5 -100.5 163 q-69.5 64.5 -176.5 64.5 q-175 0 -254 -142 q-79 -142 -79 -334 q0 -186 82 -291 q82 -105 233 -114 ZM1036 565 l545 0 q0 155 -54 256 q-54 101 -192 101 q-267 0 -299 -357 Z" /><glyph glyph-name="dotlessi" unicode="&#x131;" d="M367 973 l0 -979 q-20 2 -33.5 3 q-13.5 1 -22.5 2 q-9 1 -26 1 q-19 0 -24.5 -0.5 q-5.5 -0.5 -22.5 -2 q-17 -1.5 -35 -3.5 l0 979 q26 -2 47 -4 q21 -2 35 -2 q13 0 33.5 2 q20.5 2 48.5 4 Z" /><glyph glyph-name="zcaron" unicode="" d="M934 944 l-637 -862 l0 -6 q78 0 169 3.5 q91 3.5 169 8 q78 4.5 144.5 9 q66.5 4.5 140.5 9.5 q-1 -7 -2.5 -16 q-1.5 -9 -3 -19 q-1.5 -10 -1.5 -18 q1 -9 2 -18 q1 -9 2.5 -19.5 q1.5 -10.5 2.5 -15.5 l-875 0 l0 18 q54 66 156 197.5 q102 131.5 196 257.5 q94 126 154 208 q60 82 147 202 l0 6 q-68 0 -125 -2 q-57 -2 -150 -8 q-93 -6 -149 -11 q-56 -5 -124 -10 q6 42 6 51 q0 11 -1 17 q-1 6 -2 14.5 q-1 8.5 -3 22.5 l784 0 l0 -19 ZM758 1362 l59 0 l-225 -289 l-100 0 l-226 289 l62 0 l215 -182 l215 182 Z" /><glyph glyph-name="Ydieresis" unicode="&#x178;" d="M723 623 l0 -629 q-22 2 -36.5 3 q-14.5 1 -24.5 2 q-10 1 -29 1 q-21 0 -31 -1 q-10 -1 -25.5 -2 q-15.5 -1 -33.5 -3 l0 590 l-502 811 q38 -2 66.5 -4 q28.5 -2 48.5 -2 q17 0 44.5 2 q27.5 2 67.5 4 q57 -110 123 -228.5 q66 -118.5 151 -265.5 q85 -147 115 -192 q24 27 74.5 112.5 q50.5 85.5 118.5 208 q68 122.5 113.5 207 q45.5 84.5 85.5 158.5 q26 -2 45.5 -4 q19.5 -2 33.5 -2 q13 0 32.5 2 q19.5 2 47.5 4 q-79 -102 -145 -205 l-225 -363 q-65 -98 -115 -204 ZM825 1509 q-23 0 -45.5 13 q-22.5 13 -35.5 35.5 q-13 22.5 -13 46.5 q0 37 27.5 65.5 q27.5 28.5 66.5 28.5 q40 0 67.5 -28.5 q27.5 -28.5 27.5 -65.5 q0 -39 -29 -67 q-29 -28 -66 -28 ZM457 1509 q-23 0 -45.5 13 q-22.5 13 -36 35 q-13.5 22 -13.5 47 q0 37 28.5 65.5 q28.5 28.5 66.5 28.5 q38 0 66 -28 q28 -28 28 -66 q0 -40 -28.5 -67.5 q-28.5 -27.5 -65.5 -27.5 Z" /><glyph glyph-name="fl" unicode=" " d="M207 -10 l0 905 l-141 0 q4 12 4 39 q0 27 -4 39 l141 0 q12 132 56 260 q44 128 128 214.5 q84 86.5 203 86.5 q27 0 41 -2 q-8 -66 -8 -164 l-13 -8 l-41 20 q-27 11 -71 11 q-87 0 -127.5 -60.5 q-40.5 -60.5 -40.5 -156.5 q0 -92 33 -201 l208 0 q-4 -30 -4 -39 q0 -11 4 -39 l-204 0 l0 -905 q-20 2 -33.5 3 q-13.5 1 -22.5 2 q-9 1 -26 1 q-19 0 -24.5 -0.5 q-5.5 -0.5 -22.5 -2 q-17 -1.5 -35 -3.5 ZM784 -10 l0 1542 q26 -2 46.5 -4 q20.5 -2 35.5 -2 q14 0 34 2 q20 2 48 4 l0 -1542 q-20 2 -33.5 3 q-13.5 1 -22 2 q-8.5 1 -26.5 1 q-15 0 -38 -2 q-23 -2 -44 -4 Z" /><glyph glyph-name="exclamdown" unicode="¡" d="M217 893 q0 51 38 87 q38 36 87 36 q50 0 85.5 -37.5 q35.5 -37.5 35.5 -85.5 q0 -51 -36 -87 q-36 -36 -85 -36 q-50 0 -87.5 35.5 q-37.5 35.5 -37.5 87.5 ZM246 -227 l76 864 l40 0 l80 -864 l0 -62 q0 -143 -96 -143 q-59 0 -79.5 41 q-20.5 41 -22.5 102 q0 47 2 62 Z" /><glyph glyph-name="cent" unicode="¢" d="M475 127 l240 786 q-38 5 -41 5 q-114 0 -194 -59 q-80 -59 -120.5 -156.5 q-40.5 -97.5 -40.5 -208.5 q0 -113 40 -210.5 q40 -97.5 116 -156.5 ZM514 -10 l-78 -256 q-24 22 -74 22 l78 254 q-123 54 -212 168.5 q-89 114.5 -89 304.5 q0 111 40.5 205 q40.5 94 113.5 160 q73 66 170 101.5 q97 35.5 209 35.5 q19 0 63 -4 l72 233 q27 -17 72 -20 l-68 -223 q51 -8 104.5 -29.5 q53.5 -21.5 81.5 -42.5 l-47 -135 l-16 0 q-16 22 -28 38.5 q-12 16.5 -27 28.5 q-41 41 -91 62 l-245 -809 q70 -33 153 -33 q79 0 145.5 30.5 q66.5 30.5 147.5 90.5 l-8 -92 q-69 -51 -153 -77 q-84 -26 -175 -26 q-73 0 -139 13 Z" /><glyph glyph-name="sterling" unicode="£" d="M1042 0 l-948 0 q2 16 3 27.5 q1 11.5 2 18.5 q1 7 1 22 q0 12 -2 30.5 q-2 18.5 -4 34.5 q123 0 192 41 q69 41 94.5 116 q25.5 75 25.5 191 q0 34 -4.5 83.5 q-4.5 49.5 -6.5 66 q-2 16.5 -4 49.5 q-65 0 -205 -8 l0 90 q72 -10 195 -10 q-14 71 -14 147 q0 119 26 210 q26 91 78.5 156 q52.5 65 129 97.5 q76.5 32.5 177.5 32.5 q95 0 176 -37 q84 -44 88 -74 q-24 -30 -45 -56.5 q-21 -26.5 -41 -45.5 l-8 28 q-22 48 -68 80.5 q-46 32.5 -96 32.5 q-254 0 -254 -317 q1 -11 1.5 -20 q0.5 -9 0.5 -23 l7 -115 l8 -98 q192 0 309 16 l0 -90 q-66 2 -130.5 3.5 q-64.5 1.5 -84 2 q-19.5 0.5 -92.5 0.5 q6 -43 6 -88 q0 -133 -51 -254.5 q-51 -121.5 -150 -204.5 l68 0 l432 17 l188 8 q-2 -28 -4 -48 q-2 -20 -2 -32 q0 -15 2 -35.5 q2 -20.5 4 -44.5 Z" /><glyph glyph-name="currency" unicode="¤" d="M66 289 l110 110 q-115 147 -115 312 q0 186 109 311 l-111 113 l91 90 l110 -113 q134 111 315 111 q81 0 160 -28 q79 -28 144 -81 l108 109 l88 -88 l-108 -109 q112 -134 112 -311 q0 -177 -116 -314 l108 -110 l-88 -88 l-109 108 q-62 -52 -139.5 -79 q-77.5 -27 -161.5 -27 q-178 0 -309 106 l-108 -108 l-90 86 ZM575 1098 q-104 0 -194.5 -51 q-90.5 -51 -142.5 -139.5 q-52 -88.5 -52 -196.5 q0 -105 52 -192.5 q52 -87.5 140.5 -138 q88.5 -50.5 194.5 -50.5 q104 0 191.5 52.5 q87.5 52.5 138.5 142 q51 89.5 51 190.5 q0 100 -51 189 q-51 89 -138 141.5 q-87 52.5 -190 52.5 Z" /><glyph glyph-name="yen" unicode="¥" d="M330 874 l-303 531 q34 -2 61 -4 q27 -2 45 -2 q18 0 44.5 2 q26.5 2 62.5 4 q55 -125 183 -370.5 q128 -245.5 177 -325.5 q43 53 166.5 295 q123.5 242 198.5 401 q24 -2 42 -4 q18 -2 31 -2 q12 0 30 2 q18 2 44 4 q-23 -38 -62.5 -100 q-39.5 -62 -72.5 -115 l-180 -316 l211 0 l0 -100 l-269 0 q-16 -30 -45 -87.5 q-29 -57.5 -32 -63.5 l0 -74 l346 0 l0 -100 l-346 0 l0 -455 q-20 2 -34.5 3 q-14.5 1 -23.5 2 q-9 1 -26 1 q-19 0 -25 -0.5 q-6 -0.5 -23.5 -2 q-17.5 -1.5 -35.5 -3.5 l0 455 l-375 0 l0 100 l375 0 l0 35 l-111 190 l-264 0 l0 100 l211 0 Z" /><glyph glyph-name="brokenbar" unicode="¦" d="M274 0 l0 573 l132 0 l0 -573 l-132 0 ZM274 1532 l132 0 l0 -574 l-132 0 l0 574 Z" /><glyph glyph-name="section" unicode="§" d="M567 268 l-108 47 q-115 49 -178.5 86 q-63.5 37 -109.5 102 q-46 65 -46 161 q0 68 36 131.5 q36 63.5 101 113.5 q-55 98 -55 176 q0 103 47 179.5 q47 76.5 129 118.5 q82 42 184 42 q167 0 275 -114 q-35 -43 -62 -119 l-18 0 q-29 74 -87 120 q-58 46 -124 46 q-97 0 -156 -45 q-36 -27 -59 -70 q-23 -43 -23 -86 q0 -71 39.5 -118.5 q39.5 -47.5 108.5 -77.5 l256 -113 q82 -37 131 -104.5 q49 -67.5 49 -155.5 q0 -136 -117 -262 q78 -84 78 -164 q0 -90 -32.5 -164 q-32.5 -74 -91.5 -129 q-59 -55 -138 -84 q-79 -29 -168 -29 q-138 0 -289 84 q25 97 25 174 l18 0 q103 -184 310 -184 q68 0 127.5 36.5 q59.5 36.5 96 90.5 q36.5 54 36.5 100 q0 58 -24 97.5 q-24 39.5 -65.5 65.5 q-41.5 26 -95.5 48 ZM485 481 l152 -63 l113 -62 q57 92 57 148 q0 42 -20.5 79 q-20.5 37 -58 67 q-37.5 30 -91.5 55 l-213 96 q-23 10 -48.5 22 q-25.5 12 -45 24.5 q-19.5 12.5 -35.5 31.5 q-78 -70 -78 -148 q0 -59 33 -100 q40 -49 90.5 -78 q50.5 -29 144.5 -72 Z" /><glyph glyph-name="dieresis" unicode="¨" d="M541 1128 q-35 0 -65 30 q-30 30 -30 65 q0 37 27.5 65.5 q27.5 28.5 67.5 28.5 q39 0 66.5 -28.5 q27.5 -28.5 27.5 -65.5 q0 -37 -29 -66 q-29 -29 -65 -29 ZM139 1128 q-36 0 -65 29 q-29 29 -29 66 q0 37 27.5 65.5 q27.5 28.5 66.5 28.5 q38 0 66 -28 q28 -28 28 -66 q0 -40 -28.5 -67.5 q-28.5 -27.5 -65.5 -27.5 Z" /><glyph glyph-name="copyright" unicode="©" d="M766 -31 q-197 0 -364 98 q-167 98 -264 265.5 q-97 167.5 -97 363.5 q0 197 97.5 365 q97.5 168 264 266 q166.5 98 363.5 98 q196 0 365.5 -98 q169.5 -98 267.5 -265 q98 -167 98 -366 q0 -197 -98 -364 q-98 -167 -267 -265 q-169 -98 -366 -98 ZM766 72 q125 0 236.5 48.5 q111.5 48.5 199 136.5 q87.5 88 135 200 q47.5 112 47.5 239 q0 128 -48 241 q-48 113 -134 200.5 q-86 87.5 -199 136.5 q-113 49 -237 49 q-164 0 -305.5 -85.5 q-141.5 -85.5 -224 -230.5 q-82.5 -145 -82.5 -311 q0 -167 83 -310.5 q83 -143.5 224 -228.5 q141 -85 305 -85 ZM1051 434 l-13 -78 q-55 -35 -123.5 -50 q-68.5 -15 -144.5 -15 q-199 0 -314.5 110.5 q-115.5 110.5 -115.5 298.5 q0 126 60.5 217.5 q60.5 91.5 165 139 q104.5 47.5 233.5 47.5 q134 0 262 -53 q-16 -38 -25 -95 l-8 0 q-9 14 -42.5 35 q-33.5 21 -85.5 36 q-52 15 -105 15 q-144 0 -230 -97.5 q-86 -97.5 -86 -248.5 q0 -108 41.5 -186 q41.5 -78 112 -118 q70.5 -40 153.5 -40 q83 0 144.5 24.5 q61.5 24.5 120.5 57.5 Z" /><glyph glyph-name="ordfeminine" unicode="ª" d="M559 1219 l0 -236 q0 -12 -0.5 -21 q-0.5 -9 -1.5 -20 q0 -70 49 -70 q25 0 33 5 l0 -27 q-18 -9 -43 -12 q-32 -4 -45 -4 q-91 0 -105 75 l-12 -10 q-46 -40 -97.5 -59 q-51.5 -19 -117.5 -19 q-78 0 -136 42.5 q-58 42.5 -58 107.5 q0 39 23 78.5 q23 39.5 65 56.5 q52 22 92.5 29.5 q40.5 7.5 117.5 18 q77 10.5 99 22.5 q17 9 22 21 q5 12 5 34 q0 68 -44.5 106.5 q-44.5 38.5 -125.5 38.5 q-70 0 -115.5 -28.5 q-45.5 -28.5 -59.5 -59.5 l-14 0 l0 70 q111 67 234 67 q115 0 175 -47.5 q60 -47.5 60 -158.5 ZM442 956 l0 181 l-51 -9 q-83 -13 -128 -23 q-45 -10 -83.5 -38 q-38.5 -28 -38.5 -80 q0 -55 39.5 -86 q39.5 -31 106.5 -31 q30 1 62.5 17 q32.5 16 51.5 33 q41 25 41 36 ZM51 641 l0 61 l561 0 l0 -61 l-561 0 Z" /><glyph glyph-name="guillemotleft" unicode="«" d="M444 70 l-245 389 l258 379 q30 -39 75 -54 l-229 -323 l219 -338 q-47 -14 -78 -53 ZM737 70 l-245 389 l258 379 q30 -39 75 -54 l-229 -323 l219 -338 q-47 -14 -78 -53 Z" /><glyph glyph-name="logicalnot" unicode="¬" d="M1006 231 l0 422 l-902 0 l0 131 l1033 0 l0 -553 l-131 0 Z" /><glyph glyph-name="minus" unicode="­" d="M1137 455 l-1033 0 l0 131 l1033 0 l0 -131 Z" /><glyph glyph-name="registered" unicode="®" d="M770 -31 q-197 0 -366 98 q-169 98 -267 266 q-98 168 -98 365 q0 147 57.5 281.5 q57.5 134.5 158 233.5 q100.5 99 234 155.5 q133.5 56.5 281.5 56.5 q149 0 281.5 -56.5 q132.5 -56.5 232 -156 q99.5 -99.5 155.5 -232.5 q56 -133 56 -282 q0 -148 -55.5 -281.5 q-55.5 -133.5 -156.5 -234.5 q-101 -101 -234.5 -157 q-133.5 -56 -278.5 -56 ZM770 72 q163 0 305 85 q142 85 224.5 229 q82.5 144 82.5 312 q0 167 -82.5 311 q-82.5 144 -224.5 229 q-142 85 -305 85 q-123 0 -234.5 -48 q-111.5 -48 -199 -136.5 q-87.5 -88.5 -136 -203 q-48.5 -114.5 -48.5 -237.5 q0 -166 83.5 -310.5 q83.5 -144.5 227 -230 q143.5 -85.5 307.5 -85.5 ZM606 688 l0 -381 q-13 2 -29 4 q-16 2 -24 2 q-5 0 -53 -6 l0 783 l258 0 q270 0 270 -175 q0 -91 -72 -144.5 q-72 -53.5 -178 -72.5 l252 -299 l57 -63 l23 -29 q-18 2 -38 4 q-20 2 -32 2 q-11 0 -31.5 -2 q-20.5 -2 -37.5 -4 q-19 27 -41 56 q-22 29 -35 45 l-145 174 l-97 106 l-47 0 ZM606 1028 l0 -278 l133 0 q82 0 132.5 41.5 q50.5 41.5 50.5 109.5 q0 121 -138 127 l-178 0 Z" /><glyph glyph-name="macron" unicode="¯" d="M614 1174 l-544 0 l0 102 l544 0 l0 -102 Z" /><glyph glyph-name="ring" unicode="°" d="M393 1399 q-49 0 -88 -39 q-39 -39 -39 -88 q0 -49 39 -87 q39 -38 88 -38 q49 0 87 38 q38 38 38 87 q0 49 -37 88 q-37 39 -88 39 ZM393 1069 q-54 0 -101 27.5 q-47 27.5 -75.5 74 q-28.5 46.5 -28.5 101.5 q0 54 28 101 q28 47 76.5 75.5 q48.5 28.5 100.5 28.5 q55 0 101.5 -28.5 q46.5 -28.5 74 -75.5 q27.5 -47 27.5 -101 q0 -55 -27.5 -101.5 q-27.5 -46.5 -74 -74 q-46.5 -27.5 -101.5 -27.5 Z" /><glyph glyph-name="plusminus" unicode="±" d="M555 709 l0 325 l131 0 l0 -325 l451 0 l0 -131 l-451 0 l0 -332 l-131 0 l0 332 l-451 0 l0 131 l451 0 ZM1137 0 l-1033 0 l0 131 l1033 0 l0 -131 Z" /><glyph glyph-name="twosuperior" unicode="²" d="M160 1194 l-45 59 q79 117 229 117 q122 0 194 -52.5 q72 -52.5 72 -162.5 q0 -125 -137 -258 l-158 -156 l-82 -79 l-22 -23 l6 -14 q146 0 410 16 q-6 -24 -6 -47 q0 -24 6 -45 l-572 0 l0 18 q35 31 109 101 l80 75 q128 122 185.5 203.5 q57.5 81.5 57.5 206.5 q0 82 -36.5 128 q-36.5 46 -118.5 46 q-60 0 -106 -37 q-46 -37 -66 -96 Z" /><glyph glyph-name="threesuperior" unicode="³" d="M244 950 q0 6 2 14 q2 8 2 11 q0 5 -2 13 q-2 8 -2 11 q16 0 26.5 -0.5 q10.5 -0.5 22.5 -1.5 q80 0 118 52 q38 52 38 129 q0 44 -15.5 78 q-15.5 34 -47 52.5 q-31.5 18.5 -75.5 18.5 q-47 0 -89.5 -27 q-42.5 -27 -59.5 -67 l-6 -2 l-35 65 q21 24 74 49 q53 25 122 25 q61 0 120 -18.5 q59 -18.5 96.5 -58.5 q37.5 -40 37.5 -99 q0 -72 -47 -128 q-47 -56 -133 -83 l0 -4 q95 -5 158 -53 q63 -48 63 -135 q0 -118 -97.5 -187 q-97.5 -69 -240.5 -69 q-113 0 -202 38 q5 11 8.5 27 q3.5 16 5 26 q1.5 10 2.5 23 l8 4 q72 -75 180 -75 q100 0 156.5 59 q56.5 59 56.5 151 q0 80 -48 123 q-48 43 -134 43 q-12 0 -33 -2 q-21 -2 -30 -2 Z" /><glyph glyph-name="acute" unicode="´" d="M584 1290 l-322 -200 l-69 0 l256 256 q13 13 28 27.5 q15 14.5 23 23.5 q9 6 18 14.5 q9 8.5 19 15 q10 6.5 18 7.5 q69 0 82 -43 q6 -13 6 -31 q0 -17 -8 -25 q-7 -15 -22 -25 q-15 -10 -29 -20 Z" /><glyph glyph-name="mu" unicode="µ" d="M805 408 l0 565 q26 -2 47 -4 q21 -2 35 -2 q13 0 33.5 2 q20.5 2 48.5 4 l0 -979 q-20 2 -33.5 3 q-13.5 1 -22.5 2 q-9 1 -26 1 q-19 0 -24.5 -0.5 q-5.5 -0.5 -22.5 -2 q-17 -1.5 -35 -3.5 l0 176 l-4 0 q-47 -95 -130 -144 q-83 -49 -192 -49 q-100 0 -174 56 l0 -563 q-20 2 -33.5 3 q-13.5 1 -22 2 q-8.5 1 -26.5 1 q-15 0 -38 -2 q-23 -2 -44 -4 l0 1503 q26 -2 46.5 -4 q20.5 -2 35.5 -2 q13 0 33.5 2 q20.5 2 48.5 4 l0 -553 q0 -111 24.5 -186.5 q24.5 -75.5 79 -115.5 q54.5 -40 144.5 -40 q97 0 153 49 q56 49 77.5 123 q21.5 74 21.5 158 Z" /><glyph glyph-name="paragraph" unicode="¶" d="M1018 1329 l-180 0 l0 -1538 q-14 2 -27.5 3.5 q-13.5 1.5 -18 2 q-4.5 0.5 -18.5 0.5 q-14 0 -21.5 -1 q-7.5 -1 -18.5 -2 q-11 -1 -25 -3 l0 873 l-74 -7 q-183 0 -290 95.5 q-107 95.5 -107 279.5 q0 103 40.5 188 q40.5 85 122.5 128 q53 28 125.5 37.5 q72.5 9.5 165.5 9.5 l66 0 l389 0 l0 -1604 q-14 2 -27.5 3.5 q-13.5 1.5 -18 2 q-4.5 0.5 -18.5 0.5 q-14 0 -21.5 -1 q-7.5 -1 -18.5 -2 q-11 -1 -25 -3 l0 1538 ZM514 1090 l0 -134 q0 -239 166 -239 l29 2 l0 610 q-80 0 -123 -28.5 q-43 -28.5 -57.5 -80 q-14.5 -51.5 -14.5 -130.5 Z" /><glyph glyph-name="periodcentered" unicode="·&#x2219;" d="M162 520 q0 51 38 87 q38 36 87 36 q32 0 60 -17 q28 -17 44.5 -45 q16.5 -28 16.5 -61 q0 -49 -36 -86 q-36 -37 -85 -37 q-50 0 -87.5 36.5 q-37.5 36.5 -37.5 86.5 Z" /><glyph glyph-name="cedilla" unicode="¸" d="M238 -203 l90 203 l69 0 l-61 -135 q37 10 67 10 q71 0 117.5 -38.5 q46.5 -38.5 46.5 -100.5 q0 -71 -59 -123 q-72 -49 -191 -49 q-85 0 -165 30 l28 62 q32 -8 66.5 -16.5 q34.5 -8.5 60.5 -8.5 q47 0 82 22 q35 22 35 64 q0 80 -107 80 q-9 0 -47 -10 l-32 10 Z" /><glyph glyph-name="onesuperior" unicode="¹" d="M346 526 l0 742 l-8 4 l-150 -74 q-17 33 -38 45 q163 61 280 127 l23 -6 l0 -838 q-14 2 -22 3 q-8 1 -14 2 q-6 1 -18 1 q-12 0 -17.5 -1 q-5.5 -1 -14.5 -2 q-9 -1 -21 -3 Z" /><glyph glyph-name="degree" unicode="º" d="M717 1063 q0 -83 -41.5 -153.5 q-41.5 -70.5 -112.5 -112 q-71 -41.5 -153 -41.5 q-128 0 -218 90 q-90 90 -90 217 q0 82 41 152.5 q41 70.5 112.5 112.5 q71.5 42 154.5 42 q61 0 117.5 -23.5 q56.5 -23.5 99.5 -66.5 q43 -43 66.5 -99.5 q23.5 -56.5 23.5 -117.5 ZM635 1063 q0 60 -31 112 q-31 52 -83 82.5 q-52 30.5 -113 30.5 q-92 0 -158 -66 q-66 -66 -66 -159 q0 -95 66 -160 q66 -65 160 -65 q60 0 112 30 q52 30 82.5 81.5 q30.5 51.5 30.5 113.5 Z" /><glyph glyph-name="guillemotright" unicode="»" d="M580 838 l245 -389 l-258 -379 q-32 40 -75 53 l229 323 l-219 338 q49 16 78 54 ZM287 838 l245 -389 l-258 -379 q-32 40 -75 53 l229 323 l-219 338 q49 16 78 54 Z" /><glyph glyph-name="onequarter" unicode="¼" d="M1139 1395 l-570 -1440 q-28 4 -45 4 q-13 0 -47 -4 l572 1440 q28 -4 45 -4 q15 0 45 4 ZM342 526 l0 742 l-8 4 l-150 -74 q-17 33 -39 45 q166 62 281 127 l23 -6 l0 -838 q-14 2 -22 3 q-8 1 -14 2 q-6 1 -18 1 q-12 0 -18 -1 q-6 -1 -14.5 -2 q-8.5 -1 -20.5 -3 ZM1333 229 l-411 0 l0 17 q17 23 100.5 135 q83.5 112 134.5 178 q51 66 80 104 q29 38 119 154 q14 -2 24 -4 q10 -2 19 -2 q5 0 15 2 q10 2 26 4 l0 -518 l123 6 q-4 -24 -4 -39 q0 -11 4 -41 l-123 4 l0 -235 q-14 2 -22.5 3 q-8.5 1 -14.5 2 q-6 1 -17 1 q-9 0 -24.5 -2 q-15.5 -2 -28.5 -4 l0 235 ZM1333 299 l0 395 l-6 4 q-80 -96 -299 -393 l6 -6 l299 0 Z" /><glyph glyph-name="onehalf" unicode="½" d="M1110 1395 l-569 -1440 q-30 4 -45 4 q-15 0 -47 -4 l571 1440 q28 -4 45 -4 q17 0 45 4 ZM342 526 l0 742 l-8 4 l-150 -74 q-17 33 -39 45 q166 62 281 127 l23 -6 l0 -838 q-14 2 -22 3 q-8 1 -14 2 q-6 1 -18 1 q-12 0 -18 -1 q-6 -1 -14.5 -2 q-8.5 -1 -20.5 -3 ZM1096 645 l-45 60 q79 116 229 116 q122 0 194 -52.5 q72 -52.5 72 -162.5 q0 -125 -137 -258 l-158 -155 l-82 -80 l-22 -23 l6 -14 q146 0 410 16 q-7 -28 -7 -47 q0 -20 7 -45 l-572 0 l0 18 q35 31 109 101 l80 76 q126 118 184.5 201 q58.5 83 58.5 208 q0 174 -155 174 q-60 0 -106 -37 q-46 -37 -66 -96 Z" /><glyph glyph-name="threequarters" unicode="¾" d="M1188 1395 l-570 -1440 q-28 4 -45 4 q-13 0 -47 -4 l572 1440 q28 -4 45 -4 q17 0 45 4 ZM281 950 q0 6 2 14 q2 8 2 11 q0 5 -2 13 q-2 8 -2 11 q16 0 26.5 -0.5 q10.5 -0.5 22.5 -1.5 q79 0 117 52 q38 52 38 129 q0 69 -35 109 q-35 40 -102 40 q-47 0 -89.5 -27 q-42.5 -27 -59.5 -67 l-6 -2 l-35 65 q21 24 74 49 q53 25 122 25 q61 0 120 -18.5 q59 -18.5 96.5 -58.5 q37.5 -40 37.5 -99 q0 -72 -47 -128 q-47 -56 -133 -83 l0 -4 q95 -5 158 -53 q63 -48 63 -135 q0 -118 -97.5 -187 q-97.5 -69 -240.5 -69 q-113 0 -202 38 q5 11 8.5 27 q3.5 16 5 26 q1.5 10 2.5 23 l8 4 q72 -75 180 -75 q100 0 156.5 59 q56.5 59 56.5 151 q0 80 -48 123 q-48 43 -134 43 q-12 0 -33 -2 q-21 -2 -30 -2 ZM1370 229 l-412 0 l0 17 q17 23 71.5 96.5 q54.5 73.5 134.5 178 q80 104.5 109.5 142.5 q29.5 38 119.5 154 q14 -2 24 -4 q10 -2 19 -2 q5 0 15 2 q10 2 26 4 l0 -518 l122 6 l0 -80 l-122 4 l0 -235 q-14 2 -22.5 3 q-8.5 1 -14.5 2 q-6 1 -17 1 q-5 0 -53 -6 l0 235 ZM1370 299 l0 395 l-6 4 q-46 -53 -92.5 -114 q-46.5 -61 -110 -148 q-63.5 -87 -96.5 -131 l6 -6 l299 0 Z" /><glyph glyph-name="questiondown" unicode="¿" d="M252 113 l129 141 q45 49 74.5 93.5 q29.5 44.5 29.5 86.5 q0 58 -29.5 94.5 q-29.5 36.5 -80.5 36.5 q-29 0 -64 -12 l-12 8 l25 57 q20 11 69 11 q95 0 158 -70 q63 -70 63 -172 q0 -70 -30.5 -127 q-30.5 -57 -87.5 -115 l-123 -131 q-58 -58 -84.5 -103 q-26.5 -45 -26.5 -110 q0 -70 57.5 -114.5 q57.5 -44.5 131.5 -44.5 q43 0 97.5 28.5 q54.5 28.5 76.5 63.5 l12 -101 q-116 -65 -211 -65 q-85 0 -152.5 33.5 q-67.5 33.5 -106 96 q-38.5 62.5 -38.5 148.5 q0 76 30 136.5 q30 60.5 93 130.5 ZM311 893 q0 51 38 87 q38 36 87 36 q50 0 85.5 -37.5 q35.5 -37.5 35.5 -85.5 q0 -51 -36 -87 q-36 -36 -85 -36 q-50 0 -87.5 36.5 q-37.5 36.5 -37.5 86.5 Z" /><glyph glyph-name="Agrave" unicode="à" d="M719 1425 l614 -1431 q-26 2 -43 3 q-17 1 -28.5 2 q-11.5 1 -34.5 1 q-20 0 -51 -2 q-31 -2 -58 -4 q-104 301 -215 553 l-520 0 q-48 -120 -80 -202 q-32 -82 -65.5 -176 q-33.5 -94 -57.5 -175 q-18 2 -30.5 3 q-12.5 1 -21 2 q-8.5 1 -24.5 1 q-17 0 -25 -1 q-8 -1 -20 -2 q-12 -1 -26 -3 l639 1431 l47 0 ZM872 633 l-227 524 l-223 -524 l450 0 ZM874 1554 l-65 0 l-279 175 q-12 9 -25 18 q-13 9 -20 20 q-2 17 -2 50 q14 38 74 38 q16 -4 21 -8 q12 -9 31 -28 q19 -19 34 -35 l231 -230 Z" /><glyph glyph-name="Aacute" unicode="á" d="M719 1425 l614 -1431 q-26 2 -43 3 q-17 1 -28.5 2 q-11.5 1 -34.5 1 q-20 0 -51 -2 q-31 -2 -58 -4 q-104 301 -215 553 l-520 0 q-48 -120 -80 -202 q-32 -82 -65.5 -176 q-33.5 -94 -57.5 -175 q-18 2 -30.5 3 q-12.5 1 -21 2 q-8.5 1 -24.5 1 q-17 0 -25 -1 q-8 -1 -20 -2 q-12 -1 -26 -3 l639 1431 l47 0 ZM872 633 l-227 524 l-223 -524 l450 0 ZM872 1720 l-284 -182 l-62 0 l230 229 q16 16 23 23 q7 7 22 22 q8 6 18 14.5 q10 8.5 14.5 11.5 q4.5 3 14.5 5 q61 0 72 -39 q0 -10 -0.5 -26.5 q-0.5 -16.5 -4.5 -20.5 q-5 -10 -11.5 -16 q-6.5 -6 -14.5 -10.5 q-8 -4.5 -17 -10.5 Z" /><glyph glyph-name="Acircumflex" unicode="â" d="M719 1425 l614 -1431 q-26 2 -43 3 q-17 1 -28.5 2 q-11.5 1 -34.5 1 q-20 0 -51 -2 q-31 -2 -58 -4 q-104 301 -215 553 l-520 0 q-48 -120 -80 -202 q-32 -82 -65.5 -176 q-33.5 -94 -57.5 -175 q-18 2 -30.5 3 q-12.5 1 -21 2 q-8.5 1 -24.5 1 q-17 0 -25 -1 q-8 -1 -20 -2 q-12 -1 -26 -3 l639 1431 l47 0 ZM872 633 l-227 524 l-223 -524 l450 0 ZM471 1495 l-61 0 l225 293 l100 0 l226 -293 l-60 0 l-215 186 l-215 -186 Z" /><glyph glyph-name="Atilde" unicode="ã" d="M719 1425 l614 -1431 q-26 2 -43 3 q-17 1 -28.5 2 q-11.5 1 -34.5 1 q-20 0 -51 -2 q-31 -2 -58 -4 q-104 301 -215 553 l-520 0 q-48 -120 -80 -202 q-32 -82 -65.5 -176 q-33.5 -94 -57.5 -175 q-18 2 -30.5 3 q-12.5 1 -21 2 q-8.5 1 -24.5 1 q-17 0 -25 -1 q-8 -1 -20 -2 q-12 -1 -26 -3 l639 1431 l47 0 ZM872 633 l-227 524 l-223 -524 l450 0 ZM430 1528 l-41 0 q17 78 68.5 129 q51.5 51 122.5 51 q19 0 45 -6 q23 -8 88 -39 q45 -22 63 -29 q30 -8 45 -8 q45 0 68 31 q9 9 33 57 l53 0 q-18 -76 -68 -131 q-50 -55 -127 -55 q-25 0 -46.5 5.5 q-21.5 5.5 -39 13 q-17.5 7.5 -47.5 22.5 q-23 11 -41 19.5 q-18 8.5 -39.5 15 q-21.5 6.5 -38.5 6.5 q-22 0 -39 -8 q-40 -16 -59 -74 Z" /><glyph glyph-name="Adieresis" unicode="ä" d="M719 1425 l614 -1431 q-26 2 -43 3 q-17 1 -28.5 2 q-11.5 1 -34.5 1 q-20 0 -51 -2 q-31 -2 -58 -4 q-104 301 -215 553 l-520 0 q-48 -120 -80 -202 q-32 -82 -65.5 -176 q-33.5 -94 -57.5 -175 q-18 2 -30.5 3 q-12.5 1 -21 2 q-8.5 1 -24.5 1 q-17 0 -25 -1 q-8 -1 -20 -2 q-12 -1 -26 -3 l639 1431 l47 0 ZM872 633 l-227 524 l-223 -524 l450 0 ZM870 1536 q-23 0 -45.5 13 q-22.5 13 -35.5 35.5 q-13 22.5 -13 45.5 q0 37 27.5 65.5 q27.5 28.5 66.5 28.5 q40 0 67.5 -28.5 q27.5 -28.5 27.5 -65.5 q0 -23 -13 -45.5 q-13 -22.5 -35.5 -35.5 q-22.5 -13 -46.5 -13 ZM502 1536 q-23 0 -45.5 13 q-22.5 13 -35.5 35.5 q-13 22.5 -13 45.5 q0 37 27.5 65.5 q27.5 28.5 66.5 28.5 q38 0 66 -28 q28 -28 28 -66 q0 -39 -28.5 -66.5 q-28.5 -27.5 -65.5 -27.5 Z" /><glyph glyph-name="Aring" unicode="å" d="M719 1425 l614 -1431 q-26 2 -43 3 q-17 1 -28.5 2 q-11.5 1 -34.5 1 q-20 0 -51 -2 q-31 -2 -58 -4 q-104 301 -215 553 l-520 0 q-48 -120 -80 -202 q-32 -82 -65.5 -176 q-33.5 -94 -57.5 -175 q-18 2 -30.5 3 q-12.5 1 -21 2 q-8.5 1 -24.5 1 q-17 0 -25 -1 q-8 -1 -20 -2 q-12 -1 -26 -3 l639 1431 l47 0 ZM872 633 l-227 524 l-223 -524 l450 0 ZM707 1812 q-45 0 -79 -33 q-34 -33 -34 -79 q0 -45 35 -78 q35 -33 78 -33 q44 0 77 33 q33 33 33 78 q0 44 -33 78 q-33 34 -77 34 ZM707 1518 q-74 0 -128.5 53.5 q-54.5 53.5 -54.5 126.5 q0 73 54.5 127.5 q54.5 54.5 128.5 54.5 q48 0 89.5 -25 q41.5 -25 66 -66.5 q24.5 -41.5 24.5 -90.5 q0 -49 -24.5 -90 q-24.5 -41 -66.5 -65.5 q-42 -24.5 -89 -24.5 Z" /><glyph glyph-name="AE" unicode="æ" d="M10 -6 l924 1401 l686 0 q-2 -22 -4 -37 q-2 -15 -2 -25 q0 -9 2 -25 q2 -16 4 -36 q-76 15 -184 22 l-205 4 l-117 0 l0 -518 l256 0 q31 0 92.5 5 q61.5 5 89.5 6 q-2 -18 -4 -31 q-2 -13 -2 -23 q0 -8 2 -22.5 q2 -14.5 4 -34.5 q-22 2 -48.5 3.5 q-26.5 1.5 -45.5 3 q-19 1.5 -38 2.5 q-19 1 -50 1 l-256 0 l0 -594 q135 0 361 8 q62 4 157 19 q-2 -22 -4 -37 q-2 -15 -2 -25 q0 -9 2 -25 q2 -16 4 -36 l-698 0 l0 510 l-475 0 q-28 -41 -77.5 -126.5 q-49.5 -85.5 -110.5 -198 q-61 -112.5 -97 -191.5 q-22 2 -35.5 3 q-13.5 1 -22.5 2 q-9 1 -28 1 q-19 0 -28 -1 q-9 -1 -21.5 -2 q-12.5 -1 -28.5 -3 ZM913 1237 l-407 -641 l428 0 l0 649 q-15 -3 -21 -8 Z" /><glyph glyph-name="Ccedilla" unicode="ç" d="M1262 215 l-11 -129 q-60 -41 -135.5 -67 q-75.5 -26 -154 -38 q-78.5 -12 -162.5 -12 q-165 0 -300 50.5 q-135 50.5 -228.5 147.5 q-93.5 97 -143 233 q-49.5 136 -49.5 302 q0 224 101 388 q101 164 277.5 249.5 q176.5 85.5 393.5 85.5 q70 0 147 -10.5 q77 -10.5 152.5 -32.5 q75.5 -22 140.5 -51 q-26 -66 -43 -157 l-14 -3 q-25 30 -77 70 q-52 40 -134.5 73.5 q-82.5 33.5 -179.5 33.5 q-180 0 -307.5 -88.5 q-127.5 -88.5 -191.5 -239 q-64 -150.5 -64 -326.5 q0 -192 69 -339 q69 -147 194 -226.5 q125 -79.5 285 -79.5 q102 0 191 31 q89 31 149.5 68.5 q60.5 37.5 94.5 66.5 ZM483 -180 l80 178 l62 0 l-56 -121 q28 8 60 8 q64 0 105.5 -34.5 q41.5 -34.5 41.5 -90.5 q0 -62 -51 -106 q-63 -43 -168 -43 q-80 0 -147 27 l24 55 q14 -3 50.5 -12 q36.5 -9 60.5 -9 q41 0 71.5 20 q30.5 20 30.5 56 q0 72 -94 72 q-10 0 -22.5 -3.5 q-12.5 -3.5 -18.5 -4.5 l-29 8 Z" /><glyph glyph-name="Egrave" unicode="è" d="M362 1298 l0 -514 l318 0 q19 0 55 2.5 q36 2.5 61.5 4.5 q25.5 2 65.5 4 q-2 -18 -4 -31 q-2 -13 -2 -23 q0 -6 2 -21 q2 -15 4 -36 q-40 2 -65.5 4 q-25.5 2 -61.5 4 q-36 2 -55 2 l-318 0 l0 -598 q125 0 371 8 q84 3 189 19 q-1 -8 -3 -21.5 q-2 -13.5 -2.5 -21.5 q-0.5 -8 -1.5 -19 q0 -14 2.5 -30 q2.5 -16 4.5 -31 l-740 0 l0 1395 l727 0 q-2 -22 -4 -37 q-2 -15 -2 -25 q0 -9 2 -25 q2 -16 4 -36 q-76 15 -184 22 l-205 4 l-158 0 ZM713 1503 l-66 0 l-278 174 q-9 6 -17.5 12 q-8.5 6 -16.5 13.5 q-8 7.5 -11 13.5 q-2 17 -2 49 q12 39 73 39 q17 -4 21 -8 q12 -9 31 -28 q19 -19 34 -35 l232 -230 Z" /><glyph glyph-name="Eacute" unicode="é" d="M362 1298 l0 -514 l318 0 q19 0 55 2.5 q36 2.5 61.5 4.5 q25.5 2 65.5 4 q-2 -18 -4 -31 q-2 -13 -2 -23 q0 -6 2 -21 q2 -15 4 -36 q-40 2 -65.5 4 q-25.5 2 -61.5 4 q-36 2 -55 2 l-318 0 l0 -598 q125 0 371 8 q84 3 189 19 q-1 -8 -3 -21.5 q-2 -13.5 -2.5 -21.5 q-0.5 -8 -1.5 -19 q0 -14 2.5 -30 q2.5 -16 4.5 -31 l-740 0 l0 1395 l727 0 q-2 -22 -4 -37 q-2 -15 -2 -25 q0 -9 2 -25 q2 -16 4 -36 q-76 15 -184 22 l-205 4 l-158 0 ZM772 1679 l-285 -182 l-61 0 l229 229 q40 40 45 46 q6 3 21.5 16 q15.5 13 26.5 14 q62 0 71 -39 q0 -10 -1 -27 q-1 -17 -3 -20 q-5 -11 -43 -37 Z" /><glyph glyph-name="Ecircumflex" unicode="ê" d="M362 1298 l0 -514 l318 0 q19 0 55 2.5 q36 2.5 61.5 4.5 q25.5 2 65.5 4 q-2 -18 -4 -31 q-2 -13 -2 -23 q0 -6 2 -21 q2 -15 4 -36 q-40 2 -65.5 4 q-25.5 2 -61.5 4 q-36 2 -55 2 l-318 0 l0 -598 q125 0 371 8 q84 3 189 19 q-1 -8 -3 -21.5 q-2 -13.5 -2.5 -21.5 q-0.5 -8 -1.5 -19 q0 -14 2.5 -30 q2.5 -16 4.5 -31 l-740 0 l0 1395 l727 0 q-2 -22 -4 -37 q-2 -15 -2 -25 q0 -9 2 -25 q2 -16 4 -36 q-76 15 -184 22 l-205 4 l-158 0 ZM322 1491 l-62 0 l225 293 l101 0 l225 -293 l-59 0 l-215 186 l-215 -186 Z" /><glyph glyph-name="Edieresis" unicode="ë" d="M362 1298 l0 -514 l318 0 q19 0 55 2.5 q36 2.5 61.5 4.5 q25.5 2 65.5 4 q-2 -18 -4 -31 q-2 -13 -2 -23 q0 -6 2 -21 q2 -15 4 -36 q-40 2 -65.5 4 q-25.5 2 -61.5 4 q-36 2 -55 2 l-318 0 l0 -598 q125 0 371 8 q84 3 189 19 q-1 -8 -3 -21.5 q-2 -13.5 -2.5 -21.5 q-0.5 -8 -1.5 -19 q0 -14 2.5 -30 q2.5 -16 4.5 -31 l-740 0 l0 1395 l727 0 q-2 -22 -4 -37 q-2 -15 -2 -25 q0 -9 2 -25 q2 -16 4 -36 q-76 15 -184 22 l-205 4 l-158 0 ZM721 1501 q-23 0 -45.5 13 q-22.5 13 -35.5 35.5 q-13 22.5 -13 45.5 q0 24 13 46.5 q13 22.5 35 35.5 q22 13 46 13 q24 0 46 -13 q22 -13 35 -35.5 q13 -22.5 13 -46.5 q0 -23 -13 -45.5 q-13 -22.5 -35.5 -35.5 q-22.5 -13 -45.5 -13 ZM352 1501 q-23 0 -45.5 13 q-22.5 13 -35.5 35.5 q-13 22.5 -13 45.5 q0 24 13 46.5 q13 22.5 35 35.5 q22 13 46 13 q38 0 66 -28 q28 -28 28 -67 q0 -39 -28.5 -66.5 q-28.5 -27.5 -65.5 -27.5 Z" /><glyph glyph-name="Igrave" unicode="ì" d="M195 -6 l0 1401 q30 -2 52 -4 q22 -2 38 -2 q13 0 35.5 2 q22.5 2 54.5 4 l0 -1401 q-22 2 -37 3 q-15 1 -24.5 2 q-9.5 1 -28.5 1 q-21 0 -31 -1 q-10 -1 -25.5 -2 q-15.5 -1 -33.5 -3 ZM498 1524 l-66 0 l-278 174 q-39 27 -45 39 q-3 16 -3 49 q15 39 74 39 q17 -4 21 -8 q16 -13 65 -64 l232 -229 Z" /><glyph glyph-name="Iacute" unicode="í" d="M195 -6 l0 1401 q30 -2 52 -4 q22 -2 38 -2 q13 0 35.5 2 q22.5 2 54.5 4 l0 -1401 q-22 2 -37 3 q-15 1 -24.5 2 q-9.5 1 -28.5 1 q-21 0 -31 -1 q-10 -1 -25.5 -2 q-15.5 -1 -33.5 -3 ZM506 1690 l-285 -183 l-61 0 l229 230 q35 33 45 45 q6 3 22 16 q16 13 25 14 q62 0 72 -38 q0 -10 -1 -27 q-1 -17 -3 -21 q-4 -8 -10 -14 q-6 -6 -12.5 -9.5 q-6.5 -3.5 -20.5 -12.5 Z" /><glyph glyph-name="Icircumflex" unicode="î" d="M195 -6 l0 1401 q30 -2 52 -4 q22 -2 38 -2 q13 0 35.5 2 q22.5 2 54.5 4 l0 -1401 q-22 2 -37 3 q-15 1 -24.5 2 q-9.5 1 -28.5 1 q-21 0 -31 -1 q-10 -1 -25.5 -2 q-15.5 -1 -33.5 -3 ZM90 1532 l-61 0 l225 293 l100 0 l226 -293 l-60 0 l-215 186 l-215 -186 Z" /><glyph glyph-name="Idieresis" unicode="ï" d="M195 -6 l0 1401 q30 -2 52 -4 q22 -2 38 -2 q13 0 35.5 2 q22.5 2 54.5 4 l0 -1401 q-22 2 -37 3 q-15 1 -24.5 2 q-9.5 1 -28.5 1 q-21 0 -31 -1 q-10 -1 -25.5 -2 q-15.5 -1 -33.5 -3 ZM471 1538 q-23 0 -45.5 13 q-22.5 13 -35.5 35.5 q-13 22.5 -13 45.5 q0 37 27.5 65.5 q27.5 28.5 66.5 28.5 q39 0 66.5 -28.5 q27.5 -28.5 27.5 -65.5 q0 -23 -13 -45.5 q-13 -22.5 -35.5 -35.5 q-22.5 -13 -45.5 -13 ZM102 1538 q-23 0 -45.5 13 q-22.5 13 -35.5 35.5 q-13 22.5 -13 45.5 q0 37 27.5 65.5 q27.5 28.5 66.5 28.5 q39 0 67 -28 q28 -28 28 -66 q0 -24 -13 -46 q-13 -22 -35.5 -35 q-22.5 -13 -46.5 -13 Z" /><glyph glyph-name="Eth" unicode="ð" d="M266 791 l0 604 l404 0 l141 0 q147 0 253 -24 q106 -24 198 -99 q109 -89 164 -223.5 q55 -134.5 55 -288.5 q0 -136 -31.5 -248 q-31.5 -112 -89 -198.5 q-57.5 -86.5 -137.5 -157.5 q-61 -54 -135.5 -86.5 q-74.5 -32.5 -150 -47 q-75.5 -14.5 -149.5 -18.5 q-74 -4 -184 -4 l-338 0 l0 700 l-164 0 l0 91 l164 0 ZM446 1313 l0 -522 l312 0 l0 -91 l-312 0 l0 -608 q39 -3 118.5 -6.5 q79.5 -3.5 133.5 -3.5 q176 4 287 59 q156 79 225.5 231 q69.5 152 69.5 357 q0 214 -60.5 345 q-60.5 131 -186.5 189 q-126 58 -328 58 q-62 0 -138 -3.5 q-76 -3.5 -121 -4.5 Z" /><glyph glyph-name="Ntilde" unicode="ñ" d="M1393 1395 l0 -1401 l-62 0 q-41 54 -106 125 l-885 979 l-21 0 l0 -1104 q-14 2 -30.5 4 q-16.5 2 -26.5 2 q-13 0 -19.5 -1 q-6.5 -1 -16 -2 q-9.5 -1 -21.5 -3 l0 1401 l80 0 l972 -1055 l21 0 l0 1055 q18 -2 32 -4 q14 -2 25 -2 q10 0 24 2 q14 2 34 4 ZM580 1524 l-41 0 q15 77 67.5 128.5 q52.5 51.5 122.5 51.5 q21 0 45 -6 q28 -9 88 -39 q53 -25 64 -29 q28 -8 45 -8 q45 0 67 31 q13 12 33 57 l53 0 q-18 -79 -68 -132.5 q-50 -53.5 -126 -53.5 q-25 0 -46 5 q-21 5 -39 13 q-18 8 -48 23 q-23 11 -41 19.5 q-18 8.5 -39.5 15 q-21.5 6.5 -38.5 6.5 q-24 0 -39 -9 q-39 -14 -59 -73 Z" /><glyph glyph-name="Ograve" unicode="ò" d="M1419 709 q0 97 -10.5 170 q-10.5 73 -39.5 145 q-29 72 -79 135 q-50 63 -118 108 q-68 45 -148 68 q-80 23 -160 23 q-133 0 -240.5 -48.5 q-107.5 -48.5 -183 -140 q-75.5 -91.5 -114.5 -219.5 q-39 -128 -39 -280 q0 -151 42.5 -268.5 q42.5 -117.5 120 -200 q77.5 -82.5 180.5 -123.5 q103 -41 216 -41 q146 0 256 63.5 q110 63.5 179.5 165 q69.5 101.5 103.5 220.5 q34 119 34 223 ZM840 -31 q-168 0 -308 51.5 q-140 51.5 -240 148 q-100 96.5 -153 230.5 q-53 134 -53 295 q0 164 58 301 q58 137 162 233 q104 96 240.5 146.5 q136.5 50.5 297.5 50.5 q149 0 288.5 -41.5 q139.5 -41.5 249 -127.5 q109.5 -86 174 -219.5 q64.5 -133.5 64.5 -311.5 q0 -223 -99 -395.5 q-99 -172.5 -277.5 -266.5 q-178.5 -94 -403.5 -94 ZM1075 1534 l-65 0 l-279 174 q-12 9 -25 18 q-13 9 -20 21 q-2 16 -2 49 q12 39 74 39 q16 -4 20 -8 q16 -11 36 -32 q20 -21 30 -32 l231 -229 Z" /><glyph glyph-name="Oacute" unicode="ó" d="M1419 709 q0 97 -10.5 170 q-10.5 73 -39.5 145 q-29 72 -79 135 q-50 63 -118 108 q-68 45 -148 68 q-80 23 -160 23 q-133 0 -240.5 -48.5 q-107.5 -48.5 -183 -140 q-75.5 -91.5 -114.5 -219.5 q-39 -128 -39 -280 q0 -151 42.5 -268.5 q42.5 -117.5 120 -200 q77.5 -82.5 180.5 -123.5 q103 -41 216 -41 q146 0 256 63.5 q110 63.5 179.5 165 q69.5 101.5 103.5 220.5 q34 119 34 223 ZM840 -31 q-168 0 -308 51.5 q-140 51.5 -240 148 q-100 96.5 -153 230.5 q-53 134 -53 295 q0 164 58 301 q58 137 162 233 q104 96 240.5 146.5 q136.5 50.5 297.5 50.5 q149 0 288.5 -41.5 q139.5 -41.5 249 -127.5 q109.5 -86 174 -219.5 q64.5 -133.5 64.5 -311.5 q0 -223 -99 -395.5 q-99 -172.5 -277.5 -266.5 q-178.5 -94 -403.5 -94 ZM1094 1710 l-285 -182 l-61 0 l229 229 q16 16 25.5 24.5 q9.5 8.5 19.5 20.5 q10 8 16.5 13.5 q6.5 5.5 14 11 q7.5 5.5 16.5 6.5 q63 0 72 -39 q0 -10 -1 -27 q-1 -17 -3 -20 q-7 -15 -43 -37 Z" /><glyph glyph-name="Ocircumflex" unicode="ô" d="M1419 709 q0 97 -10.5 170 q-10.5 73 -39.5 145 q-29 72 -79 135 q-50 63 -118 108 q-68 45 -148 68 q-80 23 -160 23 q-133 0 -240.5 -48.5 q-107.5 -48.5 -183 -140 q-75.5 -91.5 -114.5 -219.5 q-39 -128 -39 -280 q0 -151 42.5 -268.5 q42.5 -117.5 120 -200 q77.5 -82.5 180.5 -123.5 q103 -41 216 -41 q146 0 256 63.5 q110 63.5 179.5 165 q69.5 101.5 103.5 220.5 q34 119 34 223 ZM840 -31 q-168 0 -308 51.5 q-140 51.5 -240 148 q-100 96.5 -153 230.5 q-53 134 -53 295 q0 164 58 301 q58 137 162 233 q104 96 240.5 146.5 q136.5 50.5 297.5 50.5 q149 0 288.5 -41.5 q139.5 -41.5 249 -127.5 q109.5 -86 174 -219.5 q64.5 -133.5 64.5 -311.5 q0 -223 -99 -395.5 q-99 -172.5 -277.5 -266.5 q-178.5 -94 -403.5 -94 ZM635 1495 l-62 0 l226 293 l100 0 l225 -293 l-59 0 l-215 186 l-215 -186 Z" /><glyph glyph-name="Otilde" unicode="õ" d="M1419 709 q0 97 -10.5 170 q-10.5 73 -39.5 145 q-29 72 -79 135 q-50 63 -118 108 q-68 45 -148 68 q-80 23 -160 23 q-133 0 -240.5 -48.5 q-107.5 -48.5 -183 -140 q-75.5 -91.5 -114.5 -219.5 q-39 -128 -39 -280 q0 -151 42.5 -268.5 q42.5 -117.5 120 -200 q77.5 -82.5 180.5 -123.5 q103 -41 216 -41 q146 0 256 63.5 q110 63.5 179.5 165 q69.5 101.5 103.5 220.5 q34 119 34 223 ZM840 -31 q-168 0 -308 51.5 q-140 51.5 -240 148 q-100 96.5 -153 230.5 q-53 134 -53 295 q0 164 58 301 q58 137 162 233 q104 96 240.5 146.5 q136.5 50.5 297.5 50.5 q149 0 288.5 -41.5 q139.5 -41.5 249 -127.5 q109.5 -86 174 -219.5 q64.5 -133.5 64.5 -311.5 q0 -223 -99 -395.5 q-99 -172.5 -277.5 -266.5 q-178.5 -94 -403.5 -94 ZM600 1528 l-41 0 q17 78 68.5 129 q51.5 51 122.5 51 q19 0 45 -6 q23 -8 88 -39 q45 -22 63 -29 q30 -8 45 -8 q45 0 68 31 q9 9 33 57 l53 0 q-18 -76 -68 -131 q-50 -55 -127 -55 q-25 0 -46.5 5.5 q-21.5 5.5 -39 13 q-17.5 7.5 -47.5 22.5 q-23 11 -41 19.5 q-18 8.5 -39.5 15 q-21.5 6.5 -38.5 6.5 q-22 0 -39 -8 q-40 -16 -59 -74 Z" /><glyph glyph-name="Odieresis" unicode="ö" d="M1419 709 q0 97 -10.5 170 q-10.5 73 -39.5 145 q-29 72 -79 135 q-50 63 -118 108 q-68 45 -148 68 q-80 23 -160 23 q-133 0 -240.5 -48.5 q-107.5 -48.5 -183 -140 q-75.5 -91.5 -114.5 -219.5 q-39 -128 -39 -280 q0 -151 42.5 -268.5 q42.5 -117.5 120 -200 q77.5 -82.5 180.5 -123.5 q103 -41 216 -41 q146 0 256 63.5 q110 63.5 179.5 165 q69.5 101.5 103.5 220.5 q34 119 34 223 ZM840 -31 q-168 0 -308 51.5 q-140 51.5 -240 148 q-100 96.5 -153 230.5 q-53 134 -53 295 q0 164 58 301 q58 137 162 233 q104 96 240.5 146.5 q136.5 50.5 297.5 50.5 q149 0 288.5 -41.5 q139.5 -41.5 249 -127.5 q109.5 -86 174 -219.5 q64.5 -133.5 64.5 -311.5 q0 -223 -99 -395.5 q-99 -172.5 -277.5 -266.5 q-178.5 -94 -403.5 -94 ZM1044 1505 q-23 0 -45.5 13 q-22.5 13 -35.5 35.5 q-13 22.5 -13 45.5 q0 24 13 46.5 q13 22.5 35 35.5 q22 13 46 13 q25 0 46.5 -12.5 q21.5 -12.5 35 -35.5 q13.5 -23 13.5 -47 q0 -23 -13 -45.5 q-13 -22.5 -35.5 -35.5 q-22.5 -13 -46.5 -13 ZM676 1505 q-23 0 -45.5 13 q-22.5 13 -35.5 35.5 q-13 22.5 -13 45.5 q0 24 13 46.5 q13 22.5 35 35.5 q22 13 46 13 q38 0 66 -28 q28 -28 28 -67 q0 -39 -28.5 -66.5 q-28.5 -27.5 -65.5 -27.5 Z" /><glyph glyph-name="multiply" unicode="×" d="M524 516 l-420 422 l93 94 l421 -424 l422 424 l97 -92 l-426 -424 l426 -426 l-97 -90 l-422 424 l-421 -424 l-93 92 l420 424 Z" /><glyph glyph-name="Oslash" unicode="ø" d="M1298 1143 l-854 -936 q80 -85 182 -127.5 q102 -42.5 220 -42.5 q154 0 266.5 67.5 q112.5 67.5 179.5 172.5 q67 105 97 217.5 q30 112.5 30 212.5 q0 71 -4.5 123.5 q-4.5 52.5 -17.5 106 q-13 53.5 -38 108 q-25 54.5 -61 98.5 ZM408 254 l854 938 q-74 81 -179 123.5 q-105 42.5 -219 42.5 q-148 0 -257.5 -55 q-109.5 -55 -181 -152.5 q-71.5 -97.5 -105 -219 q-33.5 -121.5 -33.5 -259.5 q0 -83 11.5 -156 q11.5 -73 37 -137.5 q25.5 -64.5 72.5 -124.5 ZM156 -29 l161 176 q-111 94 -171 233.5 q-60 139.5 -60 311.5 q0 208 100.5 376 q100.5 168 274 262.5 q173.5 94.5 383.5 94.5 q319 0 499 -151 q83 89 179 213 q4 -9 12 -17 q8 -8 22 -18 q14 -10 23 -16 q-42 -44 -68 -71 q-26 -27 -52 -54.5 q-26 -27.5 -68 -71.5 q114 -93 171.5 -222.5 q57.5 -129.5 57.5 -293.5 q0 -223 -99 -394.5 q-99 -171.5 -277.5 -265.5 q-178.5 -94 -403.5 -94 q-284 0 -478 142 q-148 -174 -180 -215 q-25 36 -55 47 l29 28 Z" /><glyph glyph-name="Ugrave" unicode="ù" d="M373 1395 l0 -785 q0 -137 22.5 -239 q22.5 -102 74.5 -171 q52 -69 139.5 -103 q87.5 -34 215.5 -34 q233 0 338 150.5 q105 150.5 105 417.5 l0 764 q18 -2 32 -4 q14 -2 25 -2 q8 0 22.5 2 q14.5 2 34.5 4 l0 -815 q0 -198 -73 -335.5 q-73 -137.5 -208.5 -206.5 q-135.5 -69 -316.5 -69 q-102 0 -182 16 q-80 16 -144 47.5 q-64 31.5 -118 80.5 q-88 79 -116.5 195 q-28.5 116 -30.5 267 l0 820 q30 -2 52 -4 q22 -2 38 -2 q13 0 35.5 2 q22.5 2 54.5 4 ZM979 1524 l-66 0 l-278 174 q-39 27 -45 39 q-2 16 -2 49 q13 39 74 39 q16 -4 20 -8 q16 -11 36 -32 q20 -21 30 -32 l231 -229 Z" /><glyph glyph-name="Uacute" unicode="ú" d="M373 1395 l0 -785 q0 -137 22.5 -239 q22.5 -102 74.5 -171 q52 -69 139.5 -103 q87.5 -34 215.5 -34 q233 0 338 150.5 q105 150.5 105 417.5 l0 764 q18 -2 32 -4 q14 -2 25 -2 q8 0 22.5 2 q14.5 2 34.5 4 l0 -815 q0 -198 -73 -335.5 q-73 -137.5 -208.5 -206.5 q-135.5 -69 -316.5 -69 q-102 0 -182 16 q-80 16 -144 47.5 q-64 31.5 -118 80.5 q-88 79 -116.5 195 q-28.5 116 -30.5 267 l0 820 q30 -2 52 -4 q22 -2 38 -2 q13 0 35.5 2 q22.5 2 54.5 4 ZM1090 1690 l-285 -183 l-62 0 l230 230 q12 11 21.5 20 q9.5 9 23.5 25 q10 8 17.5 14 q7.5 6 14.5 10.5 q7 4.5 15 5.5 q61 0 72 -38 q0 -10 -1 -27 q-1 -17 -3 -21 q-4 -9 -11 -15 q-7 -6 -12.5 -9 q-5.5 -3 -19.5 -12 Z" /><glyph glyph-name="Ucircumflex" unicode="û" d="M373 1395 l0 -785 q0 -137 22.5 -239 q22.5 -102 74.5 -171 q52 -69 139.5 -103 q87.5 -34 215.5 -34 q233 0 338 150.5 q105 150.5 105 417.5 l0 764 q18 -2 32 -4 q14 -2 25 -2 q8 0 22.5 2 q14.5 2 34.5 4 l0 -815 q0 -198 -73 -335.5 q-73 -137.5 -208.5 -206.5 q-135.5 -69 -316.5 -69 q-102 0 -182 16 q-80 16 -144 47.5 q-64 31.5 -118 80.5 q-88 79 -116.5 195 q-28.5 116 -30.5 267 l0 820 q30 -2 52 -4 q22 -2 38 -2 q13 0 35.5 2 q22.5 2 54.5 4 ZM586 1516 l-62 0 l226 292 l100 0 l225 -292 l-59 0 l-215 186 l-215 -186 Z" /><glyph glyph-name="Udieresis" unicode="ü" d="M373 1395 l0 -785 q0 -137 22.5 -239 q22.5 -102 74.5 -171 q52 -69 139.5 -103 q87.5 -34 215.5 -34 q233 0 338 150.5 q105 150.5 105 417.5 l0 764 q18 -2 32 -4 q14 -2 25 -2 q8 0 22.5 2 q14.5 2 34.5 4 l0 -815 q0 -198 -73 -335.5 q-73 -137.5 -208.5 -206.5 q-135.5 -69 -316.5 -69 q-102 0 -182 16 q-80 16 -144 47.5 q-64 31.5 -118 80.5 q-88 79 -116.5 195 q-28.5 116 -30.5 267 l0 820 q30 -2 52 -4 q22 -2 38 -2 q13 0 35.5 2 q22.5 2 54.5 4 ZM1008 1491 q-24 0 -46.5 13 q-22.5 13 -35.5 35.5 q-13 22.5 -13 45.5 q0 37 27.5 65.5 q27.5 28.5 67.5 28.5 q39 0 66.5 -28.5 q27.5 -28.5 27.5 -65.5 q0 -23 -13 -45.5 q-13 -22.5 -35.5 -35.5 q-22.5 -13 -45.5 -13 ZM639 1491 q-23 0 -45.5 13 q-22.5 13 -35.5 35.5 q-13 22.5 -13 45.5 q0 37 27.5 65.5 q27.5 28.5 66.5 28.5 q38 0 66 -28 q28 -28 28 -66 q0 -39 -28.5 -66.5 q-28.5 -27.5 -65.5 -27.5 Z" /><glyph glyph-name="Yacute" unicode="ý" d="M723 623 l0 -629 q-22 2 -36.5 3 q-14.5 1 -24.5 2 q-10 1 -29 1 q-21 0 -31 -1 q-10 -1 -25.5 -2 q-15.5 -1 -33.5 -3 l0 590 l-502 811 q38 -2 66.5 -4 q28.5 -2 48.5 -2 q17 0 44.5 2 q27.5 2 67.5 4 q57 -110 123 -228.5 q66 -118.5 151 -265.5 q85 -147 115 -192 q24 27 74.5 112.5 q50.5 85.5 118.5 208 q68 122.5 113.5 207 q45.5 84.5 85.5 158.5 q26 -2 45.5 -4 q19.5 -2 33.5 -2 q13 0 32.5 2 q19.5 2 47.5 4 q-79 -102 -145 -205 l-225 -363 q-65 -98 -115 -204 ZM887 1700 l-285 -182 l-61 0 l229 229 q12 11 25 24 q13 13 20 21 q10 8 16.5 13.5 q6.5 5.5 14 11 q7.5 5.5 16.5 6.5 q62 0 72 -39 q0 -10 -1 -27 q-1 -17 -3 -20 q-3 -6 -8 -12 q-5 -6 -13 -11 q-8 -5 -22 -14 Z" /><glyph glyph-name="Thorn" unicode="þ" d="M342 473 l0 -479 q-22 2 -36.5 3 q-14.5 1 -24.5 2 q-10 1 -29 1 q-21 0 -31 -1 q-10 -1 -25.5 -2 q-15.5 -1 -33.5 -3 l0 1401 q30 -2 52 -4 q22 -2 38 -2 q15 0 36.5 2 q21.5 2 53.5 4 l0 -285 l227 0 q182 0 287.5 -24.5 q105.5 -24.5 153 -85.5 q47.5 -61 47.5 -173 q0 -79 -27 -136 q-27 -57 -83 -98.5 q-56 -41.5 -139 -69.5 q-83 -28 -190 -46 q-48 -8 -122 -8 q-37 0 -90 2 q-53 2 -64 2 ZM342 1044 l0 -501 q54 -4 94 -4 q39 0 109 4 q100 7 173.5 44 q73.5 37 111.5 97 q38 60 38 137 q0 94 -57 153 q-57 59 -174 68 q-43 5 -158 5 q-106 0 -137 -3 Z" /><glyph glyph-name="germandbls" unicode="ß" d="M309 987 l0 -993 q-20 2 -33.5 3 q-13.5 1 -22 2 q-8.5 1 -26.5 1 q-15 0 -38 -2 q-23 -2 -44 -4 l0 991 q0 138 26 240.5 q26 102.5 77.5 171 q51.5 68.5 126.5 102 q75 33.5 174 33.5 q60 0 118 -19 q58 -19 99.5 -51 q41.5 -32 65.5 -76 q24 -44 24 -92 q0 -67 -31.5 -121 q-31.5 -54 -93 -119 q-61.5 -65 -88.5 -101.5 q-27 -36.5 -27 -82.5 q0 -60 45 -98.5 q45 -38.5 156.5 -110.5 q111.5 -72 169 -139 q57.5 -67 57.5 -162 q0 -104 -64 -192.5 q-64 -88.5 -160 -139.5 q-96 -51 -181 -51 q-100 0 -197 50 q9 21 47 118 q35 -42 88.5 -65 q53.5 -23 114.5 -23 q90 0 153.5 62.5 q63.5 62.5 63.5 152.5 q0 91 -56 149 q-56 58 -164 123.5 q-108 65.5 -161 116.5 q-53 51 -53 132 q0 61 32 108 q32 47 99 116 q67 69 102 126.5 q35 57.5 35 130.5 q0 59 -25.5 102.5 q-25.5 43.5 -71.5 68.5 q-46 25 -103 25 q-100 0 -152 -63 q-52 -63 -67 -164 q-15 -101 -15 -256 Z" /><glyph glyph-name="agrave" unicode="à" d="M846 641 l0 -475 q0 -40 2.5 -59.5 q2.5 -19.5 14.5 -31.5 q12 -12 38 -12 q22 0 60 9 l0 -45 q-35 -16 -62 -21 q-33 -6 -65 -6 q-61 2 -99.5 30.5 q-38.5 28.5 -46.5 94.5 l-18 -19 q-129 -129 -303 -129 q-112 0 -192.5 70 q-80.5 70 -80.5 180 q0 108 51.5 168 q51.5 60 126.5 83.5 q75 23.5 201 43.5 q96 16 137 28 q41 12 60.5 36 q19.5 24 19.5 73 q0 115 -62.5 177.5 q-62.5 62.5 -176.5 62.5 q-67 0 -120 -24 q-53 -24 -84 -56.5 q-31 -32.5 -40 -60.5 l-23 0 l0 114 q165 113 330 113 q163 0 247.5 -86 q84.5 -86 84.5 -258 ZM682 205 l0 299 l-72 -15 q-68 -12 -125 -24.5 q-57 -12.5 -107 -34.5 q-50 -22 -83 -65 q-33 -43 -33 -109 q0 -96 52.5 -144.5 q52.5 -48.5 148.5 -48.5 q38 0 86 24 q48 24 78 54 q10 10 22 21 q12 11 22.5 24.5 q10.5 13.5 10.5 18.5 ZM709 1094 l-66 0 l-278 174 q-12 9 -25 17.5 q-13 8.5 -21 21.5 q-2 16 -2 49 q15 39 74 39 q17 -4 21 -9 q12 -9 31 -28 q19 -19 34 -35 l232 -229 Z" /><glyph glyph-name="aacute" unicode="á" d="M846 641 l0 -475 q0 -40 2.5 -59.5 q2.5 -19.5 14.5 -31.5 q12 -12 38 -12 q22 0 60 9 l0 -45 q-35 -16 -62 -21 q-33 -6 -65 -6 q-61 2 -99.5 30.5 q-38.5 28.5 -46.5 94.5 l-18 -19 q-129 -129 -303 -129 q-112 0 -192.5 70 q-80.5 70 -80.5 180 q0 108 51.5 168 q51.5 60 126.5 83.5 q75 23.5 201 43.5 q96 16 137 28 q41 12 60.5 36 q19.5 24 19.5 73 q0 115 -62.5 177.5 q-62.5 62.5 -176.5 62.5 q-67 0 -120 -24 q-53 -24 -84 -56.5 q-31 -32.5 -40 -60.5 l-23 0 l0 114 q165 113 330 113 q163 0 247.5 -86 q84.5 -86 84.5 -258 ZM682 205 l0 299 l-72 -15 q-68 -12 -125 -24.5 q-57 -12.5 -107 -34.5 q-50 -22 -83 -65 q-33 -43 -33 -109 q0 -96 52.5 -144.5 q52.5 -48.5 148.5 -48.5 q38 0 86 24 q48 24 78 54 q10 10 22 21 q12 11 22.5 24.5 q10.5 13.5 10.5 18.5 ZM696 1270 l-284 -183 l-62 0 l230 230 q12 11 23 22.5 q11 11.5 22 22.5 q4 2 19.5 16 q15.5 14 27.5 15 q61 0 71 -39 q0 -10 -1 -27 q-1 -17 -3 -20 q-7 -16 -43 -37 Z" /><glyph glyph-name="acircumflex" unicode="â" d="M846 641 l0 -475 q0 -40 2.5 -59.5 q2.5 -19.5 14.5 -31.5 q12 -12 38 -12 q22 0 60 9 l0 -45 q-35 -16 -62 -21 q-33 -6 -65 -6 q-61 2 -99.5 30.5 q-38.5 28.5 -46.5 94.5 l-18 -19 q-129 -129 -303 -129 q-112 0 -192.5 70 q-80.5 70 -80.5 180 q0 108 51.5 168 q51.5 60 126.5 83.5 q75 23.5 201 43.5 q96 16 137 28 q41 12 60.5 36 q19.5 24 19.5 73 q0 115 -62.5 177.5 q-62.5 62.5 -176.5 62.5 q-67 0 -120 -24 q-53 -24 -84 -56.5 q-31 -32.5 -40 -60.5 l-23 0 l0 114 q165 113 330 113 q163 0 247.5 -86 q84.5 -86 84.5 -258 ZM682 205 l0 299 l-72 -15 q-68 -12 -125 -24.5 q-57 -12.5 -107 -34.5 q-50 -22 -83 -65 q-33 -43 -33 -109 q0 -96 52.5 -144.5 q52.5 -48.5 148.5 -48.5 q38 0 86 24 q48 24 78 54 q10 10 22 21 q12 11 22.5 24.5 q10.5 13.5 10.5 18.5 ZM293 1067 l-62 0 l226 293 l100 0 l225 -293 l-59 0 l-215 186 l-215 -186 Z" /><glyph glyph-name="atilde" unicode="ã" d="M846 641 l0 -475 q0 -40 2.5 -59.5 q2.5 -19.5 14.5 -31.5 q12 -12 38 -12 q22 0 60 9 l0 -45 q-35 -16 -62 -21 q-33 -6 -65 -6 q-61 2 -99.5 30.5 q-38.5 28.5 -46.5 94.5 l-18 -19 q-129 -129 -303 -129 q-112 0 -192.5 70 q-80.5 70 -80.5 180 q0 108 51.5 168 q51.5 60 126.5 83.5 q75 23.5 201 43.5 q96 16 137 28 q41 12 60.5 36 q19.5 24 19.5 73 q0 115 -62.5 177.5 q-62.5 62.5 -176.5 62.5 q-67 0 -120 -24 q-53 -24 -84 -56.5 q-31 -32.5 -40 -60.5 l-23 0 l0 114 q165 113 330 113 q163 0 247.5 -86 q84.5 -86 84.5 -258 ZM682 205 l0 299 l-72 -15 q-68 -12 -125 -24.5 q-57 -12.5 -107 -34.5 q-50 -22 -83 -65 q-33 -43 -33 -109 q0 -96 52.5 -144.5 q52.5 -48.5 148.5 -48.5 q38 0 86 24 q48 24 78 54 q10 10 22 21 q12 11 22.5 24.5 q10.5 13.5 10.5 18.5 ZM274 1087 l-41 0 q17 80 68.5 130.5 q51.5 50.5 122.5 50.5 q21 0 45 -6 q27 -10 88 -39 q38 -20 64 -29 q28 -8 45 -8 q45 0 67 31 q15 14 33 57 l53 0 q-19 -80 -68.5 -133.5 q-49.5 -53.5 -125.5 -53.5 q-27 0 -47.5 5.5 q-20.5 5.5 -42 15.5 q-21.5 10 -43.5 20 q-38 19 -65.5 30 q-27.5 11 -53.5 11 q-23 0 -39 -8 q-39 -14 -60 -74 Z" /><glyph glyph-name="adieresis" unicode="ä" d="M846 641 l0 -475 q0 -40 2.5 -59.5 q2.5 -19.5 14.5 -31.5 q12 -12 38 -12 q22 0 60 9 l0 -45 q-35 -16 -62 -21 q-33 -6 -65 -6 q-61 2 -99.5 30.5 q-38.5 28.5 -46.5 94.5 l-18 -19 q-129 -129 -303 -129 q-112 0 -192.5 70 q-80.5 70 -80.5 180 q0 108 51.5 168 q51.5 60 126.5 83.5 q75 23.5 201 43.5 q96 16 137 28 q41 12 60.5 36 q19.5 24 19.5 73 q0 115 -62.5 177.5 q-62.5 62.5 -176.5 62.5 q-67 0 -120 -24 q-53 -24 -84 -56.5 q-31 -32.5 -40 -60.5 l-23 0 l0 114 q165 113 330 113 q163 0 247.5 -86 q84.5 -86 84.5 -258 ZM682 205 l0 299 l-72 -15 q-68 -12 -125 -24.5 q-57 -12.5 -107 -34.5 q-50 -22 -83 -65 q-33 -43 -33 -109 q0 -96 52.5 -144.5 q52.5 -48.5 148.5 -48.5 q38 0 86 24 q48 24 78 54 q10 10 22 21 q12 11 22.5 24.5 q10.5 13.5 10.5 18.5 ZM713 1077 q-37 0 -66 29 q-29 29 -29 65 q0 24 13 46.5 q13 22.5 35.5 35.5 q22.5 13 46.5 13 q24 0 46 -13 q22 -13 35 -35.5 q13 -22.5 13 -46.5 q0 -23 -13 -45.5 q-13 -22.5 -35.5 -35.5 q-22.5 -13 -45.5 -13 ZM344 1077 q-23 0 -45.5 13 q-22.5 13 -35.5 35.5 q-13 22.5 -13 45.5 q0 24 13 46.5 q13 22.5 35 35.5 q22 13 46 13 q38 0 66 -28 q28 -28 28 -67 q0 -39 -28.5 -66.5 q-28.5 -27.5 -65.5 -27.5 Z" /><glyph glyph-name="aring" unicode="å" d="M846 641 l0 -475 q0 -40 2.5 -59.5 q2.5 -19.5 14.5 -31.5 q12 -12 38 -12 q22 0 60 9 l0 -45 q-35 -16 -62 -21 q-33 -6 -65 -6 q-61 2 -99.5 30.5 q-38.5 28.5 -46.5 94.5 l-18 -19 q-129 -129 -303 -129 q-112 0 -192.5 70 q-80.5 70 -80.5 180 q0 108 51.5 168 q51.5 60 126.5 83.5 q75 23.5 201 43.5 q96 16 137 28 q41 12 60.5 36 q19.5 24 19.5 73 q0 115 -62.5 177.5 q-62.5 62.5 -176.5 62.5 q-67 0 -120 -24 q-53 -24 -84 -56.5 q-31 -32.5 -40 -60.5 l-23 0 l0 114 q165 113 330 113 q163 0 247.5 -86 q84.5 -86 84.5 -258 ZM682 205 l0 299 l-72 -15 q-68 -12 -125 -24.5 q-57 -12.5 -107 -34.5 q-50 -22 -83 -65 q-33 -43 -33 -109 q0 -96 52.5 -144.5 q52.5 -48.5 148.5 -48.5 q38 0 86 24 q48 24 78 54 q10 10 22 21 q12 11 22.5 24.5 q10.5 13.5 10.5 18.5 ZM539 1384 q-45 0 -79 -33 q-34 -33 -34 -79 q0 -45 35 -78 q35 -33 78 -33 q44 0 77 33 q33 33 33 78 q0 44 -33 78 q-33 34 -77 34 ZM539 1090 q-74 0 -128.5 53.5 q-54.5 53.5 -54.5 126.5 q0 73 54.5 127.5 q54.5 54.5 128.5 54.5 q48 0 89.5 -25 q41.5 -25 66 -66.5 q24.5 -41.5 24.5 -90.5 q0 -49 -24.5 -90 q-24.5 -41 -66.5 -65.5 q-42 -24.5 -89 -24.5 Z" /><glyph glyph-name="ae" unicode="æ" d="M825 565 l535 0 q2 15 2 47 q0 76 -30 148 q-30 72 -88.5 117 q-58.5 45 -137.5 45 q-88 0 -148.5 -50.5 q-60.5 -50.5 -93.5 -132.5 q-33 -82 -39 -174 ZM1481 195 l-15 -105 q-15 -9 -63.5 -39 q-48.5 -30 -116 -52 q-67.5 -22 -147.5 -22 q-139 0 -253 58 q-114 58 -175 180 q-29 -75 -81 -129 q-52 -54 -118.5 -81.5 q-66.5 -27.5 -140.5 -27.5 q-139 0 -222 66.5 q-83 66.5 -83 183.5 q0 110 53 168 q53 58 123 78.5 q70 20.5 184 38.5 q89 13 141.5 27 q52.5 14 96.5 51 q4 26 4 84 q0 48 -15.5 89.5 q-15.5 41.5 -43.5 71 q-28 29.5 -72 47 q-44 17.5 -103 17.5 q-75 0 -131 -29 q-56 -29 -87.5 -63 q-31.5 -34 -37.5 -51 l-18 0 l0 110 q37 37 118.5 78 q81.5 41 204.5 41 q123 0 199.5 -50.5 q76.5 -50.5 110.5 -107.5 q56 78 138.5 118 q82.5 40 178.5 40 q107 0 199.5 -43 q92.5 -43 152.5 -144.5 q60 -101.5 60 -267.5 q0 -14 -0.5 -24 q-0.5 -10 -1.5 -23 q-193 6 -430 6 l-271 0 q-2 -12 -2 -40 q0 -102 39.5 -190 q39.5 -88 118 -142 q78.5 -54 192.5 -54 q88 0 171 34.5 q83 34.5 143 97.5 ZM666 434 l0 66 q-32 -7 -103.5 -18.5 q-71.5 -11.5 -124.5 -24.5 q-53 -13 -90 -33 q-63 -33 -86.5 -74 q-23.5 -41 -23.5 -117 q0 -79 53.5 -124.5 q53.5 -45.5 134.5 -45.5 q67 0 125.5 32.5 q58.5 32.5 83.5 90.5 q31 67 31 170 l0 78 Z" /><glyph glyph-name="ccedilla" unicode="ç" d="M938 901 l-47 -135 l-17 0 q-41 57 -55 68 q-32 38 -89.5 59.5 q-57.5 21.5 -113.5 21.5 q-167 0 -259.5 -123 q-92.5 -123 -92.5 -296 q0 -128 47 -231.5 q47 -103.5 132 -160.5 q85 -57 194 -57 q82 0 146 33.5 q64 33.5 137 99.5 l12 -6 l-10 -94 q-141 -103 -314 -103 q-166 0 -284.5 66 q-118.5 66 -179 181.5 q-60.5 115.5 -60.5 260.5 q0 154 67.5 267.5 q67.5 113.5 188 173 q120.5 59.5 274.5 59.5 q189 0 324 -84 ZM317 -197 l80 179 l62 0 l-56 -121 q28 8 60 8 q64 0 105.5 -34.5 q41.5 -34.5 41.5 -90.5 q0 -63 -51 -106 q-64 -44 -168 -44 q-76 0 -147 27 l24 55 q28 -6 57.5 -13 q29.5 -7 53.5 -7 q41 0 71.5 19 q30.5 19 30.5 57 q0 71 -94 71 q-10 0 -22.5 -3.5 q-12.5 -3.5 -18.5 -4.5 l-29 8 Z" /><glyph glyph-name="egrave" unicode="è" d="M907 205 l-2 -107 q-82 -57 -172.5 -89 q-90.5 -32 -179.5 -32 q-141 0 -251 60.5 q-110 60.5 -171 174.5 q-61 114 -61 269 q0 144 54 258.5 q54 114.5 160.5 180 q106.5 65.5 254.5 65.5 q83 0 159 -28.5 q76 -28.5 133 -84 q57 -55.5 91 -142 q34 -86.5 34 -202.5 q0 -14 -0.5 -23.5 q-0.5 -9.5 -1.5 -21.5 q-208 6 -415 6 l-289 0 q-2 -14 -2 -43 q0 -78 23 -147.5 q23 -69.5 69.5 -123 q46.5 -53.5 114 -83 q67.5 -29.5 149.5 -29.5 q156 0 303 142 ZM250 565 l545 0 q-4 158 -61 257.5 q-57 99.5 -195 99.5 q-91 0 -153.5 -50.5 q-62.5 -50.5 -96 -132.5 q-33.5 -82 -39.5 -174 ZM735 1083 l-65 0 l-279 174 q-8 6 -17 12 q-9 6 -17 13.5 q-8 7.5 -11 13.5 q-2 17 -2 50 q13 38 74 38 q16 -4 20 -8 q16 -11 33 -29 q17 -18 33 -34 l231 -230 Z" /><glyph glyph-name="eacute" unicode="é" d="M907 205 l-2 -107 q-82 -57 -172.5 -89 q-90.5 -32 -179.5 -32 q-141 0 -251 60.5 q-110 60.5 -171 174.5 q-61 114 -61 269 q0 144 54 258.5 q54 114.5 160.5 180 q106.5 65.5 254.5 65.5 q83 0 159 -28.5 q76 -28.5 133 -84 q57 -55.5 91 -142 q34 -86.5 34 -202.5 q0 -14 -0.5 -23.5 q-0.5 -9.5 -1.5 -21.5 q-208 6 -415 6 l-289 0 q-2 -14 -2 -43 q0 -78 23 -147.5 q23 -69.5 69.5 -123 q46.5 -53.5 114 -83 q67.5 -29.5 149.5 -29.5 q156 0 303 142 ZM250 565 l545 0 q-4 158 -61 257.5 q-57 99.5 -195 99.5 q-91 0 -153.5 -50.5 q-62.5 -50.5 -96 -132.5 q-33.5 -82 -39.5 -174 ZM723 1260 l-285 -183 l-61 0 l229 230 q35 33 45 45 q6 3 22 16 q16 13 25 14 q63 0 72 -39 q0 -10 -1 -26.5 q-1 -16.5 -3 -20.5 q-4 -8 -10 -14 q-6 -6 -12.5 -9.5 q-6.5 -3.5 -20.5 -12.5 Z" /><glyph glyph-name="ecircumflex" unicode="ê" d="M907 205 l-2 -107 q-82 -57 -172.5 -89 q-90.5 -32 -179.5 -32 q-141 0 -251 60.5 q-110 60.5 -171 174.5 q-61 114 -61 269 q0 144 54 258.5 q54 114.5 160.5 180 q106.5 65.5 254.5 65.5 q83 0 159 -28.5 q76 -28.5 133 -84 q57 -55.5 91 -142 q34 -86.5 34 -202.5 q0 -14 -0.5 -23.5 q-0.5 -9.5 -1.5 -21.5 q-208 6 -415 6 l-289 0 q-2 -14 -2 -43 q0 -78 23 -147.5 q23 -69.5 69.5 -123 q46.5 -53.5 114 -83 q67.5 -29.5 149.5 -29.5 q156 0 303 142 ZM250 565 l545 0 q-4 158 -61 257.5 q-57 99.5 -195 99.5 q-91 0 -153.5 -50.5 q-62.5 -50.5 -96 -132.5 q-33.5 -82 -39.5 -174 ZM303 1067 l-61 0 l225 293 l100 0 l226 -293 l-60 0 l-215 186 l-215 -186 Z" /><glyph glyph-name="edieresis" unicode="ë" d="M907 205 l-2 -107 q-82 -57 -172.5 -89 q-90.5 -32 -179.5 -32 q-141 0 -251 60.5 q-110 60.5 -171 174.5 q-61 114 -61 269 q0 144 54 258.5 q54 114.5 160.5 180 q106.5 65.5 254.5 65.5 q83 0 159 -28.5 q76 -28.5 133 -84 q57 -55.5 91 -142 q34 -86.5 34 -202.5 q0 -14 -0.5 -23.5 q-0.5 -9.5 -1.5 -21.5 q-208 6 -415 6 l-289 0 q-2 -14 -2 -43 q0 -78 23 -147.5 q23 -69.5 69.5 -123 q46.5 -53.5 114 -83 q67.5 -29.5 149.5 -29.5 q156 0 303 142 ZM250 565 l545 0 q-4 158 -61 257.5 q-57 99.5 -195 99.5 q-91 0 -153.5 -50.5 q-62.5 -50.5 -96 -132.5 q-33.5 -82 -39.5 -174 ZM713 1087 q-35 0 -65 30 q-30 30 -30 65 q0 37 28.5 65.5 q28.5 28.5 66.5 28.5 q39 0 66.5 -28.5 q27.5 -28.5 27.5 -65.5 q0 -37 -29 -66 q-29 -29 -65 -29 ZM344 1087 q-36 0 -65 29 q-29 29 -29 66 q0 37 27.5 65.5 q27.5 28.5 66.5 28.5 q38 0 66 -28 q28 -28 28 -66 q0 -40 -28.5 -67.5 q-28.5 -27.5 -65.5 -27.5 Z" /><glyph glyph-name="igrave" unicode="ì" d="M367 973 l0 -979 q-20 2 -33.5 3 q-13.5 1 -22.5 2 q-9 1 -26 1 q-19 0 -24.5 -0.5 q-5.5 -0.5 -22.5 -2 q-17 -1.5 -35 -3.5 l0 979 q26 -2 47 -4 q21 -2 35 -2 q13 0 33.5 2 q20.5 2 48.5 4 ZM498 1110 l-66 0 l-278 174 q-12 9 -25 18 q-13 9 -20 21 q-3 16 -3 49 q14 39 74 39 q17 -4 21 -8 q16 -13 65 -64 l232 -229 Z" /><glyph glyph-name="iacute" unicode="í" d="M367 973 l0 -979 q-20 2 -33.5 3 q-13.5 1 -22.5 2 q-9 1 -26 1 q-19 0 -24.5 -0.5 q-5.5 -0.5 -22.5 -2 q-17 -1.5 -35 -3.5 l0 979 q26 -2 47 -4 q21 -2 35 -2 q13 0 33.5 2 q20.5 2 48.5 4 ZM506 1307 l-285 -183 l-61 0 l229 230 q35 33 45 45 q6 3 22.5 16.5 q16.5 13.5 24.5 14.5 q62 0 72 -39 q0 -10 -1 -27 q-1 -17 -3 -21 q-4 -8 -10 -14 q-6 -6 -12.5 -9.5 q-6.5 -3.5 -20.5 -12.5 Z" /><glyph glyph-name="icircumflex" unicode="î" d="M367 973 l0 -979 q-20 2 -33.5 3 q-13.5 1 -22.5 2 q-9 1 -26 1 q-19 0 -24.5 -0.5 q-5.5 -0.5 -22.5 -2 q-17 -1.5 -35 -3.5 l0 979 q26 -2 47 -4 q21 -2 35 -2 q13 0 33.5 2 q20.5 2 48.5 4 ZM68 1124 l-62 0 l225 293 l101 0 l225 -293 l-59 0 l-215 187 l-215 -187 Z" /><glyph glyph-name="idieresis" unicode="ï" d="M367 973 l0 -979 q-20 2 -33.5 3 q-13.5 1 -22.5 2 q-9 1 -26 1 q-19 0 -24.5 -0.5 q-5.5 -0.5 -22.5 -2 q-17 -1.5 -35 -3.5 l0 979 q26 -2 47 -4 q21 -2 35 -2 q13 0 33.5 2 q20.5 2 48.5 4 ZM459 1110 q-23 0 -45.5 13 q-22.5 13 -35.5 35.5 q-13 22.5 -13 45.5 q0 37 27.5 65.5 q27.5 28.5 66.5 28.5 q39 0 66.5 -28.5 q27.5 -28.5 27.5 -65.5 q0 -23 -13 -45.5 q-13 -22.5 -35.5 -35.5 q-22.5 -13 -45.5 -13 ZM90 1110 q-23 0 -45.5 13 q-22.5 13 -35.5 35.5 q-13 22.5 -13 45.5 q0 37 27.5 65.5 q27.5 28.5 66.5 28.5 q38 0 66 -28 q28 -28 28 -66 q0 -39 -28.5 -66.5 q-28.5 -27.5 -65.5 -27.5 Z" /><glyph glyph-name="eth" unicode="ð" d="M571 41 q109 0 180.5 75 q71.5 75 103.5 180.5 q32 105.5 32 199.5 q0 77 -15 150.5 q-15 73.5 -50 136 q-35 62.5 -93 101 q-58 38.5 -139 38.5 q-122 0 -197.5 -66.5 q-75.5 -66.5 -108 -171.5 q-32.5 -105 -32.5 -223 q0 -111 32.5 -205.5 q32.5 -94.5 104.5 -154.5 q72 -60 182 -60 ZM860 1532 l37 -59 l-197 -123 q161 -160 264 -371.5 q103 -211.5 103 -452.5 q0 -135 -59.5 -261.5 q-59.5 -126.5 -176.5 -207 q-117 -80.5 -276 -80.5 q-139 0 -248.5 64 q-109.5 64 -172 182 q-62.5 118 -62.5 269 q0 109 38.5 199.5 q38.5 90.5 110.5 157 q72 66.5 165.5 101.5 q93.5 35 205.5 35 q115 0 215 -47 q-64 183 -201 352 l-209 -133 l-37 60 l199 126 q-87 97 -170 152 l29 37 q106 -27 229 -133 l213 133 Z" /><glyph glyph-name="ntilde" unicode="ñ" d="M158 -6 l0 979 q26 -2 47 -4 q21 -2 35 -2 q13 0 33.5 2 q20.5 2 48.5 4 l0 -187 q113 199 329 199 q177 0 253.5 -96.5 q76.5 -96.5 76.5 -302.5 l0 -592 q-20 2 -33.5 3 q-13.5 1 -22 2 q-8.5 1 -26.5 1 q-19 0 -28 -1 q-9 -1 -22.5 -2 q-13.5 -1 -31.5 -3 l0 545 q0 105 -18 179 q-18 74 -68.5 117.5 q-50.5 43.5 -140.5 43.5 q-151 0 -209.5 -102 q-58.5 -102 -58.5 -308 l0 -475 q-20 2 -33.5 3 q-13.5 1 -22.5 2 q-9 1 -26 1 q-19 0 -24.5 -0.5 q-5.5 -0.5 -22.5 -2 q-17 -1.5 -35 -3.5 ZM379 1090 l-41 0 q15 77 67.5 128.5 q52.5 51.5 122.5 51.5 q21 0 45 -6 q31 -11 89 -39 q35 -19 63 -29 q28 -8 45 -8 q45 0 68 31 q14 14 32 57 l54 0 q-18 -76 -68 -131 q-50 -55 -127 -55 q-19 0 -36 4 q-17 4 -32.5 9 q-15.5 5 -35.5 14.5 q-20 9.5 -29 12.5 q-38 19 -65.5 30 q-27.5 11 -53.5 11 q-22 0 -39 -8 q-40 -15 -59 -73 Z" /><glyph glyph-name="ograve" unicode="ò" d="M72 492 q0 109 38.5 199.5 q38.5 90.5 110.5 157 q72 66.5 165.5 101.5 q93.5 35 205.5 35 q140 0 247.5 -61 q107.5 -61 167.5 -174.5 q60 -113.5 60 -264.5 q0 -98 -33 -190 q-33 -92 -99 -164.5 q-66 -72.5 -162.5 -113 q-96.5 -40.5 -217.5 -40.5 q-133 0 -244 61.5 q-111 61.5 -175 179 q-64 117.5 -64 274.5 ZM590 922 q-122 0 -197.5 -66.5 q-75.5 -66.5 -108 -171.5 q-32.5 -105 -32.5 -223 q0 -111 32.5 -205.5 q32.5 -94.5 104.5 -154.5 q72 -60 182 -60 q109 0 180.5 75 q71.5 75 103.5 180.5 q32 105.5 32 199.5 q0 77 -15 150.5 q-15 73.5 -50 136 q-35 62.5 -93 101 q-58 38.5 -139 38.5 ZM793 1094 l-66 0 l-278 174 q-12 9 -25 17.5 q-13 8.5 -21 21.5 q-2 16 -2 49 q15 39 74 39 q16 -4 21 -9 q12 -9 31 -28 q19 -19 34 -35 l232 -229 Z" /><glyph glyph-name="oacute" unicode="ó" d="M72 492 q0 109 38.5 199.5 q38.5 90.5 110.5 157 q72 66.5 165.5 101.5 q93.5 35 205.5 35 q140 0 247.5 -61 q107.5 -61 167.5 -174.5 q60 -113.5 60 -264.5 q0 -98 -33 -190 q-33 -92 -99 -164.5 q-66 -72.5 -162.5 -113 q-96.5 -40.5 -217.5 -40.5 q-133 0 -244 61.5 q-111 61.5 -175 179 q-64 117.5 -64 274.5 ZM590 922 q-122 0 -197.5 -66.5 q-75.5 -66.5 -108 -171.5 q-32.5 -105 -32.5 -223 q0 -111 32.5 -205.5 q32.5 -94.5 104.5 -154.5 q72 -60 182 -60 q109 0 180.5 75 q71.5 75 103.5 180.5 q32 105.5 32 199.5 q0 77 -15 150.5 q-15 73.5 -50 136 q-35 62.5 -93 101 q-58 38.5 -139 38.5 ZM770 1270 l-285 -183 l-61 0 l229 230 q32 30 45 45 q6 3 21.5 16.5 q15.5 13.5 25.5 14.5 q62 0 72 -39 q0 -10 -1 -27 q-1 -17 -3 -20 q-3 -6 -8 -12 q-5 -6 -13 -11 q-8 -5 -22 -14 Z" /><glyph glyph-name="ocircumflex" unicode="ô" d="M72 492 q0 109 38.5 199.5 q38.5 90.5 110.5 157 q72 66.5 165.5 101.5 q93.5 35 205.5 35 q140 0 247.5 -61 q107.5 -61 167.5 -174.5 q60 -113.5 60 -264.5 q0 -98 -33 -190 q-33 -92 -99 -164.5 q-66 -72.5 -162.5 -113 q-96.5 -40.5 -217.5 -40.5 q-133 0 -244 61.5 q-111 61.5 -175 179 q-64 117.5 -64 274.5 ZM590 922 q-122 0 -197.5 -66.5 q-75.5 -66.5 -108 -171.5 q-32.5 -105 -32.5 -223 q0 -111 32.5 -205.5 q32.5 -94.5 104.5 -154.5 q72 -60 182 -60 q109 0 180.5 75 q71.5 75 103.5 180.5 q32 105.5 32 199.5 q0 77 -15 150.5 q-15 73.5 -50 136 q-35 62.5 -93 101 q-58 38.5 -139 38.5 ZM354 1065 l-61 0 l225 293 l100 0 l226 -293 l-60 0 l-215 186 l-215 -186 Z" /><glyph glyph-name="otilde" unicode="õ" d="M72 492 q0 109 38.5 199.5 q38.5 90.5 110.5 157 q72 66.5 165.5 101.5 q93.5 35 205.5 35 q140 0 247.5 -61 q107.5 -61 167.5 -174.5 q60 -113.5 60 -264.5 q0 -98 -33 -190 q-33 -92 -99 -164.5 q-66 -72.5 -162.5 -113 q-96.5 -40.5 -217.5 -40.5 q-133 0 -244 61.5 q-111 61.5 -175 179 q-64 117.5 -64 274.5 ZM590 922 q-122 0 -197.5 -66.5 q-75.5 -66.5 -108 -171.5 q-32.5 -105 -32.5 -223 q0 -111 32.5 -205.5 q32.5 -94.5 104.5 -154.5 q72 -60 182 -60 q109 0 180.5 75 q71.5 75 103.5 180.5 q32 105.5 32 199.5 q0 77 -15 150.5 q-15 73.5 -50 136 q-35 62.5 -93 101 q-58 38.5 -139 38.5 ZM317 1087 l-41 0 q17 80 68.5 130.5 q51.5 50.5 122.5 50.5 q21 0 45 -6 q27 -10 88 -39 q38 -20 64 -29 q28 -8 45 -8 q45 0 67 31 q15 14 33 57 l53 0 q-19 -80 -68.5 -133.5 q-49.5 -53.5 -125.5 -53.5 q-27 0 -47.5 5.5 q-20.5 5.5 -42 15.5 q-21.5 10 -43.5 20 q-38 19 -65.5 30 q-27.5 11 -53.5 11 q-23 0 -39 -8 q-39 -14 -60 -74 Z" /><glyph glyph-name="odieresis" unicode="ö" d="M72 492 q0 109 38.5 199.5 q38.5 90.5 110.5 157 q72 66.5 165.5 101.5 q93.5 35 205.5 35 q140 0 247.5 -61 q107.5 -61 167.5 -174.5 q60 -113.5 60 -264.5 q0 -98 -33 -190 q-33 -92 -99 -164.5 q-66 -72.5 -162.5 -113 q-96.5 -40.5 -217.5 -40.5 q-133 0 -244 61.5 q-111 61.5 -175 179 q-64 117.5 -64 274.5 ZM590 922 q-122 0 -197.5 -66.5 q-75.5 -66.5 -108 -171.5 q-32.5 -105 -32.5 -223 q0 -111 32.5 -205.5 q32.5 -94.5 104.5 -154.5 q72 -60 182 -60 q109 0 180.5 75 q71.5 75 103.5 180.5 q32 105.5 32 199.5 q0 77 -15 150.5 q-15 73.5 -50 136 q-35 62.5 -93 101 q-58 38.5 -139 38.5 ZM764 1065 q-23 0 -45.5 13 q-22.5 13 -35.5 35.5 q-13 22.5 -13 45.5 q0 37 27.5 65.5 q27.5 28.5 66.5 28.5 q39 0 66.5 -28.5 q27.5 -28.5 27.5 -65.5 q0 -23 -13 -45.5 q-13 -22.5 -35.5 -35.5 q-22.5 -13 -45.5 -13 ZM395 1065 q-23 0 -45.5 13 q-22.5 13 -35.5 35.5 q-13 22.5 -13 45.5 q0 37 27.5 65.5 q27.5 28.5 66.5 28.5 q38 0 66 -28 q28 -28 28 -66 q0 -39 -28.5 -66.5 q-28.5 -27.5 -65.5 -27.5 Z" /><glyph glyph-name="divide" unicode="÷" d="M1137 455 l-1033 0 l0 131 l1033 0 l0 -131 ZM621 819 q-50 0 -87.5 35.5 q-37.5 35.5 -37.5 87.5 q0 51 38 87 q38 36 87 36 q32 0 59.5 -17 q27.5 -17 44 -45 q16.5 -28 16.5 -61 q0 -51 -35 -87 q-35 -36 -85 -36 ZM621 -25 q-50 0 -87.5 36.5 q-37.5 36.5 -37.5 86.5 q0 51 38 87 q38 36 87 36 q32 0 59.5 -17 q27.5 -17 44 -45 q16.5 -28 16.5 -61 q0 -49 -35 -86 q-35 -37 -85 -37 Z" /><glyph glyph-name="oslash" unicode="ø" d="M1081 1018 l-157 -164 q70 -56 105.5 -158.5 q35.5 -102.5 35.5 -210.5 q0 -104 -37 -197 q-37 -93 -103.5 -162 q-66.5 -69 -162.5 -109 q-96 -40 -209 -40 q-58 0 -117.5 15 q-59.5 15 -112.5 42 q-53 27 -87 54 l-150 -182 q-15 35 -55 57 l162 168 q-51 57 -77.5 112 q-26.5 55 -36 113.5 q-9.5 58.5 -9.5 135.5 q0 148 67 259.5 q67 111.5 185.5 172.5 q118.5 61 267.5 61 q144 0 284 -90 l150 174 q11 -28 57 -51 ZM291 242 l506 565 q-19 44 -77 79.5 q-58 35.5 -132 35.5 q-113 0 -189.5 -67 q-76.5 -67 -112.5 -173.5 q-36 -106.5 -36 -220.5 q0 -128 41 -219 ZM834 754 l-515 -574 q92 -139 250 -139 q83 0 148.5 50 q65.5 50 106.5 131 q41 81 53 167 q8 49 8 107 q0 80 -14.5 145.5 q-14.5 65.5 -36.5 112.5 Z" /><glyph glyph-name="ugrave" unicode="ù" d="M969 973 l0 -979 q-20 2 -33.5 3 q-13.5 1 -22.5 2 q-9 1 -26 1 q-19 0 -24.5 -0.5 q-5.5 -0.5 -22.5 -2 q-17 -1.5 -35 -3.5 l0 176 q-33 -63 -81.5 -106 q-48.5 -43 -109.5 -65 q-61 -22 -135 -22 q-172 0 -255 94 q-83 94 -83 300 l0 602 q26 -2 46.5 -4 q20.5 -2 35.5 -2 q13 0 33.5 2 q20.5 2 48.5 4 l0 -553 q0 -111 24.5 -186.5 q24.5 -75.5 79 -115.5 q54.5 -40 144.5 -40 q97 0 153 49 q56 49 77.5 123 q21.5 74 21.5 158 l0 565 q26 -2 47 -4 q21 -2 35 -2 q13 0 33.5 2 q20.5 2 48.5 4 ZM748 1102 l-66 0 l-279 174 q-12 9 -24.5 17.5 q-12.5 8.5 -20.5 21.5 q-2 16 -2 49 q14 39 74 39 q16 -4 21 -8 q16 -13 65 -64 l232 -229 Z" /><glyph glyph-name="uacute" unicode="ú" d="M969 973 l0 -979 q-20 2 -33.5 3 q-13.5 1 -22.5 2 q-9 1 -26 1 q-19 0 -24.5 -0.5 q-5.5 -0.5 -22.5 -2 q-17 -1.5 -35 -3.5 l0 176 q-33 -63 -81.5 -106 q-48.5 -43 -109.5 -65 q-61 -22 -135 -22 q-172 0 -255 94 q-83 94 -83 300 l0 602 q26 -2 46.5 -4 q20.5 -2 35.5 -2 q13 0 33.5 2 q20.5 2 48.5 4 l0 -553 q0 -111 24.5 -186.5 q24.5 -75.5 79 -115.5 q54.5 -40 144.5 -40 q97 0 153 49 q56 49 77.5 123 q21.5 74 21.5 158 l0 565 q26 -2 47 -4 q21 -2 35 -2 q13 0 33.5 2 q20.5 2 48.5 4 ZM838 1268 l-285 -183 l-61 0 l229 230 q12 11 21.5 20 q9.5 9 23.5 25 q10 8 16.5 13.5 q6.5 5.5 14 11 q7.5 5.5 16.5 6.5 q62 0 72 -39 q0 -10 -1 -27 q-1 -17 -3 -20 q-4 -8 -10 -14 q-6 -6 -12.5 -10 q-6.5 -4 -20.5 -13 Z" /><glyph glyph-name="ucircumflex" unicode="û" d="M969 973 l0 -979 q-20 2 -33.5 3 q-13.5 1 -22.5 2 q-9 1 -26 1 q-19 0 -24.5 -0.5 q-5.5 -0.5 -22.5 -2 q-17 -1.5 -35 -3.5 l0 176 q-33 -63 -81.5 -106 q-48.5 -43 -109.5 -65 q-61 -22 -135 -22 q-172 0 -255 94 q-83 94 -83 300 l0 602 q26 -2 46.5 -4 q20.5 -2 35.5 -2 q13 0 33.5 2 q20.5 2 48.5 4 l0 -553 q0 -111 24.5 -186.5 q24.5 -75.5 79 -115.5 q54.5 -40 144.5 -40 q97 0 153 49 q56 49 77.5 123 q21.5 74 21.5 158 l0 565 q26 -2 47 -4 q21 -2 35 -2 q13 0 33.5 2 q20.5 2 48.5 4 ZM362 1114 l-61 0 l225 293 l101 0 l225 -293 l-59 0 l-215 186 l-216 -186 Z" /><glyph glyph-name="udieresis" unicode="ü" d="M969 973 l0 -979 q-20 2 -33.5 3 q-13.5 1 -22.5 2 q-9 1 -26 1 q-19 0 -24.5 -0.5 q-5.5 -0.5 -22.5 -2 q-17 -1.5 -35 -3.5 l0 176 q-33 -63 -81.5 -106 q-48.5 -43 -109.5 -65 q-61 -22 -135 -22 q-172 0 -255 94 q-83 94 -83 300 l0 602 q26 -2 46.5 -4 q20.5 -2 35.5 -2 q13 0 33.5 2 q20.5 2 48.5 4 l0 -553 q0 -111 24.5 -186.5 q24.5 -75.5 79 -115.5 q54.5 -40 144.5 -40 q97 0 153 49 q56 49 77.5 123 q21.5 74 21.5 158 l0 565 q26 -2 47 -4 q21 -2 35 -2 q13 0 33.5 2 q20.5 2 48.5 4 ZM754 1079 q-23 0 -45.5 13 q-22.5 13 -36 35 q-13.5 22 -13.5 47 q0 37 27.5 65.5 q27.5 28.5 67.5 28.5 q39 0 66.5 -28.5 q27.5 -28.5 27.5 -65.5 q0 -24 -13 -46.5 q-13 -22.5 -35.5 -35.5 q-22.5 -13 -45.5 -13 ZM385 1079 q-23 0 -45.5 13 q-22.5 13 -35.5 35.5 q-13 22.5 -13 46.5 q0 37 27.5 65.5 q27.5 28.5 66.5 28.5 q38 0 66 -28 q28 -28 28 -66 q0 -40 -28.5 -67.5 q-28.5 -27.5 -65.5 -27.5 Z" /><glyph glyph-name="yacute" unicode="ý" d="M467 2 l-414 971 q32 -2 57 -4 q25 -2 42 -2 q15 0 38.5 2 q23.5 2 57.5 4 q52 -161 129.5 -355.5 q77.5 -194.5 175.5 -404.5 q66 135 150 346.5 q84 211.5 157 413.5 q20 -2 37.5 -4 q17.5 -2 30.5 -2 q9 0 26 2 q17 2 39 4 q-79 -175 -175 -386.5 q-96 -211.5 -183.5 -406.5 q-87.5 -195 -162.5 -371 q-75 -176 -140 -339 q-18 2 -29 3 q-11 1 -18.5 2 q-7.5 1 -22.5 1 q-16 0 -24 -1 q-8 -1 -19.5 -2 q-11.5 -1 -25.5 -3 q204 400 274 532 ZM836 1268 l-285 -183 l-62 0 l230 230 q12 11 21.5 20 q9.5 9 23.5 25 q10 8 16.5 13.5 q6.5 5.5 14 11 q7.5 5.5 16.5 6.5 q62 0 72 -39 q0 -10 -1 -27 q-1 -17 -3 -20 q-4 -8 -10 -14 q-6 -6 -12.5 -10 q-6.5 -4 -20.5 -13 Z" /><glyph glyph-name="thorn" unicode="þ" d="M135 -418 l0 1813 q26 -2 47 -4 q21 -2 35 -2 q13 0 33.5 2 q20.5 2 48.5 4 l0 -629 l4 0 q50 97 117.5 158 q67.5 61 228.5 61 q96 0 172.5 -36.5 q76.5 -36.5 131 -103.5 q54.5 -67 81.5 -150.5 q27 -83.5 27 -178.5 q0 -249 -122 -394 q-122 -145 -321 -145 q-210 0 -315 197 l-4 0 l0 -592 q-20 2 -33.5 3 q-13.5 1 -22 2 q-8.5 1 -26.5 1 q-19 0 -28 -1 q-9 -1 -22.5 -2 q-13.5 -1 -31.5 -3 ZM299 457 q0 -175 75.5 -284.5 q75.5 -109.5 225.5 -109.5 q99 0 161.5 59.5 q62.5 59.5 91 158.5 q28.5 99 28.5 227 q0 109 -26.5 201 q-26.5 92 -90 149 q-63.5 57 -166.5 57 q-110 0 -177 -70 q-67 -70 -94.5 -175.5 q-27.5 -105.5 -27.5 -212.5 Z" /><glyph glyph-name="ydieresis" unicode="ÿ" d="M467 2 l-414 971 q32 -2 57 -4 q25 -2 42 -2 q15 0 38.5 2 q23.5 2 57.5 4 q52 -161 129.5 -355.5 q77.5 -194.5 175.5 -404.5 q66 135 150 346.5 q84 211.5 157 413.5 q20 -2 37.5 -4 q17.5 -2 30.5 -2 q9 0 26 2 q17 2 39 4 q-79 -175 -175 -386.5 q-96 -211.5 -183.5 -406.5 q-87.5 -195 -162.5 -371 q-75 -176 -140 -339 q-18 2 -29 3 q-11 1 -18.5 2 q-7.5 1 -22.5 1 q-16 0 -24 -1 q-8 -1 -19.5 -2 q-11.5 -1 -25.5 -3 q204 400 274 532 ZM760 1085 q-23 0 -45.5 13 q-22.5 13 -35.5 35.5 q-13 22.5 -13 46.5 q0 37 27.5 65.5 q27.5 28.5 66.5 28.5 q39 0 66.5 -28.5 q27.5 -28.5 27.5 -65.5 q0 -24 -13 -46.5 q-13 -22.5 -35.5 -35.5 q-22.5 -13 -45.5 -13 ZM391 1085 q-23 0 -45.5 13 q-22.5 13 -35.5 35.5 q-13 22.5 -13 46.5 q0 37 27.5 65.5 q27.5 28.5 66.5 28.5 q38 0 66 -28 q28 -28 28 -66 q0 -40 -28.5 -67.5 q-28.5 -27.5 -65.5 -27.5 Z" /><glyph glyph-name="sac" unicode="&#xf008;" d="M584 1290 l-285 -182 l-61 0 l229 229 q16 16 25.5 24.5 q9.5 8.5 19.5 20.5 q12 10 23.5 20 q11.5 10 23.5 11 q63 0 72 -39 q0 -10 -1 -27 q-1 -17 -3 -20 q-7 -15 -43 -37 Z" /><glyph glyph-name="huyen" unicode="&#xf00d;" d="M492 1090 l-66 0 l-279 174 q-12 9 -24.5 17.5 q-12.5 8.5 -20.5 21.5 q-2 16 -2 49 q15 39 74 39 q16 -4 21 -9 q12 -9 31 -28 q19 -19 34 -35 l232 -229 Z" /><glyph glyph-name="hoi" unicode="&#xf012;" d="M440 1161 l-67 -47 q-20 -12 -32.5 -19.5 q-12.5 -7.5 -22 -18.5 q-9.5 -11 -9.5 -23 q7 -43 72 -43 q9 0 35 4 l-23 -33 q-6 -2 -33 -2 q-57 0 -99 23.5 q-42 23.5 -42 62.5 q0 25 18.5 45 q18.5 20 51.5 41 l73 47 q64 39 64 72 q0 22 -32.5 37.5 q-32.5 15.5 -76.5 15.5 q-29 0 -57 -9.5 q-28 -9.5 -43 -23.5 l-6 45 q65 23 119 23 q56 0 96.5 -11.5 q40.5 -11.5 63 -33.5 q22.5 -22 22.5 -51 q0 -30 -16.5 -52 q-16.5 -22 -55.5 -49 Z" /><glyph glyph-name="nga" unicode="&#xf01d;" d="M63 1141 l-40 0 q15 77 67.5 128.5 q52.5 51.5 122.5 51.5 q21 0 45 -6 q22 -7 88 -39 q53 -25 64 -29 q28 -8 45 -8 q45 0 67 31 q13 12 33 57 l53 0 q-18 -79 -68 -132.5 q-50 -53.5 -126 -53.5 q-25 0 -46 5 q-21 5 -39 13 q-18 8 -48 23 q-23 11 -41 19.5 q-18 8.5 -39.5 15 q-21.5 6.5 -38.5 6.5 q-24 0 -39 -9 q-38 -14 -60 -73 Z" /><glyph glyph-name="nang" unicode="&#xf02a;" d="M449 1135 q0 -40 -29.5 -68.5 q-29.5 -28.5 -67.5 -28.5 q-38 0 -67 29 q-29 29 -29 68 q0 40 29 68 q29 28 67 28 q38 0 67.5 -27.5 q29.5 -27.5 29.5 -68.5 Z" /><glyph glyph-name="dth" unicode="&#x111;&#x20ab;" d="M997 1532 l0 -246 l119 0 l0 -82 l-119 0 l0 -1210 q-20 2 -33.5 3 q-13.5 1 -22 2 q-8.5 1 -26.5 1 q-18 0 -27.5 -1 q-9.5 -1 -22.5 -2 q-13 -1 -31 -3 l0 196 q-125 -213 -353 -213 q-89 0 -162 30.5 q-73 30.5 -129.5 94 q-56.5 63.5 -87 155.5 q-30.5 92 -30.5 216 q0 141 54 258.5 q54 117.5 154.5 185.5 q100.5 68 231.5 68 q206 0 322 -199 l0 418 l-338 0 l0 82 l338 0 l0 246 q26 -2 46 -4 q20 -2 35 -2 q14 0 34 2 q20 2 48 4 ZM834 510 q0 96 -27.5 185 q-27.5 89 -89.5 147.5 q-62 58.5 -160 58.5 q-305 0 -305 -457 q0 -157 67 -275 q67 -118 213 -118 q110 0 178 71 q68 71 96 175.5 q28 104.5 28 212.5 Z" /><glyph glyph-name="dhoa" unicode="&#x110;" d="M266 791 l0 604 l404 0 l141 0 q147 0 253 -24 q106 -24 198 -99 q109 -89 164 -223.5 q55 -134.5 55 -288.5 q0 -136 -31.5 -248 q-31.5 -112 -89 -198.5 q-57.5 -86.5 -137.5 -157.5 q-61 -54 -135.5 -86.5 q-74.5 -32.5 -150 -47 q-75.5 -14.5 -149.5 -18.5 q-74 -4 -184 -4 l-338 0 l0 700 l-164 0 l0 91 l164 0 ZM446 1313 l0 -522 l312 0 l0 -91 l-312 0 l0 -608 q39 -3 118.5 -6.5 q79.5 -3.5 133.5 -3.5 q176 4 287 59 q156 79 225.5 231 q69.5 152 69.5 357 q0 214 -60.5 345 q-60.5 131 -186.5 189 q-126 58 -328 58 q-62 0 -138 -3.5 q-76 -3.5 -121 -4.5 Z" /><glyph glyph-name="octh" unicode="&#x1a1;" d="M61 492 q0 109 39.5 199.5 q39.5 90.5 110.5 156.5 q71 66 165 101.5 q94 35.5 206 35.5 q88 0 162 -26 q74 -26 127.5 -67.5 q53.5 -41.5 89.5 -90.5 q36 -49 49 -92 q88 93 88 202 q0 84 84 84 q23 0 39 -24 q16 -24 16 -60 q0 -45 -74 -144.5 q-74 -99.5 -123 -137.5 q17 -62 17 -144 q0 -98 -33 -190 q-33 -92 -99 -164.5 q-66 -72.5 -162.5 -113 q-96.5 -40.5 -217.5 -40.5 q-133 0 -244.5 62 q-111.5 62 -175.5 179 q-64 117 -64 274 ZM580 922 q-179 0 -258.5 -134.5 q-79.5 -134.5 -79.5 -326.5 q0 -111 32.5 -205.5 q32.5 -94.5 104.5 -154.5 q72 -60 182 -60 q109 0 180.5 75 q71.5 75 103.5 180.5 q32 105.5 32 199.5 q0 77 -15 150.5 q-15 73.5 -50 136 q-35 62.5 -93 101 q-58 38.5 -139 38.5 Z" /><glyph glyph-name="ochoa" unicode="&#x1a0;" d="M1419 709 q0 97 -10.5 170 q-10.5 73 -39.5 145 q-29 72 -79 135 q-50 63 -118 108 q-68 45 -148 68 q-80 23 -160 23 q-133 0 -240.5 -48.5 q-107.5 -48.5 -183 -140 q-75.5 -91.5 -114.5 -219.5 q-39 -128 -39 -280 q0 -151 42.5 -268.5 q42.5 -117.5 120 -200 q77.5 -82.5 180.5 -123.5 q103 -41 216 -41 q146 0 256 63.5 q110 63.5 179.5 165 q69.5 101.5 103.5 220.5 q34 119 34 223 ZM840 -31 l-2 0 q-168 0 -308 51.5 q-140 51.5 -240 148 q-100 96.5 -153 230.5 q-53 134 -53 295 q0 164 58 301 q58 137 162 233 q104 96 240.5 146.5 q136.5 50.5 297.5 50.5 q176 0 310 -42.5 q134 -42.5 220 -110 q86 -67.5 137 -146.5 q103 108 103 217 q0 84 84 84 q23 0 39 -24 q16 -24 16 -60 q0 -45 -74 -144.5 q-74 -99.5 -123 -137.5 q66 -153 66 -336 q0 -223 -99 -395.5 q-99 -172.5 -277.5 -266.5 q-178.5 -94 -403.5 -94 Z" /><glyph glyph-name="ucth" unicode="&#x1b0;" d="M969 973 l0 -287 q88 95 88 203 q0 84 84 84 q23 0 39 -24 q16 -24 16 -60 q0 -45 -85 -142 q-85 -97 -142 -141 l0 -612 q-20 2 -33.5 3 q-13.5 1 -22.5 2 q-9 1 -26 1 q-19 0 -24.5 -0.5 q-5.5 -0.5 -22.5 -2 q-17 -1.5 -35 -3.5 l0 176 q-33 -63 -81.5 -106 q-48.5 -43 -109.5 -65 q-61 -22 -135 -22 q-172 0 -255 94 q-83 94 -83 300 l0 602 q26 -2 46.5 -4 q20.5 -2 35.5 -2 q13 0 33.5 2 q20.5 2 48.5 4 l0 -553 q0 -111 24.5 -186.5 q24.5 -75.5 79 -115.5 q54.5 -40 144.5 -40 q97 0 153 49 q56 49 77.5 123 q21.5 74 21.5 158 l0 565 q26 -2 47 -4 q21 -2 35 -2 q13 0 33.5 2 q20.5 2 48.5 4 Z" /><glyph glyph-name="uchoa" unicode="&#x1af;" d="M373 1395 l0 -785 q0 -137 22.5 -239 q22.5 -102 74.5 -171 q52 -69 139.5 -103 q87.5 -34 215.5 -34 q233 0 338 150.5 q105 150.5 105 417.5 l0 764 q18 -2 32 -4 q14 -2 25 -2 q8 0 22.5 2 q14.5 2 34.5 4 l0 -285 q88 93 88 203 q0 84 84 84 q24 0 40 -24 q16 -24 16 -60 q0 -45 -84 -140.5 q-84 -95.5 -144 -142.5 l0 -450 q0 -198 -73 -335.5 q-73 -137.5 -208.5 -206.5 q-135.5 -69 -316.5 -69 q-102 0 -182 16 q-80 16 -144 47.5 q-64 31.5 -118 80.5 q-88 79 -116.5 195 q-28.5 116 -30.5 267 l0 820 q30 -2 52 -4 q22 -2 38 -2 q13 0 35.5 2 q22.5 2 54.5 4 Z" /><glyph glyph-name="aath" unicode="&#x103;" d="M846 641 l0 -475 q0 -40 2.5 -59.5 q2.5 -19.5 14.5 -31.5 q12 -12 38 -12 q22 0 60 9 l0 -45 q-35 -16 -62 -21 q-33 -6 -65 -6 q-61 2 -99.5 30.5 q-38.5 28.5 -46.5 94.5 l-18 -19 q-129 -129 -303 -129 q-112 0 -192.5 70 q-80.5 70 -80.5 180 q0 108 51.5 168 q51.5 60 126.5 83.5 q75 23.5 201 43.5 q96 16 137 28 q41 12 60.5 36 q19.5 24 19.5 73 q0 115 -62.5 177.5 q-62.5 62.5 -176.5 62.5 q-67 0 -120 -24 q-53 -24 -84 -56.5 q-31 -32.5 -40 -60.5 l-23 0 l0 114 q165 113 330 113 q163 0 247.5 -86 q84.5 -86 84.5 -258 ZM682 205 l0 299 l-72 -15 q-68 -12 -125 -24.5 q-57 -12.5 -107 -34.5 q-50 -22 -83 -65 q-33 -43 -33 -109 q0 -96 52.5 -144.5 q52.5 -48.5 148.5 -48.5 q38 0 86 24 q48 24 78 54 q10 10 22 21 q12 11 22.5 24.5 q10.5 13.5 10.5 18.5 ZM272 1354 l52 2 q12 -83 66.5 -132.5 q54.5 -49.5 135.5 -49.5 q171 0 203 182 l51 0 q-10 -134 -75 -210.5 q-65 -76.5 -193 -76.5 q-110 0 -175 81 q-65 81 -65 204 Z" /><glyph glyph-name="aahoa" unicode="&#x102;" d="M719 1425 l614 -1431 q-26 2 -43 3 q-17 1 -28.5 2 q-11.5 1 -34.5 1 q-20 0 -51 -2 q-31 -2 -58 -4 q-104 301 -215 553 l-520 0 q-48 -120 -80 -202 q-32 -82 -65.5 -176 q-33.5 -94 -57.5 -175 q-18 2 -30.5 3 q-12.5 1 -21 2 q-8.5 1 -24.5 1 q-17 0 -25 -1 q-8 -1 -20 -2 q-12 -1 -26 -3 l639 1431 l47 0 ZM872 633 l-227 524 l-223 -524 l450 0 ZM440 1792 l52 2 q12 -82 67 -132 q55 -50 135 -50 q171 0 203 182 l51 0 q-10 -134 -75 -210.5 q-65 -76.5 -193 -76.5 q-110 0 -175 81 q-65 81 -65 204 Z" /><glyph glyph-name="ebth" unicode="" d="M907 205 l-2 -107 q-82 -57 -172.5 -89 q-90.5 -32 -179.5 -32 q-141 0 -251 60.5 q-110 60.5 -171 174.5 q-61 114 -61 269 q0 144 54 258.5 q54 114.5 160.5 180 q106.5 65.5 254.5 65.5 q83 0 159 -28.5 q76 -28.5 133 -84 q57 -55.5 91 -142 q34 -86.5 34 -202.5 q0 -14 -0.5 -23.5 q-0.5 -9.5 -1.5 -21.5 q-208 6 -415 6 l-289 0 q-2 -14 -2 -43 q0 -78 23 -147.5 q23 -69.5 69.5 -123 q46.5 -53.5 114 -83 q67.5 -29.5 149.5 -29.5 q156 0 303 142 ZM250 565 l545 0 q-4 158 -61 257.5 q-57 99.5 -195 99.5 q-91 0 -153.5 -50.5 q-62.5 -50.5 -96 -132.5 q-33.5 -82 -39.5 -174 ZM303 1067 l-61 0 l225 293 l100 0 l226 -293 l-60 0 l-215 186 l-215 -186 Z" /><glyph glyph-name="athhoi" unicode="&#x1ea3;" d="M846 641 l0 -475 q0 -40 2.5 -59.5 q2.5 -19.5 14.5 -31.5 q12 -12 38 -12 q22 0 60 9 l0 -45 q-35 -16 -62 -21 q-33 -6 -65 -6 q-61 2 -99.5 30.5 q-38.5 28.5 -46.5 94.5 l-18 -19 q-129 -129 -303 -129 q-112 0 -192.5 70 q-80.5 70 -80.5 180 q0 108 51.5 168 q51.5 60 126.5 83.5 q75 23.5 201 43.5 q96 16 137 28 q41 12 60.5 36 q19.5 24 19.5 73 q0 115 -62.5 177.5 q-62.5 62.5 -176.5 62.5 q-67 0 -120 -24 q-53 -24 -84 -56.5 q-31 -32.5 -40 -60.5 l-23 0 l0 114 q165 113 330 113 q163 0 247.5 -86 q84.5 -86 84.5 -258 ZM682 205 l0 299 l-72 -15 q-68 -12 -125 -24.5 q-57 -12.5 -107 -34.5 q-50 -22 -83 -65 q-33 -43 -33 -109 q0 -96 52.5 -144.5 q52.5 -48.5 148.5 -48.5 q38 0 86 24 q48 24 78 54 q10 10 22 21 q12 11 22.5 24.5 q10.5 13.5 10.5 18.5 ZM647 1270 l-67 -47 q-20 -12 -33.5 -20.5 q-13.5 -8.5 -22 -18.5 q-8.5 -10 -8.5 -23 q3 -19 24 -31 q21 -12 48 -12 q9 0 35 4 l-23 -32 q-6 -3 -33 -3 q-57 0 -99 23.5 q-42 23.5 -42 63.5 q0 24 18.5 44.5 q18.5 20.5 51.5 41.5 l73 47 q64 37 64 71 q0 23 -32.5 38.5 q-32.5 15.5 -76.5 15.5 q-63 0 -100 -33 l-6 45 q68 22 119 22 q85 0 133.5 -25.5 q48.5 -25.5 48.5 -70.5 q0 -30 -17 -52.5 q-17 -22.5 -55 -47.5 Z" /><glyph glyph-name="athnang" unicode="&#x1ea1;" d="M846 641 l0 -475 q0 -40 2.5 -59.5 q2.5 -19.5 14.5 -31.5 q12 -12 38 -12 q22 0 60 9 l0 -45 q-35 -16 -62 -21 q-33 -6 -65 -6 q-61 2 -99.5 30.5 q-38.5 28.5 -46.5 94.5 l-18 -19 q-129 -129 -303 -129 q-112 0 -192.5 70 q-80.5 70 -80.5 180 q0 108 51.5 168 q51.5 60 126.5 83.5 q75 23.5 201 43.5 q96 16 137 28 q41 12 60.5 36 q19.5 24 19.5 73 q0 115 -62.5 177.5 q-62.5 62.5 -176.5 62.5 q-67 0 -120 -24 q-53 -24 -84 -56.5 q-31 -32.5 -40 -60.5 l-23 0 l0 114 q165 113 330 113 q163 0 247.5 -86 q84.5 -86 84.5 -258 ZM682 205 l0 299 l-72 -15 q-68 -12 -125 -24.5 q-57 -12.5 -107 -34.5 q-50 -22 -83 -65 q-33 -43 -33 -109 q0 -96 52.5 -144.5 q52.5 -48.5 148.5 -48.5 q38 0 86 24 q48 24 78 54 q10 10 22 21 q12 11 22.5 24.5 q10.5 13.5 10.5 18.5 ZM592 -227 q0 -40 -28.5 -68.5 q-28.5 -28.5 -67.5 -28.5 q-39 0 -68 29 q-29 29 -29 68 q0 40 29 68 q29 28 68 28 q39 0 67.5 -27.5 q28.5 -27.5 28.5 -68.5 Z" /><glyph glyph-name="ahoahoi" unicode="&#x1ea2;" d="M719 1425 l614 -1431 q-26 2 -43 3 q-17 1 -28.5 2 q-11.5 1 -34.5 1 q-20 0 -51 -2 q-31 -2 -58 -4 q-104 301 -215 553 l-520 0 q-48 -120 -80 -202 q-32 -82 -65.5 -176 q-33.5 -94 -57.5 -175 q-18 2 -30.5 3 q-12.5 1 -21 2 q-8.5 1 -24.5 1 q-17 0 -25 -1 q-8 -1 -20 -2 q-12 -1 -26 -3 l639 1431 l47 0 ZM872 633 l-227 524 l-223 -524 l450 0 ZM834 1710 l-68 -47 q-20 -12 -32.5 -19.5 q-12.5 -7.5 -22 -18.5 q-9.5 -11 -9.5 -23 q9 -43 72 -43 q11 0 35 4 l-23 -33 q-6 -2 -32 -2 q-57 0 -99.5 23.5 q-42.5 23.5 -42.5 62.5 q0 25 18.5 45 q18.5 20 51.5 41 l74 47 q63 38 63 72 q0 22 -32 37.5 q-32 15.5 -76 15.5 q-29 0 -57 -9.5 q-28 -9.5 -44 -23.5 l-6 45 q71 23 119 23 q86 0 134 -26 q48 -26 48 -71 q0 -32 -17.5 -53.5 q-17.5 -21.5 -53.5 -46.5 Z" /><glyph glyph-name="ahoanang" unicode="&#x1ea0;" d="M719 1425 l614 -1431 q-26 2 -43 3 q-17 1 -28.5 2 q-11.5 1 -34.5 1 q-20 0 -51 -2 q-31 -2 -58 -4 q-104 301 -215 553 l-520 0 q-48 -120 -80 -202 q-32 -82 -65.5 -176 q-33.5 -94 -57.5 -175 q-18 2 -30.5 3 q-12.5 1 -21 2 q-8.5 1 -24.5 1 q-17 0 -25 -1 q-8 -1 -20 -2 q-12 -1 -26 -3 l639 1431 l47 0 ZM872 633 l-227 524 l-223 -524 l450 0 ZM717 -231 q0 -40 -28.5 -68.5 q-28.5 -28.5 -67.5 -28.5 q-39 0 -68 29 q-29 29 -29 68 q0 40 29 68 q29 28 68 28 q39 0 67.5 -27.5 q28.5 -27.5 28.5 -68.5 Z" /><glyph glyph-name="ethhoi" unicode="&#x1ebb;" d="M907 205 l-2 -107 q-82 -57 -172.5 -89 q-90.5 -32 -179.5 -32 q-141 0 -251 60.5 q-110 60.5 -171 174.5 q-61 114 -61 269 q0 144 54 258.5 q54 114.5 160.5 180 q106.5 65.5 254.5 65.5 q83 0 159 -28.5 q76 -28.5 133 -84 q57 -55.5 91 -142 q34 -86.5 34 -202.5 q0 -14 -0.5 -23.5 q-0.5 -9.5 -1.5 -21.5 q-208 6 -415 6 l-289 0 q-2 -14 -2 -43 q0 -78 23 -147.5 q23 -69.5 69.5 -123 q46.5 -53.5 114 -83 q67.5 -29.5 149.5 -29.5 q156 0 303 142 ZM250 565 l545 0 q-4 158 -61 257.5 q-57 99.5 -195 99.5 q-91 0 -153.5 -50.5 q-62.5 -50.5 -96 -132.5 q-33.5 -82 -39.5 -174 ZM633 1270 l-68 -47 q-9 -6 -28 -18 q-19 -12 -27 -21.5 q-8 -9.5 -8 -22.5 q3 -19 23.5 -31 q20.5 -12 47.5 -12 q11 0 35 4 l-22 -32 q-6 -3 -33 -3 q-57 0 -99 23.5 q-42 23.5 -42 63.5 q0 42 69 86 l74 47 q63 37 63 71 q0 23 -32 38.5 q-32 15.5 -76 15.5 q-63 0 -100 -33 l-7 45 q68 22 119 22 q84 0 133.5 -25.5 q49.5 -25.5 49.5 -70.5 q0 -30 -17 -52.5 q-17 -22.5 -55 -47.5 Z" /><glyph glyph-name="ethnga" unicode="&#x1ebd;" d="M907 205 l-2 -107 q-82 -57 -172.5 -89 q-90.5 -32 -179.5 -32 q-141 0 -251 60.5 q-110 60.5 -171 174.5 q-61 114 -61 269 q0 144 54 258.5 q54 114.5 160.5 180 q106.5 65.5 254.5 65.5 q83 0 159 -28.5 q76 -28.5 133 -84 q57 -55.5 91 -142 q34 -86.5 34 -202.5 q0 -14 -0.5 -23.5 q-0.5 -9.5 -1.5 -21.5 q-208 6 -415 6 l-289 0 q-2 -14 -2 -43 q0 -78 23 -147.5 q23 -69.5 69.5 -123 q46.5 -53.5 114 -83 q67.5 -29.5 149.5 -29.5 q156 0 303 142 ZM250 565 l545 0 q-4 158 -61 257.5 q-57 99.5 -195 99.5 q-91 0 -153.5 -50.5 q-62.5 -50.5 -96 -132.5 q-33.5 -82 -39.5 -174 ZM260 1087 l-41 0 q17 79 68 130 q51 51 123 51 q19 0 45 -6 q30 -11 88 -39 q33 -18 63 -29 q30 -8 45 -8 q45 0 68 31 q11 11 33 57 l53 0 q-13 -49 -38 -91.5 q-25 -42.5 -65.5 -69 q-40.5 -26.5 -91.5 -26.5 q-27 0 -47.5 5.5 q-20.5 5.5 -42 15.5 q-21.5 10 -43.5 20 q-38 19 -65.5 30 q-27.5 11 -53.5 11 q-22 0 -39 -8 q-40 -15 -59 -74 Z" /><glyph glyph-name="ethnang" unicode="&#x1eb9;" d="M907 205 l-2 -107 q-82 -57 -172.5 -89 q-90.5 -32 -179.5 -32 q-141 0 -251 60.5 q-110 60.5 -171 174.5 q-61 114 -61 269 q0 144 54 258.5 q54 114.5 160.5 180 q106.5 65.5 254.5 65.5 q83 0 159 -28.5 q76 -28.5 133 -84 q57 -55.5 91 -142 q34 -86.5 34 -202.5 q0 -14 -0.5 -23.5 q-0.5 -9.5 -1.5 -21.5 q-208 6 -415 6 l-289 0 q-2 -14 -2 -43 q0 -78 23 -147.5 q23 -69.5 69.5 -123 q46.5 -53.5 114 -83 q67.5 -29.5 149.5 -29.5 q156 0 303 142 ZM250 565 l545 0 q-4 158 -61 257.5 q-57 99.5 -195 99.5 q-91 0 -153.5 -50.5 q-62.5 -50.5 -96 -132.5 q-33.5 -82 -39.5 -174 ZM618 -227 q0 -40 -28.5 -68.5 q-28.5 -28.5 -67.5 -28.5 q-38 0 -67 29 q-29 29 -29 68 q0 40 29 68 q29 28 67 28 q39 0 67.5 -27.5 q28.5 -27.5 28.5 -68.5 Z" /><glyph glyph-name="ehoahoi" unicode="&#x1eba;" d="M362 1298 l0 -514 l318 0 q19 0 55 2.5 q36 2.5 61.5 4.5 q25.5 2 65.5 4 q-2 -18 -4 -31 q-2 -13 -2 -23 q0 -6 2 -21 q2 -15 4 -36 q-40 2 -65.5 4 q-25.5 2 -61.5 4 q-36 2 -55 2 l-318 0 l0 -598 q125 0 371 8 q84 3 189 19 q-1 -8 -3 -21.5 q-2 -13.5 -2.5 -21.5 q-0.5 -8 -1.5 -19 q0 -14 2.5 -30 q2.5 -16 4.5 -31 l-740 0 l0 1395 l727 0 q-2 -22 -4 -37 q-2 -15 -2 -25 q0 -9 2 -25 q2 -16 4 -36 q-76 15 -184 22 l-205 4 l-158 0 ZM672 1679 l-68 -47 q-20 -12 -32 -19.5 q-12 -7.5 -21.5 -18.5 q-9.5 -11 -9.5 -23 q3 -18 23.5 -30.5 q20.5 -12.5 47.5 -12.5 q11 0 35 4 l-22 -33 q-7 -2 -33 -2 q-57 0 -99 23.5 q-42 23.5 -42 62.5 q0 44 69 86 l74 47 q63 39 63 72 q0 24 -30 38.5 q-30 14.5 -78 14.5 q-29 0 -57.5 -9.5 q-28.5 -9.5 -42.5 -23.5 l-7 45 q65 23 119 23 q56 0 96.5 -11.5 q40.5 -11.5 63 -33.5 q22.5 -22 22.5 -51 q0 -32 -17 -54 q-17 -22 -54 -47 Z" /><glyph glyph-name="ehoanga" unicode="&#x1ebc;" d="M362 1298 l0 -514 l318 0 q19 0 55 2.5 q36 2.5 61.5 4.5 q25.5 2 65.5 4 q-2 -18 -4 -31 q-2 -13 -2 -23 q0 -6 2 -21 q2 -15 4 -36 q-40 2 -65.5 4 q-25.5 2 -61.5 4 q-36 2 -55 2 l-318 0 l0 -598 q125 0 371 8 q84 3 189 19 q-1 -8 -3 -21.5 q-2 -13.5 -2.5 -21.5 q-0.5 -8 -1.5 -19 q0 -14 2.5 -30 q2.5 -16 4.5 -31 l-740 0 l0 1395 l727 0 q-2 -22 -4 -37 q-2 -15 -2 -25 q0 -9 2 -25 q2 -16 4 -36 q-76 15 -184 22 l-205 4 l-158 0 ZM299 1497 l-41 0 q17 78 68.5 129 q51.5 51 122.5 51 q19 0 45 -6 q35 -12 88 -39 q37 -19 62.5 -28 q25.5 -9 45.5 -9 q44 0 68 31 q9 9 33 57 l53 0 q-18 -76 -68 -131 q-50 -55 -127 -55 q-27 0 -47.5 5.5 q-20.5 5.5 -42 15.5 q-21.5 10 -43.5 20 q-23 11 -41 19.5 q-18 8.5 -39.5 15 q-21.5 6.5 -38.5 6.5 q-22 0 -39 -8 q-40 -15 -59 -74 Z" /><glyph glyph-name="ehoanang" unicode="&#x1eb8;" d="M362 1298 l0 -514 l318 0 q19 0 55 2.5 q36 2.5 61.5 4.5 q25.5 2 65.5 4 q-2 -18 -4 -31 q-2 -13 -2 -23 q0 -6 2 -21 q2 -15 4 -36 q-40 2 -65.5 4 q-25.5 2 -61.5 4 q-36 2 -55 2 l-318 0 l0 -598 q125 0 371 8 q84 3 189 19 q-1 -8 -3 -21.5 q-2 -13.5 -2.5 -21.5 q-0.5 -8 -1.5 -19 q0 -14 2.5 -30 q2.5 -16 4.5 -31 l-740 0 l0 1395 l727 0 q-2 -22 -4 -37 q-2 -15 -2 -25 q0 -9 2 -25 q2 -16 4 -36 q-76 15 -184 22 l-205 4 l-158 0 ZM657 -225 q0 -40 -28.5 -68.5 q-28.5 -28.5 -67.5 -28.5 q-38 0 -67 29 q-29 29 -29 68 q0 40 29 68 q29 28 67 28 q39 0 67.5 -27.5 q28.5 -27.5 28.5 -68.5 Z" /><glyph glyph-name="othhoi" unicode="&#x1ecf;" d="M72 492 q0 109 38.5 199.5 q38.5 90.5 110.5 157 q72 66.5 165.5 101.5 q93.5 35 205.5 35 q140 0 247.5 -61 q107.5 -61 167.5 -174.5 q60 -113.5 60 -264.5 q0 -98 -33 -190 q-33 -92 -99 -164.5 q-66 -72.5 -162.5 -113 q-96.5 -40.5 -217.5 -40.5 q-133 0 -244 61.5 q-111 61.5 -175 179 q-64 117.5 -64 274.5 ZM590 922 q-122 0 -197.5 -66.5 q-75.5 -66.5 -108 -171.5 q-32.5 -105 -32.5 -223 q0 -111 32.5 -205.5 q32.5 -94.5 104.5 -154.5 q72 -60 182 -60 q109 0 180.5 75 q71.5 75 103.5 180.5 q32 105.5 32 199.5 q0 77 -15 150.5 q-15 73.5 -50 136 q-35 62.5 -93 101 q-58 38.5 -139 38.5 ZM690 1270 l-67 -47 q-20 -12 -33.5 -20.5 q-13.5 -8.5 -22 -18.5 q-8.5 -10 -8.5 -23 q3 -19 24 -31 q21 -12 48 -12 q9 0 35 4 l-23 -32 q-6 -3 -33 -3 q-57 0 -99 23.5 q-42 23.5 -42 63.5 q0 24 18.5 44.5 q18.5 20.5 51.5 41.5 l73 47 q64 37 64 71 q0 23 -32.5 38.5 q-32.5 15.5 -76.5 15.5 q-63 0 -100 -33 l-6 45 q68 22 119 22 q85 0 133.5 -25.5 q48.5 -25.5 48.5 -70.5 q0 -30 -17 -52.5 q-17 -22.5 -55 -47.5 Z" /><glyph glyph-name="othnang" unicode="&#x1ecd;" d="M72 492 q0 109 38.5 199.5 q38.5 90.5 110.5 157 q72 66.5 165.5 101.5 q93.5 35 205.5 35 q140 0 247.5 -61 q107.5 -61 167.5 -174.5 q60 -113.5 60 -264.5 q0 -98 -33 -190 q-33 -92 -99 -164.5 q-66 -72.5 -162.5 -113 q-96.5 -40.5 -217.5 -40.5 q-133 0 -244 61.5 q-111 61.5 -175 179 q-64 117.5 -64 274.5 ZM590 922 q-122 0 -197.5 -66.5 q-75.5 -66.5 -108 -171.5 q-32.5 -105 -32.5 -223 q0 -111 32.5 -205.5 q32.5 -94.5 104.5 -154.5 q72 -60 182 -60 q109 0 180.5 75 q71.5 75 103.5 180.5 q32 105.5 32 199.5 q0 77 -15 150.5 q-15 73.5 -50 136 q-35 62.5 -93 101 q-58 38.5 -139 38.5 ZM655 -227 q0 -40 -28.5 -68.5 q-28.5 -28.5 -67.5 -28.5 q-38 0 -67 29 q-29 29 -29 68 q0 40 29 68 q29 28 67 28 q39 0 67.5 -27.5 q28.5 -27.5 28.5 -68.5 Z" /><glyph glyph-name="ohoahoi" unicode="&#x1ece;" d="M1419 709 q0 97 -10.5 170 q-10.5 73 -39.5 145 q-29 72 -79 135 q-50 63 -118 108 q-68 45 -148 68 q-80 23 -160 23 q-133 0 -240.5 -48.5 q-107.5 -48.5 -183 -140 q-75.5 -91.5 -114.5 -219.5 q-39 -128 -39 -280 q0 -151 42.5 -268.5 q42.5 -117.5 120 -200 q77.5 -82.5 180.5 -123.5 q103 -41 216 -41 q146 0 256 63.5 q110 63.5 179.5 165 q69.5 101.5 103.5 220.5 q34 119 34 223 ZM840 -31 q-168 0 -308 51.5 q-140 51.5 -240 148 q-100 96.5 -153 230.5 q-53 134 -53 295 q0 164 58 301 q58 137 162 233 q104 96 240.5 146.5 q136.5 50.5 297.5 50.5 q149 0 288.5 -41.5 q139.5 -41.5 249 -127.5 q109.5 -86 174 -219.5 q64.5 -133.5 64.5 -311.5 q0 -223 -99 -395.5 q-99 -172.5 -277.5 -266.5 q-178.5 -94 -403.5 -94 ZM973 1710 l-68 -47 q-9 -6 -27 -17 q-18 -11 -27 -21.5 q-9 -10.5 -9 -22.5 q3 -18 23.5 -30.5 q20.5 -12.5 47.5 -12.5 q11 0 35 4 l-22 -33 q-6 -2 -33 -2 q-57 0 -99 23.5 q-42 23.5 -42 62.5 q0 42 69 86 l74 47 q63 37 63 72 q0 22 -32 37.5 q-32 15.5 -76 15.5 q-29 0 -57.5 -9.5 q-28.5 -9.5 -42.5 -23.5 l-7 45 q71 23 119 23 q86 0 134 -26 q48 -26 48 -71 q0 -32 -17.5 -53.5 q-17.5 -21.5 -53.5 -46.5 Z" /><glyph glyph-name="ohoanang" unicode="&#x1ecc;" d="M1419 709 q0 97 -10.5 170 q-10.5 73 -39.5 145 q-29 72 -79 135 q-50 63 -118 108 q-68 45 -148 68 q-80 23 -160 23 q-133 0 -240.5 -48.5 q-107.5 -48.5 -183 -140 q-75.5 -91.5 -114.5 -219.5 q-39 -128 -39 -280 q0 -151 42.5 -268.5 q42.5 -117.5 120 -200 q77.5 -82.5 180.5 -123.5 q103 -41 216 -41 q146 0 256 63.5 q110 63.5 179.5 165 q69.5 101.5 103.5 220.5 q34 119 34 223 ZM840 -31 q-168 0 -308 51.5 q-140 51.5 -240 148 q-100 96.5 -153 230.5 q-53 134 -53 295 q0 164 58 301 q58 137 162 233 q104 96 240.5 146.5 q136.5 50.5 297.5 50.5 q149 0 288.5 -41.5 q139.5 -41.5 249 -127.5 q109.5 -86 174 -219.5 q64.5 -133.5 64.5 -311.5 q0 -223 -99 -395.5 q-99 -172.5 -277.5 -266.5 q-178.5 -94 -403.5 -94 ZM928 -236 q0 -39 -29.5 -67.5 q-29.5 -28.5 -67.5 -28.5 q-38 0 -67 29 q-29 29 -29 67 q0 39 29 68 q29 29 67 29 q38 0 67.5 -28.5 q29.5 -28.5 29.5 -68.5 Z" /><glyph glyph-name="ithhoi" unicode="&#x1ec9;" d="M367 973 l0 -979 q-20 2 -33.5 3 q-13.5 1 -22.5 2 q-9 1 -26 1 q-19 0 -24.5 -0.5 q-5.5 -0.5 -22.5 -2 q-17 -1.5 -35 -3.5 l0 979 q26 -2 47 -4 q21 -2 35 -2 q13 0 33.5 2 q20.5 2 48.5 4 ZM406 1317 l-68 -47 q-20 -12 -33.5 -20.5 q-13.5 -8.5 -22 -18.5 q-8.5 -10 -8.5 -23 q5 -19 25 -31 q20 -12 47 -12 q11 0 35 4 l-23 -32 q-6 -2 -32 -2 q-57 0 -99.5 23.5 q-42.5 23.5 -42.5 62.5 q0 24 18.5 44.5 q18.5 20.5 51.5 41.5 l74 47 q63 38 63 71 q0 23 -32 38.5 q-32 15.5 -76 15.5 q-62 0 -101 -33 l-6 45 q68 22 119 22 q85 0 133.5 -25.5 q48.5 -25.5 48.5 -70.5 q0 -32 -17.5 -53.5 q-17.5 -21.5 -53.5 -46.5 Z" /><glyph glyph-name="ithnga" unicode="&#x129;" d="M367 973 l0 -979 q-20 2 -33.5 3 q-13.5 1 -22.5 2 q-9 1 -26 1 q-19 0 -24.5 -0.5 q-5.5 -0.5 -22.5 -2 q-17 -1.5 -35 -3.5 l0 979 q26 -2 47 -4 q21 -2 35 -2 q13 0 33.5 2 q20.5 2 48.5 4 ZM53 1114 l-41 0 q17 78 68.5 129 q51.5 51 122.5 51 q19 0 45 -6 q33 -11 88 -39 q37 -19 63 -28 q34 -9 45 -9 q45 0 68 31 q15 15 33 57 l53 0 q-18 -76 -68 -131 q-50 -55 -127 -55 q-27 0 -47.5 5.5 q-20.5 5.5 -42 15.5 q-21.5 10 -43.5 20 q-23 11 -41 19.5 q-18 8.5 -39 15 q-21 6.5 -38 6.5 q-23 0 -39 -8 q-41 -15 -60 -74 Z" /><glyph glyph-name="ithnang" unicode="&#x1ecb;" d="M367 973 l0 -979 q-20 2 -33.5 3 q-13.5 1 -22.5 2 q-9 1 -26 1 q-19 0 -24.5 -0.5 q-5.5 -0.5 -22.5 -2 q-17 -1.5 -35 -3.5 l0 979 q26 -2 47 -4 q21 -2 35 -2 q13 0 33.5 2 q20.5 2 48.5 4 ZM385 1272 q0 -39 -28.5 -67.5 q-28.5 -28.5 -67.5 -28.5 q-38 0 -67 29 q-29 29 -29 67 q0 40 29 68 q29 28 67 28 q39 0 67.5 -27.5 q28.5 -27.5 28.5 -68.5 ZM379 -252 q0 -39 -28.5 -67.5 q-28.5 -28.5 -67.5 -28.5 q-39 0 -68 29 q-29 29 -29 67 q0 40 29 68 q29 28 68 28 q39 0 67.5 -27.5 q28.5 -27.5 28.5 -68.5 Z" /><glyph glyph-name="ihoahoi" unicode="&#x1ec8;" d="M195 -6 l0 1401 q30 -2 52 -4 q22 -2 38 -2 q13 0 35.5 2 q22.5 2 54.5 4 l0 -1401 q-22 2 -37 3 q-15 1 -24.5 2 q-9.5 1 -28.5 1 q-21 0 -31 -1 q-10 -1 -25.5 -2 q-15.5 -1 -33.5 -3 ZM406 1679 l-68 -47 q-20 -12 -32.5 -19.5 q-12.5 -7.5 -22 -18.5 q-9.5 -11 -9.5 -23 q9 -43 72 -43 q11 0 35 4 l-23 -33 q-6 -2 -32 -2 q-57 0 -99.5 23.5 q-42.5 23.5 -42.5 62.5 q0 25 17 44.5 q17 19.5 53 41.5 l74 47 q63 40 63 72 q0 24 -30 38.5 q-30 14.5 -78 14.5 q-29 0 -57 -9.5 q-28 -9.5 -44 -23.5 l-6 45 q65 23 119 23 q56 0 96.5 -11.5 q40.5 -11.5 63 -33.5 q22.5 -22 22.5 -51 q0 -32 -17 -54 q-17 -22 -54 -47 Z" /><glyph glyph-name="ihoanga" unicode="&#x128;" d="M195 -6 l0 1401 q30 -2 52 -4 q22 -2 38 -2 q13 0 35.5 2 q22.5 2 54.5 4 l0 -1401 q-22 2 -37 3 q-15 1 -24.5 2 q-9.5 1 -28.5 1 q-21 0 -31 -1 q-10 -1 -25.5 -2 q-15.5 -1 -33.5 -3 ZM33 1497 l-41 0 q15 77 67.5 128.5 q52.5 51.5 122.5 51.5 q21 0 45 -6 q38 -12 88 -39 q45 -21 64 -28 q25 -9 45 -9 q44 0 68 31 q12 12 32 57 l54 0 q-18 -76 -68 -131 q-50 -55 -127 -55 q-27 0 -47.5 5.5 q-20.5 5.5 -42 15.5 q-21.5 10 -43.5 20 q-23 11 -41 19.5 q-18 8.5 -39.5 15 q-21.5 6.5 -38.5 6.5 q-23 0 -39 -8 q-40 -14 -59 -74 Z" /><glyph glyph-name="ihoanang" unicode="&#x1eca;" d="M195 -6 l0 1401 q30 -2 52 -4 q22 -2 38 -2 q13 0 35.5 2 q22.5 2 54.5 4 l0 -1401 q-22 2 -37 3 q-15 1 -24.5 2 q-9.5 1 -28.5 1 q-21 0 -31 -1 q-10 -1 -25.5 -2 q-15.5 -1 -33.5 -3 ZM381 -221 q0 -39 -28.5 -67.5 q-28.5 -28.5 -67.5 -28.5 q-39 0 -68 29 q-29 29 -29 67 q0 40 29 68 q29 28 68 28 q39 0 67.5 -27.5 q28.5 -27.5 28.5 -68.5 Z" /><glyph glyph-name="uthhoi" unicode="&#x1ee7;" d="M969 973 l0 -979 q-20 2 -33.5 3 q-13.5 1 -22.5 2 q-9 1 -26 1 q-19 0 -24.5 -0.5 q-5.5 -0.5 -22.5 -2 q-17 -1.5 -35 -3.5 l0 176 q-33 -63 -81.5 -106 q-48.5 -43 -109.5 -65 q-61 -22 -135 -22 q-172 0 -255 94 q-83 94 -83 300 l0 602 q26 -2 46.5 -4 q20.5 -2 35.5 -2 q13 0 33.5 2 q20.5 2 48.5 4 l0 -553 q0 -111 24.5 -186.5 q24.5 -75.5 79 -115.5 q54.5 -40 144.5 -40 q97 0 153 49 q56 49 77.5 123 q21.5 74 21.5 158 l0 565 q26 -2 47 -4 q21 -2 35 -2 q13 0 33.5 2 q20.5 2 48.5 4 ZM676 1257 l-68 -47 q-15 -10 -31 -19.5 q-16 -9.5 -24 -19 q-8 -9.5 -8 -22.5 q3 -19 23.5 -31 q20.5 -12 47.5 -12 q11 0 35 4 l-22 -33 q-6 -2 -33 -2 q-57 0 -99 23.5 q-42 23.5 -42 62.5 q0 44 69 86 l74 47 q64 39 64 72 q0 24 -31 38.5 q-31 14.5 -78 14.5 q-29 0 -57.5 -9.5 q-28.5 -9.5 -42.5 -23.5 l-7 46 q68 22 119 22 q56 0 97.5 -11.5 q41.5 -11.5 63.5 -33.5 q22 -22 22 -51 q0 -30 -16.5 -52 q-16.5 -22 -55.5 -49 Z" /><glyph glyph-name="uthnga" unicode="&#x169;" d="M969 973 l0 -979 q-20 2 -33.5 3 q-13.5 1 -22.5 2 q-9 1 -26 1 q-19 0 -24.5 -0.5 q-5.5 -0.5 -22.5 -2 q-17 -1.5 -35 -3.5 l0 176 q-33 -63 -81.5 -106 q-48.5 -43 -109.5 -65 q-61 -22 -135 -22 q-172 0 -255 94 q-83 94 -83 300 l0 602 q26 -2 46.5 -4 q20.5 -2 35.5 -2 q13 0 33.5 2 q20.5 2 48.5 4 l0 -553 q0 -111 24.5 -186.5 q24.5 -75.5 79 -115.5 q54.5 -40 144.5 -40 q97 0 153 49 q56 49 77.5 123 q21.5 74 21.5 158 l0 565 q26 -2 47 -4 q21 -2 35 -2 q13 0 33.5 2 q20.5 2 48.5 4 ZM303 1075 l-41 0 q17 79 68.5 129.5 q51.5 50.5 122.5 50.5 q19 0 45 -6 q35 -12 88 -39 q37 -19 63 -28 q30 -8 45 -8 q45 0 68 30 q11 12 33 58 l53 0 q-13 -51 -38.5 -93.5 q-25.5 -42.5 -65.5 -68 q-40 -25.5 -91 -25.5 q-27 0 -47.5 5.5 q-20.5 5.5 -42 15.5 q-21.5 10 -43.5 20 q-38 19 -65.5 30 q-27.5 11 -53.5 11 q-22 0 -39 -8 q-40 -15 -59 -74 Z" /><glyph glyph-name="uthnang" unicode="&#x1ee5;" d="M969 973 l0 -979 q-20 2 -33.5 3 q-13.5 1 -22.5 2 q-9 1 -26 1 q-19 0 -24.5 -0.5 q-5.5 -0.5 -22.5 -2 q-17 -1.5 -35 -3.5 l0 176 q-33 -63 -81.5 -106 q-48.5 -43 -109.5 -65 q-61 -22 -135 -22 q-172 0 -255 94 q-83 94 -83 300 l0 602 q26 -2 46.5 -4 q20.5 -2 35.5 -2 q13 0 33.5 2 q20.5 2 48.5 4 l0 -553 q0 -111 24.5 -186.5 q24.5 -75.5 79 -115.5 q54.5 -40 144.5 -40 q97 0 153 49 q56 49 77.5 123 q21.5 74 21.5 158 l0 565 q26 -2 47 -4 q21 -2 35 -2 q13 0 33.5 2 q20.5 2 48.5 4 ZM651 -217 q0 -39 -28.5 -67.5 q-28.5 -28.5 -67.5 -28.5 q-38 0 -67 29 q-29 29 -29 67 q0 40 29 68 q29 28 67 28 q39 0 67.5 -27.5 q28.5 -27.5 28.5 -68.5 Z" /><glyph glyph-name="uhoahoi" unicode="&#x1ee6;" d="M373 1395 l0 -785 q0 -137 22.5 -239 q22.5 -102 74.5 -171 q52 -69 139.5 -103 q87.5 -34 215.5 -34 q233 0 338 150.5 q105 150.5 105 417.5 l0 764 q18 -2 32 -4 q14 -2 25 -2 q8 0 22.5 2 q14.5 2 34.5 4 l0 -815 q0 -198 -73 -335.5 q-73 -137.5 -208.5 -206.5 q-135.5 -69 -316.5 -69 q-102 0 -182 16 q-80 16 -144 47.5 q-64 31.5 -118 80.5 q-88 79 -116.5 195 q-28.5 116 -30.5 267 l0 820 q30 -2 52 -4 q22 -2 38 -2 q13 0 35.5 2 q22.5 2 54.5 4 ZM907 1679 l-67 -47 q-20 -12 -32.5 -19.5 q-12.5 -7.5 -22 -18.5 q-9.5 -11 -9.5 -23 q7 -43 72 -43 q9 0 35 4 l-23 -33 q-6 -2 -33 -2 q-57 0 -99 23.5 q-42 23.5 -42 62.5 q0 25 17 44.5 q17 19.5 53 41.5 l73 47 q64 39 64 72 q0 24 -31 38.5 q-31 14.5 -78 14.5 q-29 0 -57 -9.5 q-28 -9.5 -43 -23.5 l-6 45 q65 23 119 23 q56 0 96.5 -11.5 q40.5 -11.5 63 -33.5 q22.5 -22 22.5 -51 q0 -30 -16.5 -52 q-16.5 -22 -55.5 -49 Z" /><glyph glyph-name="uhoanga" unicode="&#x168;" d="M373 1395 l0 -785 q0 -137 22.5 -239 q22.5 -102 74.5 -171 q52 -69 139.5 -103 q87.5 -34 215.5 -34 q233 0 338 150.5 q105 150.5 105 417.5 l0 764 q18 -2 32 -4 q14 -2 25 -2 q8 0 22.5 2 q14.5 2 34.5 4 l0 -815 q0 -198 -73 -335.5 q-73 -137.5 -208.5 -206.5 q-135.5 -69 -316.5 -69 q-102 0 -182 16 q-80 16 -144 47.5 q-64 31.5 -118 80.5 q-88 79 -116.5 195 q-28.5 116 -30.5 267 l0 820 q30 -2 52 -4 q22 -2 38 -2 q13 0 35.5 2 q22.5 2 54.5 4 ZM535 1497 l-41 0 q15 77 67.5 128.5 q52.5 51.5 122.5 51.5 q21 0 45 -6 q33 -11 88 -39 q45 -21 64 -28 q25 -9 45 -9 q44 0 67 31 q13 12 33 57 l53 0 q-18 -79 -68 -132.5 q-50 -53.5 -126 -53.5 q-27 0 -47.5 5.5 q-20.5 5.5 -42 15.5 q-21.5 10 -43.5 20 q-23 11 -41 19.5 q-18 8.5 -39.5 15 q-21.5 6.5 -38.5 6.5 q-23 0 -39 -8 q-40 -14 -59 -74 Z" /><glyph glyph-name="uhoanang" unicode="&#x1ee4;" d="M373 1395 l0 -785 q0 -137 22.5 -239 q22.5 -102 74.5 -171 q52 -69 139.5 -103 q87.5 -34 215.5 -34 q233 0 338 150.5 q105 150.5 105 417.5 l0 764 q18 -2 32 -4 q14 -2 25 -2 q8 0 22.5 2 q14.5 2 34.5 4 l0 -815 q0 -198 -73 -335.5 q-73 -137.5 -208.5 -206.5 q-135.5 -69 -316.5 -69 q-102 0 -182 16 q-80 16 -144 47.5 q-64 31.5 -118 80.5 q-88 79 -116.5 195 q-28.5 116 -30.5 267 l0 820 q30 -2 52 -4 q22 -2 38 -2 q13 0 35.5 2 q22.5 2 54.5 4 ZM893 -236 q0 -39 -28.5 -67.5 q-28.5 -28.5 -67.5 -28.5 q-39 0 -68 29 q-29 29 -29 67 q0 39 29 68 q29 29 68 29 q39 0 67.5 -28.5 q28.5 -28.5 28.5 -68.5 Z" /><glyph glyph-name="ythhuyen" unicode="&#x1ef3;" d="M467 2 l-414 971 q32 -2 57 -4 q25 -2 42 -2 q15 0 38.5 2 q23.5 2 57.5 4 q52 -161 129.5 -355.5 q77.5 -194.5 175.5 -404.5 q66 135 150 346.5 q84 211.5 157 413.5 q20 -2 37.5 -4 q17.5 -2 30.5 -2 q9 0 26 2 q17 2 39 4 q-79 -175 -175 -386.5 q-96 -211.5 -183.5 -406.5 q-87.5 -195 -162.5 -371 q-75 -176 -140 -339 q-18 2 -29 3 q-11 1 -18.5 2 q-7.5 1 -22.5 1 q-16 0 -24 -1 q-8 -1 -19.5 -2 q-11.5 -1 -25.5 -3 q204 400 274 532 ZM684 1092 l-66 0 l-278 174 q-12 9 -25 18 q-13 9 -20 21 q-2 16 -2 49 q13 39 74 39 q16 -4 20 -9 q16 -11 33 -29 q17 -18 33 -34 l231 -229 Z" /><glyph glyph-name="ythhoi" unicode="&#x1ef7;" d="M467 2 l-414 971 q32 -2 57 -4 q25 -2 42 -2 q15 0 38.5 2 q23.5 2 57.5 4 q52 -161 129.5 -355.5 q77.5 -194.5 175.5 -404.5 q66 135 150 346.5 q84 211.5 157 413.5 q20 -2 37.5 -4 q17.5 -2 30.5 -2 q9 0 26 2 q17 2 39 4 q-79 -175 -175 -386.5 q-96 -211.5 -183.5 -406.5 q-87.5 -195 -162.5 -371 q-75 -176 -140 -339 q-18 2 -29 3 q-11 1 -18.5 2 q-7.5 1 -22.5 1 q-16 0 -24 -1 q-8 -1 -19.5 -2 q-11.5 -1 -25.5 -3 q204 400 274 532 ZM643 1257 l-68 -47 q-15 -10 -31 -19.5 q-16 -9.5 -24 -19 q-8 -9.5 -8 -22.5 q7 -43 72 -43 q10 0 34 4 l-22 -33 q-6 -2 -33 -2 q-57 0 -99 23.5 q-42 23.5 -42 62.5 q0 25 17 44.5 q17 19.5 53 41.5 l73 47 q64 39 64 72 q0 24 -31 38.5 q-31 14.5 -78 14.5 q-29 0 -57.5 -9.5 q-28.5 -9.5 -42.5 -23.5 l-6 46 q68 22 118 22 q56 0 97.5 -11.5 q41.5 -11.5 63.5 -33.5 q22 -22 22 -51 q0 -30 -16.5 -52 q-16.5 -22 -55.5 -49 Z" /><glyph glyph-name="ythnga" unicode="&#x1ef9;" d="M467 2 l-414 971 q32 -2 57 -4 q25 -2 42 -2 q15 0 38.5 2 q23.5 2 57.5 4 q52 -161 129.5 -355.5 q77.5 -194.5 175.5 -404.5 q66 135 150 346.5 q84 211.5 157 413.5 q20 -2 37.5 -4 q17.5 -2 30.5 -2 q9 0 26 2 q17 2 39 4 q-79 -175 -175 -386.5 q-96 -211.5 -183.5 -406.5 q-87.5 -195 -162.5 -371 q-75 -176 -140 -339 q-18 2 -29 3 q-11 1 -18.5 2 q-7.5 1 -22.5 1 q-16 0 -24 -1 q-8 -1 -19.5 -2 q-11.5 -1 -25.5 -3 q204 400 274 532 ZM332 1085 l-41 0 q15 79 67 130 q52 51 123 51 q21 0 45 -6 q34 -12 88 -39 q38 -20 64 -29 q28 -8 45 -8 q45 0 68 30 q14 15 32 58 l54 0 q-13 -49 -38 -91.5 q-25 -42.5 -65.5 -69 q-40.5 -26.5 -91.5 -26.5 q-27 0 -47.5 5.5 q-20.5 5.5 -42 15.5 q-21.5 10 -43.5 20 q-38 19 -65.5 30 q-27.5 11 -53.5 11 q-23 0 -39 -8 q-40 -14 -59 -74 Z" /><glyph glyph-name="ythnang" unicode="&#x1ef5;" d="M467 2 l-414 971 q32 -2 57 -4 q25 -2 42 -2 q15 0 38.5 2 q23.5 2 57.5 4 q52 -161 129.5 -355.5 q77.5 -194.5 175.5 -404.5 q66 135 150 346.5 q84 211.5 157 413.5 q20 -2 37.5 -4 q17.5 -2 30.5 -2 q9 0 26 2 q17 2 39 4 q-79 -175 -175 -386.5 q-96 -211.5 -183.5 -406.5 q-87.5 -195 -162.5 -371 q-75 -176 -140 -339 q-18 2 -29 3 q-11 1 -18.5 2 q-7.5 1 -22.5 1 q-16 0 -24 -1 q-8 -1 -19.5 -2 q-11.5 -1 -25.5 -3 q204 400 274 532 ZM762 -428 q0 -39 -28.5 -67.5 q-28.5 -28.5 -67.5 -28.5 q-39 0 -68 29 q-29 29 -29 67 q0 40 29 68 q29 28 68 28 q39 0 67.5 -27.5 q28.5 -27.5 28.5 -68.5 Z" /><glyph glyph-name="yhoahuyen" unicode="&#x1ef2;" d="M723 623 l0 -629 q-22 2 -36.5 3 q-14.5 1 -24.5 2 q-10 1 -29 1 q-21 0 -31 -1 q-10 -1 -25.5 -2 q-15.5 -1 -33.5 -3 l0 590 l-502 811 q38 -2 66.5 -4 q28.5 -2 48.5 -2 q17 0 44.5 2 q27.5 2 67.5 4 q57 -110 123 -228.5 q66 -118.5 151 -265.5 q85 -147 115 -192 q24 27 74.5 112.5 q50.5 85.5 118.5 208 q68 122.5 113.5 207 q45.5 84.5 85.5 158.5 q26 -2 45.5 -4 q19.5 -2 33.5 -2 q13 0 32.5 2 q19.5 2 47.5 4 q-79 -102 -145 -205 l-225 -363 q-65 -98 -115 -204 ZM786 1503 l-65 0 l-279 174 q-8 6 -16.5 12 q-8.5 6 -15 11.5 q-6.5 5.5 -13.5 15.5 q-2 17 -2 49 q12 39 74 39 q16 -4 20 -8 q11 -8 66 -63 l231 -230 Z" /><glyph glyph-name="yhoahoi" unicode="&#x1ef6;" d="M723 623 l0 -629 q-22 2 -36.5 3 q-14.5 1 -24.5 2 q-10 1 -29 1 q-21 0 -31 -1 q-10 -1 -25.5 -2 q-15.5 -1 -33.5 -3 l0 590 l-502 811 q38 -2 66.5 -4 q28.5 -2 48.5 -2 q17 0 44.5 2 q27.5 2 67.5 4 q57 -110 123 -228.5 q66 -118.5 151 -265.5 q85 -147 115 -192 q24 27 74.5 112.5 q50.5 85.5 118.5 208 q68 122.5 113.5 207 q45.5 84.5 85.5 158.5 q26 -2 45.5 -4 q19.5 -2 33.5 -2 q13 0 32.5 2 q19.5 2 47.5 4 q-79 -102 -145 -205 l-225 -363 q-65 -98 -115 -204 ZM745 1679 l-67 -47 q-20 -12 -32.5 -19.5 q-12.5 -7.5 -22 -18.5 q-9.5 -11 -9.5 -23 q7 -43 72 -43 q11 0 35 4 l-23 -33 q-6 -2 -32 -2 q-57 0 -99.5 23.5 q-42.5 23.5 -42.5 62.5 q0 25 17 44.5 q17 19.5 53 41.5 l74 47 q63 40 63 72 q0 24 -30 38.5 q-30 14.5 -78 14.5 q-29 0 -57 -9.5 q-28 -9.5 -44 -23.5 l-6 45 q65 23 119 23 q56 0 96.5 -11.5 q40.5 -11.5 63 -33.5 q22.5 -22 22.5 -51 q0 -32 -16.5 -53 q-16.5 -21 -55.5 -48 Z" /><glyph glyph-name="yhoanga" unicode="&#x1ef8;" d="M723 623 l0 -629 q-22 2 -36.5 3 q-14.5 1 -24.5 2 q-10 1 -29 1 q-21 0 -31 -1 q-10 -1 -25.5 -2 q-15.5 -1 -33.5 -3 l0 590 l-502 811 q38 -2 66.5 -4 q28.5 -2 48.5 -2 q17 0 44.5 2 q27.5 2 67.5 4 q57 -110 123 -228.5 q66 -118.5 151 -265.5 q85 -147 115 -192 q24 27 74.5 112.5 q50.5 85.5 118.5 208 q68 122.5 113.5 207 q45.5 84.5 85.5 158.5 q26 -2 45.5 -4 q19.5 -2 33.5 -2 q13 0 32.5 2 q19.5 2 47.5 4 q-79 -102 -145 -205 l-225 -363 q-65 -98 -115 -204 ZM373 1497 l-41 0 q15 77 67.5 128.5 q52.5 51.5 122.5 51.5 q21 0 45 -6 q38 -12 88 -39 q45 -21 64 -28 q25 -9 45 -9 q44 0 67 31 q13 12 33 57 l54 0 q-18 -77 -68.5 -131.5 q-50.5 -54.5 -126.5 -54.5 q-27 0 -47.5 5.5 q-20.5 5.5 -42 15.5 q-21.5 10 -43.5 20 q-23 11 -41 19.5 q-18 8.5 -39.5 15 q-21.5 6.5 -38.5 6.5 q-23 0 -39 -8 q-40 -14 -59 -74 Z" /><glyph glyph-name="yhoanang" unicode="&#x1ef4;" d="M723 623 l0 -629 q-22 2 -36.5 3 q-14.5 1 -24.5 2 q-10 1 -29 1 q-21 0 -31 -1 q-10 -1 -25.5 -2 q-15.5 -1 -33.5 -3 l0 590 l-502 811 q38 -2 66.5 -4 q28.5 -2 48.5 -2 q17 0 44.5 2 q27.5 2 67.5 4 q57 -110 123 -228.5 q66 -118.5 151 -265.5 q85 -147 115 -192 q24 27 74.5 112.5 q50.5 85.5 118.5 208 q68 122.5 113.5 207 q45.5 84.5 85.5 158.5 q26 -2 45.5 -4 q19.5 -2 33.5 -2 q13 0 32.5 2 q19.5 2 47.5 4 q-79 -102 -145 -205 l-225 -363 q-65 -98 -115 -204 ZM731 -231 q0 -40 -28.5 -68.5 q-28.5 -28.5 -67.5 -28.5 q-38 0 -67 29 q-29 29 -29 68 q0 40 29 68 q29 28 67 28 q39 0 67.5 -27.5 q28.5 -27.5 28.5 -68.5 Z" /><glyph glyph-name="octhsac" unicode="&#x1edb;" d="M61 492 q0 109 39.5 199.5 q39.5 90.5 110.5 156.5 q71 66 165 101.5 q94 35.5 206 35.5 q88 0 162 -26 q74 -26 127.5 -67.5 q53.5 -41.5 89.5 -90.5 q36 -49 49 -92 q88 93 88 202 q0 84 84 84 q23 0 39 -24 q16 -24 16 -60 q0 -45 -74 -144.5 q-74 -99.5 -123 -137.5 q17 -62 17 -144 q0 -98 -33 -190 q-33 -92 -99 -164.5 q-66 -72.5 -162.5 -113 q-96.5 -40.5 -217.5 -40.5 q-133 0 -244.5 62 q-111.5 62 -175.5 179 q-64 117 -64 274 ZM580 922 q-179 0 -258.5 -134.5 q-79.5 -134.5 -79.5 -326.5 q0 -111 32.5 -205.5 q32.5 -94.5 104.5 -154.5 q72 -60 182 -60 q109 0 180.5 75 q71.5 75 103.5 180.5 q32 105.5 32 199.5 q0 77 -15 150.5 q-15 73.5 -50 136 q-35 62.5 -93 101 q-58 38.5 -139 38.5 ZM760 1270 l-285 -183 l-61 0 l229 230 q12 11 25 24 q13 13 20 21 q6 3 21.5 16.5 q15.5 13.5 25.5 14.5 q62 0 72 -39 q0 -10 -1 -27 q-1 -17 -3 -20 q-3 -6 -8 -12 q-5 -6 -13 -11 q-8 -5 -22 -14 Z" /><glyph glyph-name="octhhuyen" unicode="&#x1edd;" d="M61 492 q0 109 39.5 199.5 q39.5 90.5 110.5 156.5 q71 66 165 101.5 q94 35.5 206 35.5 q88 0 162 -26 q74 -26 127.5 -67.5 q53.5 -41.5 89.5 -90.5 q36 -49 49 -92 q88 93 88 202 q0 84 84 84 q23 0 39 -24 q16 -24 16 -60 q0 -45 -74 -144.5 q-74 -99.5 -123 -137.5 q17 -62 17 -144 q0 -98 -33 -190 q-33 -92 -99 -164.5 q-66 -72.5 -162.5 -113 q-96.5 -40.5 -217.5 -40.5 q-133 0 -244.5 62 q-111.5 62 -175.5 179 q-64 117 -64 274 ZM580 922 q-179 0 -258.5 -134.5 q-79.5 -134.5 -79.5 -326.5 q0 -111 32.5 -205.5 q32.5 -94.5 104.5 -154.5 q72 -60 182 -60 q109 0 180.5 75 q71.5 75 103.5 180.5 q32 105.5 32 199.5 q0 77 -15 150.5 q-15 73.5 -50 136 q-35 62.5 -93 101 q-58 38.5 -139 38.5 ZM782 1094 l-65 0 l-279 174 q-12 9 -25 18 q-13 9 -20 21 q-2 16 -2 49 q13 39 74 39 q16 -4 20 -9 q16 -11 33 -29 q17 -18 33 -34 l231 -229 Z" /><glyph glyph-name="octhhoi" unicode="&#x1edf;" d="M61 492 q0 109 39.5 199.5 q39.5 90.5 110.5 156.5 q71 66 165 101.5 q94 35.5 206 35.5 q88 0 162 -26 q74 -26 127.5 -67.5 q53.5 -41.5 89.5 -90.5 q36 -49 49 -92 q88 93 88 202 q0 84 84 84 q23 0 39 -24 q16 -24 16 -60 q0 -45 -74 -144.5 q-74 -99.5 -123 -137.5 q17 -62 17 -144 q0 -98 -33 -190 q-33 -92 -99 -164.5 q-66 -72.5 -162.5 -113 q-96.5 -40.5 -217.5 -40.5 q-133 0 -244.5 62 q-111.5 62 -175.5 179 q-64 117 -64 274 ZM580 922 q-179 0 -258.5 -134.5 q-79.5 -134.5 -79.5 -326.5 q0 -111 32.5 -205.5 q32.5 -94.5 104.5 -154.5 q72 -60 182 -60 q109 0 180.5 75 q71.5 75 103.5 180.5 q32 105.5 32 199.5 q0 77 -15 150.5 q-15 73.5 -50 136 q-35 62.5 -93 101 q-58 38.5 -139 38.5 ZM680 1270 l-68 -47 q-9 -6 -28 -18 q-19 -12 -27 -21.5 q-8 -9.5 -8 -22.5 q3 -19 24 -31 q21 -12 48 -12 q10 0 34 4 l-22 -32 q-6 -3 -33 -3 q-57 0 -99 23.5 q-42 23.5 -42 63.5 q0 42 69 86 l74 47 q64 37 64 71 q0 23 -32.5 38.5 q-32.5 15.5 -76.5 15.5 q-63 0 -100 -33 l-6 45 q66 22 118 22 q84 0 133.5 -25.5 q49.5 -25.5 49.5 -70.5 q0 -30 -17 -52.5 q-17 -22.5 -55 -47.5 Z" /><glyph glyph-name="octhnga" unicode="&#x1ee1;" d="M61 492 q0 109 39.5 199.5 q39.5 90.5 110.5 156.5 q71 66 165 101.5 q94 35.5 206 35.5 q88 0 162 -26 q74 -26 127.5 -67.5 q53.5 -41.5 89.5 -90.5 q36 -49 49 -92 q88 93 88 202 q0 84 84 84 q23 0 39 -24 q16 -24 16 -60 q0 -45 -74 -144.5 q-74 -99.5 -123 -137.5 q17 -62 17 -144 q0 -98 -33 -190 q-33 -92 -99 -164.5 q-66 -72.5 -162.5 -113 q-96.5 -40.5 -217.5 -40.5 q-133 0 -244.5 62 q-111.5 62 -175.5 179 q-64 117 -64 274 ZM580 922 q-179 0 -258.5 -134.5 q-79.5 -134.5 -79.5 -326.5 q0 -111 32.5 -205.5 q32.5 -94.5 104.5 -154.5 q72 -60 182 -60 q109 0 180.5 75 q71.5 75 103.5 180.5 q32 105.5 32 199.5 q0 77 -15 150.5 q-15 73.5 -50 136 q-35 62.5 -93 101 q-58 38.5 -139 38.5 ZM307 1087 l-41 0 q17 79 68 130 q51 51 123 51 q19 0 45 -6 q30 -11 88 -39 q33 -18 63 -29 q30 -8 45 -8 q46 0 68 31 q16 16 33 57 l53 0 q-13 -49 -38 -91.5 q-25 -42.5 -65.5 -69 q-40.5 -26.5 -91.5 -26.5 q-27 0 -47.5 5.5 q-20.5 5.5 -42 15.5 q-21.5 10 -43.5 20 q-38 19 -65.5 30 q-27.5 11 -52.5 11 q-23 0 -39 -8 q-41 -15 -60 -74 Z" /><glyph glyph-name="octhnang" unicode="&#x1ee3;" d="M61 492 q0 109 39.5 199.5 q39.5 90.5 110.5 156.5 q71 66 165 101.5 q94 35.5 206 35.5 q88 0 162 -26 q74 -26 127.5 -67.5 q53.5 -41.5 89.5 -90.5 q36 -49 49 -92 q88 93 88 202 q0 84 84 84 q23 0 39 -24 q16 -24 16 -60 q0 -45 -74 -144.5 q-74 -99.5 -123 -137.5 q17 -62 17 -144 q0 -98 -33 -190 q-33 -92 -99 -164.5 q-66 -72.5 -162.5 -113 q-96.5 -40.5 -217.5 -40.5 q-133 0 -244.5 62 q-111.5 62 -175.5 179 q-64 117 -64 274 ZM580 922 q-179 0 -258.5 -134.5 q-79.5 -134.5 -79.5 -326.5 q0 -111 32.5 -205.5 q32.5 -94.5 104.5 -154.5 q72 -60 182 -60 q109 0 180.5 75 q71.5 75 103.5 180.5 q32 105.5 32 199.5 q0 77 -15 150.5 q-15 73.5 -50 136 q-35 62.5 -93 101 q-58 38.5 -139 38.5 ZM645 -227 q0 -40 -28.5 -68.5 q-28.5 -28.5 -67.5 -28.5 q-38 0 -67 29 q-29 29 -29 68 q0 40 29 68 q29 28 67 28 q39 0 67.5 -27.5 q28.5 -27.5 28.5 -68.5 Z" /><glyph glyph-name="ochoasac" unicode="&#x1eda;" d="M1419 709 q0 97 -10.5 170 q-10.5 73 -39.5 145 q-29 72 -79 135 q-50 63 -118 108 q-68 45 -148 68 q-80 23 -160 23 q-133 0 -240.5 -48.5 q-107.5 -48.5 -183 -140 q-75.5 -91.5 -114.5 -219.5 q-39 -128 -39 -280 q0 -151 42.5 -268.5 q42.5 -117.5 120 -200 q77.5 -82.5 180.5 -123.5 q103 -41 216 -41 q146 0 256 63.5 q110 63.5 179.5 165 q69.5 101.5 103.5 220.5 q34 119 34 223 ZM840 -31 l-2 0 q-168 0 -308 51.5 q-140 51.5 -240 148 q-100 96.5 -153 230.5 q-53 134 -53 295 q0 164 58 301 q58 137 162 233 q104 96 240.5 146.5 q136.5 50.5 297.5 50.5 q176 0 310 -42.5 q134 -42.5 220 -110 q86 -67.5 137 -146.5 q103 108 103 217 q0 84 84 84 q23 0 39 -24 q16 -24 16 -60 q0 -45 -74 -144.5 q-74 -99.5 -123 -137.5 q66 -153 66 -336 q0 -223 -99 -395.5 q-99 -172.5 -277.5 -266.5 q-178.5 -94 -403.5 -94 ZM1092 1710 l-285 -182 l-62 0 l230 229 q16 16 25.5 24.5 q9.5 8.5 19.5 20.5 q10 8 16.5 13.5 q6.5 5.5 14 11 q7.5 5.5 16.5 6.5 q63 0 72 -39 q0 -10 -1 -27 q-1 -17 -3 -20 q-7 -15 -43 -37 Z" /><glyph glyph-name="ochoahuyen" unicode="&#x1edc;" d="M1419 709 q0 97 -10.5 170 q-10.5 73 -39.5 145 q-29 72 -79 135 q-50 63 -118 108 q-68 45 -148 68 q-80 23 -160 23 q-133 0 -240.5 -48.5 q-107.5 -48.5 -183 -140 q-75.5 -91.5 -114.5 -219.5 q-39 -128 -39 -280 q0 -151 42.5 -268.5 q42.5 -117.5 120 -200 q77.5 -82.5 180.5 -123.5 q103 -41 216 -41 q146 0 256 63.5 q110 63.5 179.5 165 q69.5 101.5 103.5 220.5 q34 119 34 223 ZM840 -31 l-2 0 q-168 0 -308 51.5 q-140 51.5 -240 148 q-100 96.5 -153 230.5 q-53 134 -53 295 q0 164 58 301 q58 137 162 233 q104 96 240.5 146.5 q136.5 50.5 297.5 50.5 q176 0 310 -42.5 q134 -42.5 220 -110 q86 -67.5 137 -146.5 q103 108 103 217 q0 84 84 84 q23 0 39 -24 q16 -24 16 -60 q0 -45 -74 -144.5 q-74 -99.5 -123 -137.5 q66 -153 66 -336 q0 -223 -99 -395.5 q-99 -172.5 -277.5 -266.5 q-178.5 -94 -403.5 -94 ZM1073 1534 l-65 0 l-279 174 q-12 9 -25 18 q-13 9 -20 21 q-2 16 -2 49 q12 39 74 39 q16 -4 20 -8 q16 -11 36 -32 q20 -21 30 -32 l231 -229 Z" /><glyph glyph-name="ochoahoi" unicode="&#x1ede;" d="M1419 709 q0 97 -10.5 170 q-10.5 73 -39.5 145 q-29 72 -79 135 q-50 63 -118 108 q-68 45 -148 68 q-80 23 -160 23 q-133 0 -240.5 -48.5 q-107.5 -48.5 -183 -140 q-75.5 -91.5 -114.5 -219.5 q-39 -128 -39 -280 q0 -151 42.5 -268.5 q42.5 -117.5 120 -200 q77.5 -82.5 180.5 -123.5 q103 -41 216 -41 q146 0 256 63.5 q110 63.5 179.5 165 q69.5 101.5 103.5 220.5 q34 119 34 223 ZM840 -31 l-2 0 q-168 0 -308 51.5 q-140 51.5 -240 148 q-100 96.5 -153 230.5 q-53 134 -53 295 q0 164 58 301 q58 137 162 233 q104 96 240.5 146.5 q136.5 50.5 297.5 50.5 q176 0 310 -42.5 q134 -42.5 220 -110 q86 -67.5 137 -146.5 q103 108 103 217 q0 84 84 84 q23 0 39 -24 q16 -24 16 -60 q0 -45 -74 -144.5 q-74 -99.5 -123 -137.5 q66 -153 66 -336 q0 -223 -99 -395.5 q-99 -172.5 -277.5 -266.5 q-178.5 -94 -403.5 -94 ZM971 1710 l-68 -47 q-20 -12 -32 -19.5 q-12 -7.5 -21.5 -18.5 q-9.5 -11 -9.5 -23 q3 -18 23.5 -30.5 q20.5 -12.5 47.5 -12.5 q11 0 35 4 l-22 -33 q-6 -2 -33 -2 q-57 0 -99 23.5 q-42 23.5 -42 62.5 q0 42 69 86 l74 47 q63 37 63 72 q0 22 -32 37.5 q-32 15.5 -76 15.5 q-29 0 -57.5 -9.5 q-28.5 -9.5 -42.5 -23.5 l-7 45 q71 23 119 23 q86 0 134 -26 q48 -26 48 -71 q0 -32 -17.5 -53.5 q-17.5 -21.5 -53.5 -46.5 Z" /><glyph glyph-name="ochoanga" unicode="&#x1ee0;" d="M1419 709 q0 97 -10.5 170 q-10.5 73 -39.5 145 q-29 72 -79 135 q-50 63 -118 108 q-68 45 -148 68 q-80 23 -160 23 q-133 0 -240.5 -48.5 q-107.5 -48.5 -183 -140 q-75.5 -91.5 -114.5 -219.5 q-39 -128 -39 -280 q0 -151 42.5 -268.5 q42.5 -117.5 120 -200 q77.5 -82.5 180.5 -123.5 q103 -41 216 -41 q146 0 256 63.5 q110 63.5 179.5 165 q69.5 101.5 103.5 220.5 q34 119 34 223 ZM840 -31 l-2 0 q-168 0 -308 51.5 q-140 51.5 -240 148 q-100 96.5 -153 230.5 q-53 134 -53 295 q0 164 58 301 q58 137 162 233 q104 96 240.5 146.5 q136.5 50.5 297.5 50.5 q176 0 310 -42.5 q134 -42.5 220 -110 q86 -67.5 137 -146.5 q103 108 103 217 q0 84 84 84 q23 0 39 -24 q16 -24 16 -60 q0 -45 -74 -144.5 q-74 -99.5 -123 -137.5 q66 -153 66 -336 q0 -223 -99 -395.5 q-99 -172.5 -277.5 -266.5 q-178.5 -94 -403.5 -94 ZM598 1528 l-41 0 q17 78 68.5 129 q51.5 51 122.5 51 q19 0 45 -6 q23 -8 88 -39 q45 -22 63 -29 q28 -8 45 -8 q45 0 68 31 q9 9 33 57 l53 0 q-18 -76 -68 -131 q-50 -55 -127 -55 q-25 0 -46.5 5.5 q-21.5 5.5 -39 13 q-17.5 7.5 -47.5 22.5 q-23 11 -41 19.5 q-18 8.5 -39.5 15 q-21.5 6.5 -38.5 6.5 q-22 0 -39 -8 q-40 -16 -59 -74 Z" /><glyph glyph-name="ochoanang" unicode="&#x1ee2;" d="M1419 709 q0 97 -10.5 170 q-10.5 73 -39.5 145 q-29 72 -79 135 q-50 63 -118 108 q-68 45 -148 68 q-80 23 -160 23 q-133 0 -240.5 -48.5 q-107.5 -48.5 -183 -140 q-75.5 -91.5 -114.5 -219.5 q-39 -128 -39 -280 q0 -151 42.5 -268.5 q42.5 -117.5 120 -200 q77.5 -82.5 180.5 -123.5 q103 -41 216 -41 q146 0 256 63.5 q110 63.5 179.5 165 q69.5 101.5 103.5 220.5 q34 119 34 223 ZM840 -31 l-2 0 q-168 0 -308 51.5 q-140 51.5 -240 148 q-100 96.5 -153 230.5 q-53 134 -53 295 q0 164 58 301 q58 137 162 233 q104 96 240.5 146.5 q136.5 50.5 297.5 50.5 q176 0 310 -42.5 q134 -42.5 220 -110 q86 -67.5 137 -146.5 q103 108 103 217 q0 84 84 84 q23 0 39 -24 q16 -24 16 -60 q0 -45 -74 -144.5 q-74 -99.5 -123 -137.5 q66 -153 66 -336 q0 -223 -99 -395.5 q-99 -172.5 -277.5 -266.5 q-178.5 -94 -403.5 -94 ZM926 -236 q0 -39 -29.5 -67.5 q-29.5 -28.5 -67.5 -28.5 q-38 0 -67 29 q-29 29 -29 67 q0 39 29 68 q29 29 67 29 q38 0 67.5 -28.5 q29.5 -28.5 29.5 -68.5 Z" /><glyph glyph-name="ucthsac" unicode="&#x1ee9;" d="M969 973 l0 -287 q88 95 88 203 q0 84 84 84 q23 0 39 -24 q16 -24 16 -60 q0 -45 -85 -142 q-85 -97 -142 -141 l0 -612 q-20 2 -33.5 3 q-13.5 1 -22.5 2 q-9 1 -26 1 q-19 0 -24.5 -0.5 q-5.5 -0.5 -22.5 -2 q-17 -1.5 -35 -3.5 l0 176 q-33 -63 -81.5 -106 q-48.5 -43 -109.5 -65 q-61 -22 -135 -22 q-172 0 -255 94 q-83 94 -83 300 l0 602 q26 -2 46.5 -4 q20.5 -2 35.5 -2 q13 0 33.5 2 q20.5 2 48.5 4 l0 -553 q0 -111 24.5 -186.5 q24.5 -75.5 79 -115.5 q54.5 -40 144.5 -40 q97 0 153 49 q56 49 77.5 123 q21.5 74 21.5 158 l0 565 q26 -2 47 -4 q21 -2 35 -2 q13 0 33.5 2 q20.5 2 48.5 4 ZM838 1284 l-285 -182 l-61 0 l229 229 q16 16 25.5 24.5 q9.5 8.5 19.5 20.5 q10 8 16.5 13.5 q6.5 5.5 14 11 q7.5 5.5 16.5 6.5 q63 0 72 -39 q0 -10 -1 -27 q-1 -17 -3 -20 q-7 -15 -43 -37 Z" /><glyph glyph-name="ucthhuyen" unicode="&#x1eeb;" d="M969 973 l0 -287 q88 95 88 203 q0 84 84 84 q23 0 39 -24 q16 -24 16 -60 q0 -45 -85 -142 q-85 -97 -142 -141 l0 -612 q-20 2 -33.5 3 q-13.5 1 -22.5 2 q-9 1 -26 1 q-19 0 -24.5 -0.5 q-5.5 -0.5 -22.5 -2 q-17 -1.5 -35 -3.5 l0 176 q-33 -63 -81.5 -106 q-48.5 -43 -109.5 -65 q-61 -22 -135 -22 q-172 0 -255 94 q-83 94 -83 300 l0 602 q26 -2 46.5 -4 q20.5 -2 35.5 -2 q13 0 33.5 2 q20.5 2 48.5 4 l0 -553 q0 -111 24.5 -186.5 q24.5 -75.5 79 -115.5 q54.5 -40 144.5 -40 q97 0 153 49 q56 49 77.5 123 q21.5 74 21.5 158 l0 565 q26 -2 47 -4 q21 -2 35 -2 q13 0 33.5 2 q20.5 2 48.5 4 ZM655 1108 l-65 0 l-279 174 q-12 9 -25 18 q-13 9 -20 21 q-2 16 -2 49 q12 39 74 39 q16 -4 20 -8 q16 -11 36 -32 q20 -21 30 -32 l231 -229 Z" /><glyph glyph-name="ucthhoi" unicode="&#x1eed;" d="M969 973 l0 -287 q88 95 88 203 q0 84 84 84 q23 0 39 -24 q16 -24 16 -60 q0 -45 -85 -142 q-85 -97 -142 -141 l0 -612 q-20 2 -33.5 3 q-13.5 1 -22.5 2 q-9 1 -26 1 q-19 0 -24.5 -0.5 q-5.5 -0.5 -22.5 -2 q-17 -1.5 -35 -3.5 l0 176 q-33 -63 -81.5 -106 q-48.5 -43 -109.5 -65 q-61 -22 -135 -22 q-172 0 -255 94 q-83 94 -83 300 l0 602 q26 -2 46.5 -4 q20.5 -2 35.5 -2 q13 0 33.5 2 q20.5 2 48.5 4 l0 -553 q0 -111 24.5 -186.5 q24.5 -75.5 79 -115.5 q54.5 -40 144.5 -40 q97 0 153 49 q56 49 77.5 123 q21.5 74 21.5 158 l0 565 q26 -2 47 -4 q21 -2 35 -2 q13 0 33.5 2 q20.5 2 48.5 4 ZM676 1284 l-68 -47 q-9 -6 -27 -17 q-18 -11 -27 -21.5 q-9 -10.5 -9 -22.5 q3 -19 23.5 -31 q20.5 -12 47.5 -12 q11 0 35 4 l-22 -33 q-6 -2 -33 -2 q-57 0 -99 23.5 q-42 23.5 -42 62.5 q0 42 69 86 l74 47 q64 37 64 72 q0 22 -32.5 37.5 q-32.5 15.5 -76.5 15.5 q-29 0 -57.5 -9.5 q-28.5 -9.5 -42.5 -23.5 l-7 45 q71 23 119 23 q85 0 134 -26 q49 -26 49 -71 q0 -30 -17 -51.5 q-17 -21.5 -55 -48.5 Z" /><glyph glyph-name="ucthnga" unicode="&#x1eef;" d="M969 973 l0 -287 q88 95 88 203 q0 84 84 84 q23 0 39 -24 q16 -24 16 -60 q0 -45 -85 -142 q-85 -97 -142 -141 l0 -612 q-20 2 -33.5 3 q-13.5 1 -22.5 2 q-9 1 -26 1 q-19 0 -24.5 -0.5 q-5.5 -0.5 -22.5 -2 q-17 -1.5 -35 -3.5 l0 176 q-33 -63 -81.5 -106 q-48.5 -43 -109.5 -65 q-61 -22 -135 -22 q-172 0 -255 94 q-83 94 -83 300 l0 602 q26 -2 46.5 -4 q20.5 -2 35.5 -2 q13 0 33.5 2 q20.5 2 48.5 4 l0 -553 q0 -111 24.5 -186.5 q24.5 -75.5 79 -115.5 q54.5 -40 144.5 -40 q97 0 153 49 q56 49 77.5 123 q21.5 74 21.5 158 l0 565 q26 -2 47 -4 q21 -2 35 -2 q13 0 33.5 2 q20.5 2 48.5 4 ZM324 1102 l-41 0 q15 77 67.5 128.5 q52.5 51.5 122.5 51.5 q21 0 45 -6 q28 -9 88 -39 q47 -22 64 -29 q28 -8 45 -8 q45 0 67 31 q13 12 33 57 l53 0 q-18 -79 -68 -132.5 q-50 -53.5 -126 -53.5 q-25 0 -46 5 q-21 5 -39 13 q-18 8 -48 23 q-23 11 -41 19.5 q-18 8.5 -39.5 15 q-21.5 6.5 -38.5 6.5 q-23 0 -39 -8 q-40 -16 -59 -74 Z" /><glyph glyph-name="ucthnang" unicode="&#x1ef1;" d="M969 973 l0 -287 q88 95 88 203 q0 84 84 84 q23 0 39 -24 q16 -24 16 -60 q0 -45 -85 -142 q-85 -97 -142 -141 l0 -612 q-20 2 -33.5 3 q-13.5 1 -22.5 2 q-9 1 -26 1 q-19 0 -24.5 -0.5 q-5.5 -0.5 -22.5 -2 q-17 -1.5 -35 -3.5 l0 176 q-33 -63 -81.5 -106 q-48.5 -43 -109.5 -65 q-61 -22 -135 -22 q-172 0 -255 94 q-83 94 -83 300 l0 602 q26 -2 46.5 -4 q20.5 -2 35.5 -2 q13 0 33.5 2 q20.5 2 48.5 4 l0 -553 q0 -111 24.5 -186.5 q24.5 -75.5 79 -115.5 q54.5 -40 144.5 -40 q97 0 153 49 q56 49 77.5 123 q21.5 74 21.5 158 l0 565 q26 -2 47 -4 q21 -2 35 -2 q13 0 33.5 2 q20.5 2 48.5 4 ZM682 -221 q0 -39 -28.5 -67.5 q-28.5 -28.5 -67.5 -28.5 q-39 0 -68 29 q-29 29 -29 67 q0 40 29 68 q29 28 68 28 q39 0 67.5 -27.5 q28.5 -27.5 28.5 -68.5 Z" /><glyph glyph-name="uchoasac" unicode="&#x1ee8;" d="M373 1395 l0 -785 q0 -137 22.5 -239 q22.5 -102 74.5 -171 q52 -69 139.5 -103 q87.5 -34 215.5 -34 q233 0 338 150.5 q105 150.5 105 417.5 l0 764 q18 -2 32 -4 q14 -2 25 -2 q8 0 22.5 2 q14.5 2 34.5 4 l0 -285 q88 93 88 203 q0 84 84 84 q24 0 40 -24 q16 -24 16 -60 q0 -45 -84 -140.5 q-84 -95.5 -144 -142.5 l0 -450 q0 -198 -73 -335.5 q-73 -137.5 -208.5 -206.5 q-135.5 -69 -316.5 -69 q-102 0 -182 16 q-80 16 -144 47.5 q-64 31.5 -118 80.5 q-88 79 -116.5 195 q-28.5 116 -30.5 267 l0 820 q30 -2 52 -4 q22 -2 38 -2 q13 0 35.5 2 q22.5 2 54.5 4 ZM1090 1690 l-285 -183 l-62 0 l230 230 q12 11 21.5 20 q9.5 9 23.5 25 q10 8 17.5 14 q7.5 6 14.5 10.5 q7 4.5 15 5.5 q61 0 72 -38 q0 -10 -1 -27 q-1 -17 -3 -21 q-4 -9 -11 -15 q-7 -6 -12.5 -9 q-5.5 -3 -19.5 -12 Z" /><glyph glyph-name="uchoahuyen" unicode="&#x1eea;" d="M373 1395 l0 -785 q0 -137 22.5 -239 q22.5 -102 74.5 -171 q52 -69 139.5 -103 q87.5 -34 215.5 -34 q233 0 338 150.5 q105 150.5 105 417.5 l0 764 q18 -2 32 -4 q14 -2 25 -2 q8 0 22.5 2 q14.5 2 34.5 4 l0 -285 q88 93 88 203 q0 84 84 84 q24 0 40 -24 q16 -24 16 -60 q0 -45 -84 -140.5 q-84 -95.5 -144 -142.5 l0 -450 q0 -198 -73 -335.5 q-73 -137.5 -208.5 -206.5 q-135.5 -69 -316.5 -69 q-102 0 -182 16 q-80 16 -144 47.5 q-64 31.5 -118 80.5 q-88 79 -116.5 195 q-28.5 116 -30.5 267 l0 820 q30 -2 52 -4 q22 -2 38 -2 q13 0 35.5 2 q22.5 2 54.5 4 ZM979 1524 l-66 0 l-278 174 q-39 27 -45 39 q-2 16 -2 49 q13 39 74 39 q16 -4 20 -8 q16 -11 36 -32 q20 -21 30 -32 l231 -229 Z" /><glyph glyph-name="uchoahoi" unicode="&#x1eec;" d="M373 1395 l0 -785 q0 -137 22.5 -239 q22.5 -102 74.5 -171 q52 -69 139.5 -103 q87.5 -34 215.5 -34 q233 0 338 150.5 q105 150.5 105 417.5 l0 764 q18 -2 32 -4 q14 -2 25 -2 q8 0 22.5 2 q14.5 2 34.5 4 l0 -285 q88 93 88 203 q0 84 84 84 q24 0 40 -24 q16 -24 16 -60 q0 -45 -84 -140.5 q-84 -95.5 -144 -142.5 l0 -450 q0 -198 -73 -335.5 q-73 -137.5 -208.5 -206.5 q-135.5 -69 -316.5 -69 q-102 0 -182 16 q-80 16 -144 47.5 q-64 31.5 -118 80.5 q-88 79 -116.5 195 q-28.5 116 -30.5 267 l0 820 q30 -2 52 -4 q22 -2 38 -2 q13 0 35.5 2 q22.5 2 54.5 4 ZM907 1679 l-67 -47 q-20 -12 -32.5 -19.5 q-12.5 -7.5 -22 -18.5 q-9.5 -11 -9.5 -23 q7 -43 72 -43 q9 0 35 4 l-23 -33 q-6 -2 -33 -2 q-57 0 -99 23.5 q-42 23.5 -42 62.5 q0 25 17 44.5 q17 19.5 53 41.5 l73 47 q64 39 64 72 q0 24 -31 38.5 q-31 14.5 -78 14.5 q-29 0 -57 -9.5 q-28 -9.5 -43 -23.5 l-6 45 q65 23 119 23 q56 0 96.5 -11.5 q40.5 -11.5 63 -33.5 q22.5 -22 22.5 -51 q0 -30 -16.5 -52 q-16.5 -22 -55.5 -49 Z" /><glyph glyph-name="uchoanga" unicode="&#x1eee;" d="M373 1395 l0 -785 q0 -137 22.5 -239 q22.5 -102 74.5 -171 q52 -69 139.5 -103 q87.5 -34 215.5 -34 q233 0 338 150.5 q105 150.5 105 417.5 l0 764 q18 -2 32 -4 q14 -2 25 -2 q8 0 22.5 2 q14.5 2 34.5 4 l0 -285 q88 93 88 203 q0 84 84 84 q24 0 40 -24 q16 -24 16 -60 q0 -45 -84 -140.5 q-84 -95.5 -144 -142.5 l0 -450 q0 -198 -73 -335.5 q-73 -137.5 -208.5 -206.5 q-135.5 -69 -316.5 -69 q-102 0 -182 16 q-80 16 -144 47.5 q-64 31.5 -118 80.5 q-88 79 -116.5 195 q-28.5 116 -30.5 267 l0 820 q30 -2 52 -4 q22 -2 38 -2 q13 0 35.5 2 q22.5 2 54.5 4 ZM535 1497 l-41 0 q15 77 67.5 128.5 q52.5 51.5 122.5 51.5 q21 0 45 -6 q33 -11 88 -39 q45 -21 64 -28 q25 -9 45 -9 q44 0 67 31 q13 12 33 57 l53 0 q-18 -79 -68 -132.5 q-50 -53.5 -126 -53.5 q-27 0 -47.5 5.5 q-20.5 5.5 -42 15.5 q-21.5 10 -43.5 20 q-23 11 -41 19.5 q-18 8.5 -39.5 15 q-21.5 6.5 -38.5 6.5 q-23 0 -39 -8 q-40 -14 -59 -74 Z" /><glyph glyph-name="uchoanang" unicode="&#x1ef0;" d="M373 1395 l0 -785 q0 -137 22.5 -239 q22.5 -102 74.5 -171 q52 -69 139.5 -103 q87.5 -34 215.5 -34 q233 0 338 150.5 q105 150.5 105 417.5 l0 764 q18 -2 32 -4 q14 -2 25 -2 q8 0 22.5 2 q14.5 2 34.5 4 l0 -285 q88 93 88 203 q0 84 84 84 q24 0 40 -24 q16 -24 16 -60 q0 -45 -84 -140.5 q-84 -95.5 -144 -142.5 l0 -450 q0 -198 -73 -335.5 q-73 -137.5 -208.5 -206.5 q-135.5 -69 -316.5 -69 q-102 0 -182 16 q-80 16 -144 47.5 q-64 31.5 -118 80.5 q-88 79 -116.5 195 q-28.5 116 -30.5 267 l0 820 q30 -2 52 -4 q22 -2 38 -2 q13 0 35.5 2 q22.5 2 54.5 4 ZM893 -236 q0 -39 -28.5 -67.5 q-28.5 -28.5 -67.5 -28.5 q-39 0 -68 29 q-29 29 -29 67 q0 39 29 68 q29 29 68 29 q39 0 67.5 -28.5 q28.5 -28.5 28.5 -68.5 Z" /><glyph glyph-name="aathsac" unicode="&#x1eaf;" d="M846 641 l0 -475 q0 -40 2.5 -59.5 q2.5 -19.5 14.5 -31.5 q12 -12 38 -12 q22 0 60 9 l0 -45 q-35 -16 -62 -21 q-33 -6 -65 -6 q-61 2 -99.5 30.5 q-38.5 28.5 -46.5 94.5 l-18 -19 q-129 -129 -303 -129 q-112 0 -192.5 70 q-80.5 70 -80.5 180 q0 108 51.5 168 q51.5 60 126.5 83.5 q75 23.5 201 43.5 q96 16 137 28 q41 12 60.5 36 q19.5 24 19.5 73 q0 115 -62.5 177.5 q-62.5 62.5 -176.5 62.5 q-67 0 -120 -24 q-53 -24 -84 -56.5 q-31 -32.5 -40 -60.5 l-23 0 l0 114 q165 113 330 113 q163 0 247.5 -86 q84.5 -86 84.5 -258 ZM682 205 l0 299 l-72 -15 q-68 -12 -125 -24.5 q-57 -12.5 -107 -34.5 q-50 -22 -83 -65 q-33 -43 -33 -109 q0 -96 52.5 -144.5 q52.5 -48.5 148.5 -48.5 q38 0 86 24 q48 24 78 54 q10 10 22 21 q12 11 22.5 24.5 q10.5 13.5 10.5 18.5 ZM272 1354 l52 2 q12 -83 66.5 -132.5 q54.5 -49.5 135.5 -49.5 q171 0 203 182 l51 0 q-10 -134 -75 -210.5 q-65 -76.5 -193 -76.5 q-110 0 -175 81 q-65 81 -65 204 ZM809 1589 l-285 -182 l-61 0 l229 229 q16 16 27 26.5 q11 10.5 18 18.5 q4 2 21 16 q17 14 26 15 q63 0 72 -39 q0 -10 -1 -27 q-1 -17 -3 -20 q-4 -8 -10 -14 q-6 -6 -15.5 -12 q-9.5 -6 -17.5 -11 Z" /><glyph glyph-name="aathhuyen" unicode="&#x1eb1;" d="M846 641 l0 -475 q0 -40 2.5 -59.5 q2.5 -19.5 14.5 -31.5 q12 -12 38 -12 q22 0 60 9 l0 -45 q-35 -16 -62 -21 q-33 -6 -65 -6 q-61 2 -99.5 30.5 q-38.5 28.5 -46.5 94.5 l-18 -19 q-129 -129 -303 -129 q-112 0 -192.5 70 q-80.5 70 -80.5 180 q0 108 51.5 168 q51.5 60 126.5 83.5 q75 23.5 201 43.5 q96 16 137 28 q41 12 60.5 36 q19.5 24 19.5 73 q0 115 -62.5 177.5 q-62.5 62.5 -176.5 62.5 q-67 0 -120 -24 q-53 -24 -84 -56.5 q-31 -32.5 -40 -60.5 l-23 0 l0 114 q165 113 330 113 q163 0 247.5 -86 q84.5 -86 84.5 -258 ZM682 205 l0 299 l-72 -15 q-68 -12 -125 -24.5 q-57 -12.5 -107 -34.5 q-50 -22 -83 -65 q-33 -43 -33 -109 q0 -96 52.5 -144.5 q52.5 -48.5 148.5 -48.5 q38 0 86 24 q48 24 78 54 q10 10 22 21 q12 11 22.5 24.5 q10.5 13.5 10.5 18.5 ZM272 1354 l52 2 q12 -83 66.5 -132.5 q54.5 -49.5 135.5 -49.5 q171 0 203 182 l51 0 q-10 -134 -75 -210.5 q-65 -76.5 -193 -76.5 q-110 0 -175 81 q-65 81 -65 204 ZM596 1393 l-66 0 l-278 174 q-12 9 -25 18 q-13 9 -20 21 q-2 16 -2 49 q13 39 74 39 q16 -4 20 -8 q17 -12 33.5 -30 q16.5 -18 32.5 -34 l231 -229 Z" /><glyph glyph-name="aathhoi" unicode="&#x1eb3;" d="M846 641 l0 -475 q0 -40 2.5 -59.5 q2.5 -19.5 14.5 -31.5 q12 -12 38 -12 q22 0 60 9 l0 -45 q-35 -16 -62 -21 q-33 -6 -65 -6 q-61 2 -99.5 30.5 q-38.5 28.5 -46.5 94.5 l-18 -19 q-129 -129 -303 -129 q-112 0 -192.5 70 q-80.5 70 -80.5 180 q0 108 51.5 168 q51.5 60 126.5 83.5 q75 23.5 201 43.5 q96 16 137 28 q41 12 60.5 36 q19.5 24 19.5 73 q0 115 -62.5 177.5 q-62.5 62.5 -176.5 62.5 q-67 0 -120 -24 q-53 -24 -84 -56.5 q-31 -32.5 -40 -60.5 l-23 0 l0 114 q165 113 330 113 q163 0 247.5 -86 q84.5 -86 84.5 -258 ZM682 205 l0 299 l-72 -15 q-68 -12 -125 -24.5 q-57 -12.5 -107 -34.5 q-50 -22 -83 -65 q-33 -43 -33 -109 q0 -96 52.5 -144.5 q52.5 -48.5 148.5 -48.5 q38 0 86 24 q48 24 78 54 q10 10 22 21 q12 11 22.5 24.5 q10.5 13.5 10.5 18.5 ZM272 1354 l52 2 q12 -83 66.5 -132.5 q54.5 -49.5 135.5 -49.5 q171 0 203 182 l51 0 q-10 -134 -75 -210.5 q-65 -76.5 -193 -76.5 q-110 0 -175 81 q-65 81 -65 204 ZM647 1599 l-67 -47 q-20 -12 -33.5 -20 q-13.5 -8 -22 -18 q-8.5 -10 -8.5 -23 q7 -43 72 -43 q9 0 35 4 l-23 -33 q-6 -2 -33 -2 q-57 0 -99 23.5 q-42 23.5 -42 62.5 q0 25 17 44.5 q17 19.5 53 41.5 l73 47 q64 39 64 72 q0 24 -31 38.5 q-31 14.5 -78 14.5 q-29 0 -57 -9.5 q-28 -9.5 -43 -22.5 l-6 45 q68 22 119 22 q56 0 96.5 -11.5 q40.5 -11.5 63 -33.5 q22.5 -22 22.5 -51 q0 -30 -16.5 -52 q-16.5 -22 -55.5 -49 Z" /><glyph glyph-name="aathnga" unicode="&#x1eb5;" d="M846 641 l0 -475 q0 -40 2.5 -59.5 q2.5 -19.5 14.5 -31.5 q12 -12 38 -12 q22 0 60 9 l0 -45 q-35 -16 -62 -21 q-33 -6 -65 -6 q-61 2 -99.5 30.5 q-38.5 28.5 -46.5 94.5 l-18 -19 q-129 -129 -303 -129 q-112 0 -192.5 70 q-80.5 70 -80.5 180 q0 108 51.5 168 q51.5 60 126.5 83.5 q75 23.5 201 43.5 q96 16 137 28 q41 12 60.5 36 q19.5 24 19.5 73 q0 115 -62.5 177.5 q-62.5 62.5 -176.5 62.5 q-67 0 -120 -24 q-53 -24 -84 -56.5 q-31 -32.5 -40 -60.5 l-23 0 l0 114 q165 113 330 113 q163 0 247.5 -86 q84.5 -86 84.5 -258 ZM682 205 l0 299 l-72 -15 q-68 -12 -125 -24.5 q-57 -12.5 -107 -34.5 q-50 -22 -83 -65 q-33 -43 -33 -109 q0 -96 52.5 -144.5 q52.5 -48.5 148.5 -48.5 q38 0 86 24 q48 24 78 54 q10 10 22 21 q12 11 22.5 24.5 q10.5 13.5 10.5 18.5 ZM272 1354 l52 2 q12 -83 66.5 -132.5 q54.5 -49.5 135.5 -49.5 q171 0 203 182 l51 0 q-10 -134 -75 -210.5 q-65 -76.5 -193 -76.5 q-110 0 -175 81 q-65 81 -65 204 ZM274 1458 l-41 0 q17 80 69 130 q52 50 122 50 q21 0 45 -6 q33 -11 88 -39 q45 -21 64 -28 q32 -9 45 -9 q44 0 67 31 q15 15 33 58 l53 0 q-19 -80 -68.5 -133.5 q-49.5 -53.5 -125.5 -53.5 q-27 0 -47.5 5.5 q-20.5 5.5 -42 15.5 q-21.5 10 -43.5 20 q-38 19 -65.5 30 q-27.5 11 -53.5 11 q-23 0 -39 -8 q-39 -14 -60 -74 Z" /><glyph glyph-name="aathnang" unicode="&#x1eb7;" d="M846 641 l0 -475 q0 -40 2.5 -59.5 q2.5 -19.5 14.5 -31.5 q12 -12 38 -12 q22 0 60 9 l0 -45 q-35 -16 -62 -21 q-33 -6 -65 -6 q-61 2 -99.5 30.5 q-38.5 28.5 -46.5 94.5 l-18 -19 q-129 -129 -303 -129 q-112 0 -192.5 70 q-80.5 70 -80.5 180 q0 108 51.5 168 q51.5 60 126.5 83.5 q75 23.5 201 43.5 q96 16 137 28 q41 12 60.5 36 q19.5 24 19.5 73 q0 115 -62.5 177.5 q-62.5 62.5 -176.5 62.5 q-67 0 -120 -24 q-53 -24 -84 -56.5 q-31 -32.5 -40 -60.5 l-23 0 l0 114 q165 113 330 113 q163 0 247.5 -86 q84.5 -86 84.5 -258 ZM682 205 l0 299 l-72 -15 q-68 -12 -125 -24.5 q-57 -12.5 -107 -34.5 q-50 -22 -83 -65 q-33 -43 -33 -109 q0 -96 52.5 -144.5 q52.5 -48.5 148.5 -48.5 q38 0 86 24 q48 24 78 54 q10 10 22 21 q12 11 22.5 24.5 q10.5 13.5 10.5 18.5 ZM272 1354 l52 2 q12 -83 66.5 -132.5 q54.5 -49.5 135.5 -49.5 q171 0 203 182 l51 0 q-10 -134 -75 -210.5 q-65 -76.5 -193 -76.5 q-110 0 -175 81 q-65 81 -65 204 ZM592 -227 q0 -40 -28.5 -68.5 q-28.5 -28.5 -67.5 -28.5 q-39 0 -68 29 q-29 29 -29 68 q0 40 29 68 q29 28 68 28 q39 0 67.5 -27.5 q28.5 -27.5 28.5 -68.5 Z" /><glyph glyph-name="aahoasac" unicode="&#x1eae;" d="M719 1425 l614 -1431 q-26 2 -43 3 q-17 1 -28.5 2 q-11.5 1 -34.5 1 q-20 0 -51 -2 q-31 -2 -58 -4 q-104 301 -215 553 l-520 0 q-48 -120 -80 -202 q-32 -82 -65.5 -176 q-33.5 -94 -57.5 -175 q-18 2 -30.5 3 q-12.5 1 -21 2 q-8.5 1 -24.5 1 q-17 0 -25 -1 q-8 -1 -20 -2 q-12 -1 -26 -3 l639 1431 l47 0 ZM872 633 l-227 524 l-223 -524 l450 0 ZM440 1792 l52 2 q12 -82 67 -132 q55 -50 135 -50 q171 0 203 182 l51 0 q-10 -134 -75 -210.5 q-65 -76.5 -193 -76.5 q-110 0 -175 81 q-65 81 -65 204 ZM977 2028 l-285 -183 l-61 0 l229 230 q35 33 45 45 q6 3 22 16 q16 13 25 14 q63 0 72 -39 q0 -10 -1 -26.5 q-1 -16.5 -3 -20.5 q-4 -8 -10 -14 q-6 -6 -12.5 -9.5 q-6.5 -3.5 -20.5 -12.5 Z" /><glyph glyph-name="aahoahuyen" unicode="&#x1eb0;" d="M719 1425 l614 -1431 q-26 2 -43 3 q-17 1 -28.5 2 q-11.5 1 -34.5 1 q-20 0 -51 -2 q-31 -2 -58 -4 q-104 301 -215 553 l-520 0 q-48 -120 -80 -202 q-32 -82 -65.5 -176 q-33.5 -94 -57.5 -175 q-18 2 -30.5 3 q-12.5 1 -21 2 q-8.5 1 -24.5 1 q-17 0 -25 -1 q-8 -1 -20 -2 q-12 -1 -26 -3 l639 1431 l47 0 ZM872 633 l-227 524 l-223 -524 l450 0 ZM440 1792 l52 2 q12 -82 67 -132 q55 -50 135 -50 q171 0 203 182 l51 0 q-10 -134 -75 -210.5 q-65 -76.5 -193 -76.5 q-110 0 -175 81 q-65 81 -65 204 ZM764 1831 l-66 0 l-278 174 q-39 27 -45 39 q-2 16 -2 49 q12 39 73 39 q17 -4 21 -8 q15 -11 65 -64 l232 -229 Z" /><glyph glyph-name="aahoahoi" unicode="&#x1eb2;" d="M719 1425 l614 -1431 q-26 2 -43 3 q-17 1 -28.5 2 q-11.5 1 -34.5 1 q-20 0 -51 -2 q-31 -2 -58 -4 q-104 301 -215 553 l-520 0 q-48 -120 -80 -202 q-32 -82 -65.5 -176 q-33.5 -94 -57.5 -175 q-18 2 -30.5 3 q-12.5 1 -21 2 q-8.5 1 -24.5 1 q-17 0 -25 -1 q-8 -1 -20 -2 q-12 -1 -26 -3 l639 1431 l47 0 ZM872 633 l-227 524 l-223 -524 l450 0 ZM440 1792 l52 2 q12 -82 67 -132 q55 -50 135 -50 q171 0 203 182 l51 0 q-10 -134 -75 -210.5 q-65 -76.5 -193 -76.5 q-110 0 -175 81 q-65 81 -65 204 ZM815 2017 l-67 -47 q-20 -12 -32.5 -19.5 q-12.5 -7.5 -22 -18.5 q-9.5 -11 -9.5 -23 q7 -43 72 -43 q9 0 35 4 l-23 -33 q-6 -2 -33 -2 q-57 0 -99 23.5 q-42 23.5 -42 62.5 q0 25 18.5 45 q18.5 20 51.5 41 l73 47 q64 39 64 72 q0 24 -31 38.5 q-31 14.5 -78 14.5 q-29 0 -57.5 -9.5 q-28.5 -9.5 -42.5 -23.5 l-6 45 q65 23 119 23 q56 0 96.5 -11.5 q40.5 -11.5 63 -33.5 q22.5 -22 22.5 -51 q0 -30 -16.5 -52 q-16.5 -22 -55.5 -49 Z" /><glyph glyph-name="aahoanga" unicode="&#x1eb4;" d="M719 1425 l614 -1431 q-26 2 -43 3 q-17 1 -28.5 2 q-11.5 1 -34.5 1 q-20 0 -51 -2 q-31 -2 -58 -4 q-104 301 -215 553 l-520 0 q-48 -120 -80 -202 q-32 -82 -65.5 -176 q-33.5 -94 -57.5 -175 q-18 2 -30.5 3 q-12.5 1 -21 2 q-8.5 1 -24.5 1 q-17 0 -25 -1 q-8 -1 -20 -2 q-12 -1 -26 -3 l639 1431 l47 0 ZM872 633 l-227 524 l-223 -524 l450 0 ZM440 1792 l52 2 q12 -82 67 -132 q55 -50 135 -50 q171 0 203 182 l51 0 q-10 -134 -75 -210.5 q-65 -76.5 -193 -76.5 q-110 0 -175 81 q-65 81 -65 204 ZM442 1896 l-41 0 q17 80 68.5 130.5 q51.5 50.5 122.5 50.5 q21 0 45 -6 q27 -10 88 -39 q33 -18 63 -29 q30 -8 46 -8 q45 0 67 30 q15 15 33 58 l53 0 q-19 -80 -68.5 -133.5 q-49.5 -53.5 -125.5 -53.5 q-27 0 -47.5 5.5 q-20.5 5.5 -50.5 19 q-30 13.5 -36 16.5 q-42 21 -67 31 q-25 10 -51 10 q-23 0 -39 -8 q-39 -14 -60 -74 Z" /><glyph glyph-name="aahoanang" unicode="&#x1eb6;" d="M719 1425 l614 -1431 q-26 2 -43 3 q-17 1 -28.5 2 q-11.5 1 -34.5 1 q-20 0 -51 -2 q-31 -2 -58 -4 q-104 301 -215 553 l-520 0 q-48 -120 -80 -202 q-32 -82 -65.5 -176 q-33.5 -94 -57.5 -175 q-18 2 -30.5 3 q-12.5 1 -21 2 q-8.5 1 -24.5 1 q-17 0 -25 -1 q-8 -1 -20 -2 q-12 -1 -26 -3 l639 1431 l47 0 ZM872 633 l-227 524 l-223 -524 l450 0 ZM440 1792 l52 2 q12 -82 67 -132 q55 -50 135 -50 q171 0 203 182 l51 0 q-10 -134 -75 -210.5 q-65 -76.5 -193 -76.5 q-110 0 -175 81 q-65 81 -65 204 ZM729 -219 q0 -39 -28.5 -67.5 q-28.5 -28.5 -67.5 -28.5 q-38 0 -67 29 q-29 29 -29 67 q0 40 29 68 q29 28 67 28 q39 0 67.5 -27.5 q28.5 -27.5 28.5 -68.5 Z" /><glyph glyph-name="abthsac" unicode="&#x1ea5;" d="M846 641 l0 -475 q0 -40 2.5 -59.5 q2.5 -19.5 14.5 -31.5 q12 -12 38 -12 q22 0 60 9 l0 -45 q-35 -16 -62 -21 q-33 -6 -65 -6 q-61 2 -99.5 30.5 q-38.5 28.5 -46.5 94.5 l-18 -19 q-129 -129 -303 -129 q-112 0 -192.5 70 q-80.5 70 -80.5 180 q0 108 51.5 168 q51.5 60 126.5 83.5 q75 23.5 201 43.5 q96 16 137 28 q41 12 60.5 36 q19.5 24 19.5 73 q0 115 -62.5 177.5 q-62.5 62.5 -176.5 62.5 q-67 0 -120 -24 q-53 -24 -84 -56.5 q-31 -32.5 -40 -60.5 l-23 0 l0 114 q165 113 330 113 q163 0 247.5 -86 q84.5 -86 84.5 -258 ZM682 205 l0 299 l-72 -15 q-68 -12 -125 -24.5 q-57 -12.5 -107 -34.5 q-50 -22 -83 -65 q-33 -43 -33 -109 q0 -96 52.5 -144.5 q52.5 -48.5 148.5 -48.5 q38 0 86 24 q48 24 78 54 q10 10 22 21 q12 11 22.5 24.5 q10.5 13.5 10.5 18.5 ZM293 1067 l-62 0 l226 293 l100 0 l225 -293 l-59 0 l-215 186 l-215 -186 ZM1024 1481 l-285 -183 l-61 0 l229 230 q35 33 45 45 q6 3 21.5 16.5 q15.5 13.5 25.5 14.5 q62 0 72 -39 q0 -10 -1 -27 q-1 -17 -3 -20 q-3 -6 -8 -12 q-5 -6 -13 -11 q-8 -5 -22 -14 Z" /><glyph glyph-name="abthhuyen" unicode="&#x1ea7;" d="M846 641 l0 -475 q0 -40 2.5 -59.5 q2.5 -19.5 14.5 -31.5 q12 -12 38 -12 q22 0 60 9 l0 -45 q-35 -16 -62 -21 q-33 -6 -65 -6 q-61 2 -99.5 30.5 q-38.5 28.5 -46.5 94.5 l-18 -19 q-129 -129 -303 -129 q-112 0 -192.5 70 q-80.5 70 -80.5 180 q0 108 51.5 168 q51.5 60 126.5 83.5 q75 23.5 201 43.5 q96 16 137 28 q41 12 60.5 36 q19.5 24 19.5 73 q0 115 -62.5 177.5 q-62.5 62.5 -176.5 62.5 q-67 0 -120 -24 q-53 -24 -84 -56.5 q-31 -32.5 -40 -60.5 l-23 0 l0 114 q165 113 330 113 q163 0 247.5 -86 q84.5 -86 84.5 -258 ZM682 205 l0 299 l-72 -15 q-68 -12 -125 -24.5 q-57 -12.5 -107 -34.5 q-50 -22 -83 -65 q-33 -43 -33 -109 q0 -96 52.5 -144.5 q52.5 -48.5 148.5 -48.5 q38 0 86 24 q48 24 78 54 q10 10 22 21 q12 11 22.5 24.5 q10.5 13.5 10.5 18.5 ZM293 1067 l-62 0 l226 293 l100 0 l225 -293 l-59 0 l-215 186 l-215 -186 ZM791 1376 l-66 0 l-279 174 q-8 6 -16.5 12 q-8.5 6 -15 11.5 q-6.5 5.5 -13.5 15.5 q-2 17 -2 49 q14 39 74 39 q16 -4 21 -8 q12 -9 31 -28 q19 -19 34 -35 l232 -230 Z" /><glyph glyph-name="abthhoi" unicode="&#x1ea9;" d="M846 641 l0 -475 q0 -40 2.5 -59.5 q2.5 -19.5 14.5 -31.5 q12 -12 38 -12 q22 0 60 9 l0 -45 q-35 -16 -62 -21 q-33 -6 -65 -6 q-61 2 -99.5 30.5 q-38.5 28.5 -46.5 94.5 l-18 -19 q-129 -129 -303 -129 q-112 0 -192.5 70 q-80.5 70 -80.5 180 q0 108 51.5 168 q51.5 60 126.5 83.5 q75 23.5 201 43.5 q96 16 137 28 q41 12 60.5 36 q19.5 24 19.5 73 q0 115 -62.5 177.5 q-62.5 62.5 -176.5 62.5 q-67 0 -120 -24 q-53 -24 -84 -56.5 q-31 -32.5 -40 -60.5 l-23 0 l0 114 q165 113 330 113 q163 0 247.5 -86 q84.5 -86 84.5 -258 ZM682 205 l0 299 l-72 -15 q-68 -12 -125 -24.5 q-57 -12.5 -107 -34.5 q-50 -22 -83 -65 q-33 -43 -33 -109 q0 -96 52.5 -144.5 q52.5 -48.5 148.5 -48.5 q38 0 86 24 q48 24 78 54 q10 10 22 21 q12 11 22.5 24.5 q10.5 13.5 10.5 18.5 ZM293 1067 l-62 0 l226 293 l100 0 l225 -293 l-59 0 l-215 186 l-215 -186 ZM893 1450 l-68 -47 q-9 -6 -28 -18 q-19 -12 -27 -21.5 q-8 -9.5 -8 -22.5 q3 -19 24 -31 q21 -12 48 -12 q14 0 34 5 l-22 -33 q-6 -2 -33 -2 q-57 0 -99 23.5 q-42 23.5 -42 62.5 q0 42 69 86 l74 47 q64 37 64 72 q0 22 -32.5 37.5 q-32.5 15.5 -76.5 15.5 q-63 0 -100 -33 l-6 45 q69 23 118 23 q85 0 134 -26 q49 -26 49 -71 q0 -30 -17 -51.5 q-17 -21.5 -55 -48.5 Z" /><glyph glyph-name="abthnga" unicode="&#x1eab;" d="M846 641 l0 -475 q0 -40 2.5 -59.5 q2.5 -19.5 14.5 -31.5 q12 -12 38 -12 q22 0 60 9 l0 -45 q-35 -16 -62 -21 q-33 -6 -65 -6 q-61 2 -99.5 30.5 q-38.5 28.5 -46.5 94.5 l-18 -19 q-129 -129 -303 -129 q-112 0 -192.5 70 q-80.5 70 -80.5 180 q0 108 51.5 168 q51.5 60 126.5 83.5 q75 23.5 201 43.5 q96 16 137 28 q41 12 60.5 36 q19.5 24 19.5 73 q0 115 -62.5 177.5 q-62.5 62.5 -176.5 62.5 q-67 0 -120 -24 q-53 -24 -84 -56.5 q-31 -32.5 -40 -60.5 l-23 0 l0 114 q165 113 330 113 q163 0 247.5 -86 q84.5 -86 84.5 -258 ZM682 205 l0 299 l-72 -15 q-68 -12 -125 -24.5 q-57 -12.5 -107 -34.5 q-50 -22 -83 -65 q-33 -43 -33 -109 q0 -96 52.5 -144.5 q52.5 -48.5 148.5 -48.5 q38 0 86 24 q48 24 78 54 q10 10 22 21 q12 11 22.5 24.5 q10.5 13.5 10.5 18.5 ZM293 1067 l-62 0 l226 293 l100 0 l225 -293 l-59 0 l-215 186 l-215 -186 ZM254 1462 l-41 0 q15 79 67.5 129.5 q52.5 50.5 122.5 50.5 q20 0 46 -6 q35 -12 88 -39 q37 -19 63 -28 q28 -8 45 -8 q45 0 68 30 q14 15 32 58 l54 0 q-13 -51 -38.5 -93.5 q-25.5 -42.5 -65.5 -68 q-40 -25.5 -91 -25.5 q-27 0 -47.5 5.5 q-20.5 5.5 -42 15.5 q-21.5 10 -43.5 20 q-38 19 -65.5 30 q-27.5 11 -53.5 11 q-22 0 -39 -8 q-40 -15 -59 -74 Z" /><glyph glyph-name="abthnang" unicode="&#x1ead;" d="M846 641 l0 -475 q0 -40 2.5 -59.5 q2.5 -19.5 14.5 -31.5 q12 -12 38 -12 q22 0 60 9 l0 -45 q-35 -16 -62 -21 q-33 -6 -65 -6 q-61 2 -99.5 30.5 q-38.5 28.5 -46.5 94.5 l-18 -19 q-129 -129 -303 -129 q-112 0 -192.5 70 q-80.5 70 -80.5 180 q0 108 51.5 168 q51.5 60 126.5 83.5 q75 23.5 201 43.5 q96 16 137 28 q41 12 60.5 36 q19.5 24 19.5 73 q0 115 -62.5 177.5 q-62.5 62.5 -176.5 62.5 q-67 0 -120 -24 q-53 -24 -84 -56.5 q-31 -32.5 -40 -60.5 l-23 0 l0 114 q165 113 330 113 q163 0 247.5 -86 q84.5 -86 84.5 -258 ZM682 205 l0 299 l-72 -15 q-68 -12 -125 -24.5 q-57 -12.5 -107 -34.5 q-50 -22 -83 -65 q-33 -43 -33 -109 q0 -96 52.5 -144.5 q52.5 -48.5 148.5 -48.5 q38 0 86 24 q48 24 78 54 q10 10 22 21 q12 11 22.5 24.5 q10.5 13.5 10.5 18.5 ZM293 1067 l-62 0 l226 293 l100 0 l225 -293 l-59 0 l-215 186 l-215 -186 ZM602 -227 q0 -40 -28.5 -68.5 q-28.5 -28.5 -67.5 -28.5 q-38 0 -67 29 q-29 29 -29 68 q0 40 29 68 q29 28 67 28 q39 0 67.5 -27.5 q28.5 -27.5 28.5 -68.5 Z" /><glyph glyph-name="abhoasac" unicode="&#x1ea4;" d="M719 1425 l614 -1431 q-26 2 -43 3 q-17 1 -28.5 2 q-11.5 1 -34.5 1 q-20 0 -51 -2 q-31 -2 -58 -4 q-104 301 -215 553 l-520 0 q-48 -120 -80 -202 q-32 -82 -65.5 -176 q-33.5 -94 -57.5 -175 q-18 2 -30.5 3 q-12.5 1 -21 2 q-8.5 1 -24.5 1 q-17 0 -25 -1 q-8 -1 -20 -2 q-12 -1 -26 -3 l639 1431 l47 0 ZM872 633 l-227 524 l-223 -524 l450 0 ZM471 1495 l-61 0 l225 293 l100 0 l226 -293 l-60 0 l-215 186 l-215 -186 ZM1202 1909 l-284 -183 l-62 0 l229 230 q32 30 45 45 q6 3 21 16.5 q15 13.5 27 14.5 q61 0 71 -39 q0 -10 -1 -27 q-1 -17 -3 -20 q-7 -16 -43 -37 Z" /><glyph glyph-name="abhoahuyen" unicode="&#x1ea6;" d="M719 1425 l614 -1431 q-26 2 -43 3 q-17 1 -28.5 2 q-11.5 1 -34.5 1 q-20 0 -51 -2 q-31 -2 -58 -4 q-104 301 -215 553 l-520 0 q-48 -120 -80 -202 q-32 -82 -65.5 -176 q-33.5 -94 -57.5 -175 q-18 2 -30.5 3 q-12.5 1 -21 2 q-8.5 1 -24.5 1 q-17 0 -25 -1 q-8 -1 -20 -2 q-12 -1 -26 -3 l639 1431 l47 0 ZM872 633 l-227 524 l-223 -524 l450 0 ZM471 1495 l-61 0 l225 293 l100 0 l226 -293 l-60 0 l-215 186 l-215 -186 ZM969 1804 l-66 0 l-278 174 q-9 6 -17.5 12 q-8.5 6 -16.5 13.5 q-8 7.5 -11 13.5 q-2 17 -2 49 q12 39 73 39 q17 -4 21 -8 q12 -9 31 -28 q19 -19 34 -35 l232 -230 Z" /><glyph glyph-name="abhoahoi" unicode="&#x1ea8;" d="M719 1425 l614 -1431 q-26 2 -43 3 q-17 1 -28.5 2 q-11.5 1 -34.5 1 q-20 0 -51 -2 q-31 -2 -58 -4 q-104 301 -215 553 l-520 0 q-48 -120 -80 -202 q-32 -82 -65.5 -176 q-33.5 -94 -57.5 -175 q-18 2 -30.5 3 q-12.5 1 -21 2 q-8.5 1 -24.5 1 q-17 0 -25 -1 q-8 -1 -20 -2 q-12 -1 -26 -3 l639 1431 l47 0 ZM872 633 l-227 524 l-223 -524 l450 0 ZM471 1495 l-61 0 l225 293 l100 0 l226 -293 l-60 0 l-215 186 l-215 -186 ZM1071 1878 l-67 -47 q-20 -12 -33.5 -20.5 q-13.5 -8.5 -22 -18.5 q-8.5 -10 -8.5 -23 q3 -19 24 -31 q21 -12 48 -12 q2 0 35 5 l-23 -33 q-6 -2 -33 -2 q-57 0 -99 23.5 q-42 23.5 -42 62.5 q0 25 18.5 45 q18.5 20 51.5 41 l73 47 q64 37 64 72 q0 22 -32.5 37.5 q-32.5 15.5 -76.5 15.5 q-63 0 -100 -33 l-6 45 q71 23 119 23 q86 0 134 -26 q48 -26 48 -71 q0 -30 -17 -51.5 q-17 -21.5 -55 -48.5 Z" /><glyph glyph-name="abhoanga" unicode="&#x1eaa;" d="M719 1425 l614 -1431 q-26 2 -43 3 q-17 1 -28.5 2 q-11.5 1 -34.5 1 q-20 0 -51 -2 q-31 -2 -58 -4 q-104 301 -215 553 l-520 0 q-48 -120 -80 -202 q-32 -82 -65.5 -176 q-33.5 -94 -57.5 -175 q-18 2 -30.5 3 q-12.5 1 -21 2 q-8.5 1 -24.5 1 q-17 0 -25 -1 q-8 -1 -20 -2 q-12 -1 -26 -3 l639 1431 l47 0 ZM872 633 l-227 524 l-223 -524 l450 0 ZM471 1495 l-61 0 l225 293 l100 0 l226 -293 l-60 0 l-215 186 l-215 -186 ZM432 1890 l-41 0 q17 79 68 130 q51 51 123 51 q15 0 45 -7 q35 -12 88 -39 q37 -19 63 -28 q30 -8 45 -8 q45 0 68 30 q11 12 33 58 l53 0 q-13 -51 -38.5 -93.5 q-25.5 -42.5 -65.5 -68 q-40 -25.5 -91 -25.5 q-27 0 -47.5 5.5 q-20.5 5.5 -42 15.5 q-21.5 10 -43.5 20 q-38 19 -65.5 30 q-27.5 11 -53.5 11 q-22 0 -38 -8 q-41 -15 -60 -74 Z" /><glyph glyph-name="abhoanang" unicode="&#x1eac;" d="M719 1425 l614 -1431 q-26 2 -43 3 q-17 1 -28.5 2 q-11.5 1 -34.5 1 q-20 0 -51 -2 q-31 -2 -58 -4 q-104 301 -215 553 l-520 0 q-48 -120 -80 -202 q-32 -82 -65.5 -176 q-33.5 -94 -57.5 -175 q-18 2 -30.5 3 q-12.5 1 -21 2 q-8.5 1 -24.5 1 q-17 0 -25 -1 q-8 -1 -20 -2 q-12 -1 -26 -3 l639 1431 l47 0 ZM872 633 l-227 524 l-223 -524 l450 0 ZM471 1495 l-61 0 l225 293 l100 0 l226 -293 l-60 0 l-215 186 l-215 -186 ZM739 -219 q0 -39 -28.5 -67.5 q-28.5 -28.5 -67.5 -28.5 q-38 0 -67 29 q-29 29 -29 67 q0 40 29 68 q29 28 67 28 q39 0 67.5 -27.5 q28.5 -27.5 28.5 -68.5 Z" /><glyph glyph-name="ebthsac" unicode="&#x1ebf;" d="M907 205 l-2 -107 q-82 -57 -172.5 -89 q-90.5 -32 -179.5 -32 q-141 0 -251 60.5 q-110 60.5 -171 174.5 q-61 114 -61 269 q0 144 54 258.5 q54 114.5 160.5 180 q106.5 65.5 254.5 65.5 q83 0 159 -28.5 q76 -28.5 133 -84 q57 -55.5 91 -142 q34 -86.5 34 -202.5 q0 -14 -0.5 -23.5 q-0.5 -9.5 -1.5 -21.5 q-208 6 -415 6 l-289 0 q-2 -14 -2 -43 q0 -78 23 -147.5 q23 -69.5 69.5 -123 q46.5 -53.5 114 -83 q67.5 -29.5 149.5 -29.5 q156 0 303 142 ZM250 565 l545 0 q-4 158 -61 257.5 q-57 99.5 -195 99.5 q-91 0 -153.5 -50.5 q-62.5 -50.5 -96 -132.5 q-33.5 -82 -39.5 -174 ZM303 1067 l-61 0 l225 293 l100 0 l226 -293 l-60 0 l-215 186 l-215 -186 ZM1034 1481 l-284 -183 l-62 0 l230 230 q12 11 25 24 q13 13 20 21 q4 2 19.5 16 q15.5 14 27.5 15 q61 0 71 -39 q0 -10 -1 -27 q-1 -17 -3 -20 q-7 -16 -43 -37 Z" /><glyph glyph-name="ebthhuyen" unicode="&#x1ec1;" d="M907 205 l-2 -107 q-82 -57 -172.5 -89 q-90.5 -32 -179.5 -32 q-141 0 -251 60.5 q-110 60.5 -171 174.5 q-61 114 -61 269 q0 144 54 258.5 q54 114.5 160.5 180 q106.5 65.5 254.5 65.5 q83 0 159 -28.5 q76 -28.5 133 -84 q57 -55.5 91 -142 q34 -86.5 34 -202.5 q0 -14 -0.5 -23.5 q-0.5 -9.5 -1.5 -21.5 q-208 6 -415 6 l-289 0 q-2 -14 -2 -43 q0 -78 23 -147.5 q23 -69.5 69.5 -123 q46.5 -53.5 114 -83 q67.5 -29.5 149.5 -29.5 q156 0 303 142 ZM250 565 l545 0 q-4 158 -61 257.5 q-57 99.5 -195 99.5 q-91 0 -153.5 -50.5 q-62.5 -50.5 -96 -132.5 q-33.5 -82 -39.5 -174 ZM303 1067 l-61 0 l225 293 l100 0 l226 -293 l-60 0 l-215 186 l-215 -186 ZM801 1376 l-66 0 l-278 174 q-9 6 -17.5 12 q-8.5 6 -16.5 13.5 q-8 7.5 -11 13.5 q-2 17 -2 49 q12 39 73 39 q17 -4 21 -8 q12 -9 31 -28 q19 -19 34 -35 l232 -230 Z" /><glyph glyph-name="ebthhoi" unicode="&#x1ec3;" d="M907 205 l-2 -107 q-82 -57 -172.5 -89 q-90.5 -32 -179.5 -32 q-141 0 -251 60.5 q-110 60.5 -171 174.5 q-61 114 -61 269 q0 144 54 258.5 q54 114.5 160.5 180 q106.5 65.5 254.5 65.5 q83 0 159 -28.5 q76 -28.5 133 -84 q57 -55.5 91 -142 q34 -86.5 34 -202.5 q0 -14 -0.5 -23.5 q-0.5 -9.5 -1.5 -21.5 q-208 6 -415 6 l-289 0 q-2 -14 -2 -43 q0 -78 23 -147.5 q23 -69.5 69.5 -123 q46.5 -53.5 114 -83 q67.5 -29.5 149.5 -29.5 q156 0 303 142 ZM250 565 l545 0 q-4 158 -61 257.5 q-57 99.5 -195 99.5 q-91 0 -153.5 -50.5 q-62.5 -50.5 -96 -132.5 q-33.5 -82 -39.5 -174 ZM303 1067 l-61 0 l225 293 l100 0 l226 -293 l-60 0 l-215 186 l-215 -186 ZM903 1450 l-67 -47 q-20 -12 -33.5 -20.5 q-13.5 -8.5 -22 -18.5 q-8.5 -10 -8.5 -23 q3 -19 24 -31 q21 -12 48 -12 q13 0 35 5 l-23 -33 q-6 -2 -33 -2 q-57 0 -99 23.5 q-42 23.5 -42 62.5 q0 25 18.5 45 q18.5 20 51.5 41 l73 47 q64 37 64 72 q0 22 -32.5 37.5 q-32.5 15.5 -76.5 15.5 q-63 0 -100 -33 l-6 45 q71 23 119 23 q86 0 134 -26 q48 -26 48 -71 q0 -30 -17 -51.5 q-17 -21.5 -55 -48.5 Z" /><glyph glyph-name="ebthnga" unicode="&#x1ec5;" d="M907 205 l-2 -107 q-82 -57 -172.5 -89 q-90.5 -32 -179.5 -32 q-141 0 -251 60.5 q-110 60.5 -171 174.5 q-61 114 -61 269 q0 144 54 258.5 q54 114.5 160.5 180 q106.5 65.5 254.5 65.5 q83 0 159 -28.5 q76 -28.5 133 -84 q57 -55.5 91 -142 q34 -86.5 34 -202.5 q0 -14 -0.5 -23.5 q-0.5 -9.5 -1.5 -21.5 q-208 6 -415 6 l-289 0 q-2 -14 -2 -43 q0 -78 23 -147.5 q23 -69.5 69.5 -123 q46.5 -53.5 114 -83 q67.5 -29.5 149.5 -29.5 q156 0 303 142 ZM250 565 l545 0 q-4 158 -61 257.5 q-57 99.5 -195 99.5 q-91 0 -153.5 -50.5 q-62.5 -50.5 -96 -132.5 q-33.5 -82 -39.5 -174 ZM303 1067 l-61 0 l225 293 l100 0 l226 -293 l-60 0 l-215 186 l-215 -186 ZM264 1462 l-41 0 q17 79 68.5 129.5 q51.5 50.5 122.5 50.5 q19 0 45 -6 q35 -12 88 -39 q37 -19 63 -28 q30 -8 45 -8 q46 0 68 30 q16 16 33 58 l53 0 q-13 -51 -38.5 -93.5 q-25.5 -42.5 -65.5 -68 q-40 -25.5 -91 -25.5 q-27 0 -47.5 5.5 q-20.5 5.5 -42 15.5 q-21.5 10 -43.5 20 q-38 19 -65.5 30 q-27.5 11 -53.5 11 q-22 0 -38 -8 q-41 -15 -60 -74 Z" /><glyph glyph-name="ebthnang" unicode="&#x1ec7;" d="M907 205 l-2 -107 q-82 -57 -172.5 -89 q-90.5 -32 -179.5 -32 q-141 0 -251 60.5 q-110 60.5 -171 174.5 q-61 114 -61 269 q0 144 54 258.5 q54 114.5 160.5 180 q106.5 65.5 254.5 65.5 q83 0 159 -28.5 q76 -28.5 133 -84 q57 -55.5 91 -142 q34 -86.5 34 -202.5 q0 -14 -0.5 -23.5 q-0.5 -9.5 -1.5 -21.5 q-208 6 -415 6 l-289 0 q-2 -14 -2 -43 q0 -78 23 -147.5 q23 -69.5 69.5 -123 q46.5 -53.5 114 -83 q67.5 -29.5 149.5 -29.5 q156 0 303 142 ZM250 565 l545 0 q-4 158 -61 257.5 q-57 99.5 -195 99.5 q-91 0 -153.5 -50.5 q-62.5 -50.5 -96 -132.5 q-33.5 -82 -39.5 -174 ZM303 1067 l-61 0 l225 293 l100 0 l226 -293 l-60 0 l-215 186 l-215 -186 ZM612 -227 q0 -40 -28.5 -68.5 q-28.5 -28.5 -67.5 -28.5 q-38 0 -67 29 q-29 29 -29 68 q0 40 29 68 q29 28 67 28 q39 0 67.5 -27.5 q28.5 -27.5 28.5 -68.5 Z" /><glyph glyph-name="ebhoasac" unicode="&#x1ebe;" d="M362 1298 l0 -514 l318 0 q19 0 55 2.5 q36 2.5 61.5 4.5 q25.5 2 65.5 4 q-2 -18 -4 -31 q-2 -13 -2 -23 q0 -6 2 -21 q2 -15 4 -36 q-40 2 -65.5 4 q-25.5 2 -61.5 4 q-36 2 -55 2 l-318 0 l0 -598 q125 0 371 8 q84 3 189 19 q-1 -8 -3 -21.5 q-2 -13.5 -2.5 -21.5 q-0.5 -8 -1.5 -19 q0 -14 2.5 -30 q2.5 -16 4.5 -31 l-740 0 l0 1395 l727 0 q-2 -22 -4 -37 q-2 -15 -2 -25 q0 -9 2 -25 q2 -16 4 -36 q-76 15 -184 22 l-205 4 l-158 0 ZM322 1491 l-62 0 l225 293 l101 0 l225 -293 l-59 0 l-215 186 l-215 -186 ZM1053 1905 l-285 -183 l-61 0 l229 230 q12 11 21.5 20 q9.5 9 23.5 25 q14 11 25.5 20.5 q11.5 9.5 21.5 10.5 q62 0 72 -39 q0 -10 -1 -27 q-1 -17 -3 -20 q-4 -8 -10 -14 q-6 -6 -12.5 -10 q-6.5 -4 -20.5 -13 Z" /><glyph glyph-name="ebhoahuyen" unicode="&#x1ec0;" d="M362 1298 l0 -514 l318 0 q19 0 55 2.5 q36 2.5 61.5 4.5 q25.5 2 65.5 4 q-2 -18 -4 -31 q-2 -13 -2 -23 q0 -6 2 -21 q2 -15 4 -36 q-40 2 -65.5 4 q-25.5 2 -61.5 4 q-36 2 -55 2 l-318 0 l0 -598 q125 0 371 8 q84 3 189 19 q-1 -8 -3 -21.5 q-2 -13.5 -2.5 -21.5 q-0.5 -8 -1.5 -19 q0 -14 2.5 -30 q2.5 -16 4.5 -31 l-740 0 l0 1395 l727 0 q-2 -22 -4 -37 q-2 -15 -2 -25 q0 -9 2 -25 q2 -16 4 -36 q-76 15 -184 22 l-205 4 l-158 0 ZM322 1491 l-62 0 l225 293 l101 0 l225 -293 l-59 0 l-215 186 l-215 -186 ZM819 1800 l-65 0 l-279 174 q-8 6 -17 12 q-9 6 -17 13.5 q-8 7.5 -11 13.5 q-2 17 -2 49 q12 39 74 39 q16 -4 20 -8 q16 -11 33 -29 q17 -18 33 -34 l231 -230 Z" /><glyph glyph-name="ebhoahoi" unicode="&#x1ec2;" d="M362 1298 l0 -514 l318 0 q19 0 55 2.5 q36 2.5 61.5 4.5 q25.5 2 65.5 4 q-2 -18 -4 -31 q-2 -13 -2 -23 q0 -6 2 -21 q2 -15 4 -36 q-40 2 -65.5 4 q-25.5 2 -61.5 4 q-36 2 -55 2 l-318 0 l0 -598 q125 0 371 8 q84 3 189 19 q-1 -8 -3 -21.5 q-2 -13.5 -2.5 -21.5 q-0.5 -8 -1.5 -19 q0 -14 2.5 -30 q2.5 -16 4.5 -31 l-740 0 l0 1395 l727 0 q-2 -22 -4 -37 q-2 -15 -2 -25 q0 -9 2 -25 q2 -16 4 -36 q-76 15 -184 22 l-205 4 l-158 0 ZM322 1491 l-62 0 l225 293 l101 0 l225 -293 l-59 0 l-215 186 l-215 -186 ZM922 1874 l-68 -47 q-20 -12 -33 -20.5 q-13 -8.5 -21.5 -18.5 q-8.5 -10 -8.5 -23 q3 -18 23.5 -30.5 q20.5 -12.5 47.5 -12.5 q11 0 35 4 l-23 -32 q-6 -2 -32 -2 q-57 0 -99.5 23.5 q-42.5 23.5 -42.5 62.5 q0 25 18.5 45 q18.5 20 51.5 41 l74 47 q63 38 63 71 q0 23 -32 38.5 q-32 15.5 -76 15.5 q-62 0 -101 -33 l-6 45 q71 23 119 23 q86 0 134 -26 q48 -26 48 -71 q0 -32 -17.5 -53.5 q-17.5 -21.5 -53.5 -46.5 Z" /><glyph glyph-name="ebhoanga" unicode="&#x1ec4;" d="M362 1298 l0 -514 l318 0 q19 0 55 2.5 q36 2.5 61.5 4.5 q25.5 2 65.5 4 q-2 -18 -4 -31 q-2 -13 -2 -23 q0 -6 2 -21 q2 -15 4 -36 q-40 2 -65.5 4 q-25.5 2 -61.5 4 q-36 2 -55 2 l-318 0 l0 -598 q125 0 371 8 q84 3 189 19 q-1 -8 -3 -21.5 q-2 -13.5 -2.5 -21.5 q-0.5 -8 -1.5 -19 q0 -14 2.5 -30 q2.5 -16 4.5 -31 l-740 0 l0 1395 l727 0 q-2 -22 -4 -37 q-2 -15 -2 -25 q0 -9 2 -25 q2 -16 4 -36 q-76 15 -184 22 l-205 4 l-158 0 ZM322 1491 l-62 0 l225 293 l101 0 l225 -293 l-59 0 l-215 186 l-215 -186 ZM283 1886 l-41 0 q15 79 67.5 129.5 q52.5 50.5 122.5 50.5 q21 0 45 -6 q38 -12 88 -39 q45 -21 64 -28 q28 -8 45 -8 q45 0 67 30 q15 15 33 58 l53 0 q-19 -80 -68.5 -133.5 q-49.5 -53.5 -125.5 -53.5 q-27 0 -47.5 5.5 q-20.5 5.5 -42 15.5 q-21.5 10 -43.5 20 q-38 19 -65.5 30 q-27.5 11 -53.5 11 q-23 0 -39 -8 q-40 -14 -59 -74 Z" /></font>
</defs>
</svg>
