<?xml version="1.0" encoding="UTF-8"?>
<svg width="418px" height="78px" viewBox="0 0 418 78" version="1.1" xmlns="http://www.w3.org/2000/svg" xmlns:xlink="http://www.w3.org/1999/xlink">
    <title>btn-arrow-left</title>
    <g id="Page-1" stroke="none" stroke-width="1" fill="none" fill-rule="evenodd">
        <g id="btn-arrow-left" transform="translate(209.333023, 39.003966) scale(-1, 1) translate(-209.333023, -39.003966) translate(0.860000, 0.817932)" fill="#000000" fill-rule="nonzero">
            <polygon id="Path" points="2.84217094e-14 32.5820684 407.54 32.5820684 407.54 43.7810684 8.52651283e-14 43.7810684"></polygon>
            <path d="M371.93,76.3720684 C370.1956,76.3720684 368.4847,75.5673784 367.387,74.0595684 C365.5745,71.5556684 366.1253,68.0517684 368.637,66.2431684 L404.321,40.3881684 C405.23506,39.7280084 405.7546,38.9779684 405.7546,38.3256684 C405.758507,37.6772284 405.23898,36.9194684 404.3249,36.2553684 L368.6059,10.1183684 C366.1137,8.29416844 365.5707,4.78636844 367.395,2.29416844 C369.2153,-0.201931562 372.7075,-0.744931562 375.2192,1.07936844 L410.9382,27.2163684 C414.7702,30.0171684 416.9577,34.0757684 416.946047,38.3493684 C416.942093,42.6227684 414.7272,46.6696684 410.8874,49.4543684 L375.2034,75.3093684 C374.21902,76.0242084 373.0706,76.3720684 371.93,76.3720684 L371.93,76.3720684 Z" id="Path"></path>
        </g>
    </g>
</svg>