<svg xmlns="http://www.w3.org/2000/svg" width="492.6" height="78.59" viewBox="0 0 492.6 78.59">
  <defs>
    <style>
      .cls-1 {
        fill: none;
        stroke: #000;
        stroke-width: 1px;
        fill-rule: evenodd;
      }
    </style>
  </defs>
  <path class="cls-1" d="M1170.56,1800.74c-11.68,6.67-26.64,12.18-26.64,27.32,2.68,10.72,12.94,18.24,22.47,22.63,13.97,5.58,31.93,5.83,46.77,4.16,5.45-7.31,5.98-12.15,3.29-20.9-13.78-18.91-45.58-34.98-68.75-34.98-5.96,5.86-16.31,47.54-9.81,56.2,19.68,11.25,68.61,15.54,87.71,1.83,8.15-12.33-5.41-37.99-19.94-37.99,0,0.05,9.3,11.32,9.3,11.32,78.8,0,156.85,17.24,234.16,30.08,41.79,6.95,83.41,3.9,125.29,7.84l51.98,6.33" transform="translate(-1134.31 -1797.47)"/>
</svg>
